<?xml version="1.0" encoding="iso-8859-1"?>
<!-- Generator: Adobe Illustrator 19.0.0, SVG Export Plug-In . SVG Version: 6.00 Build 0)  -->
<svg version="1.1" id="Layer_1" xmlns="http://www.w3.org/2000/svg" xmlns:xlink="http://www.w3.org/1999/xlink" x="0px" y="0px"
	 viewBox="0 0 512 512" style="enable-background:new 0 0 512 512;" xml:space="preserve">
<circle style="fill:#FF7069;" cx="256" cy="256" r="256"/>
<path style="fill:#596366;" d="M347.622,144.353l74.921-18.556l-0.696,164.687c-0.155,30.463-0.387,61.932-22.5,82.808
	l-42.216,39.741h-48.71l0.155-10.979l24.201-41.52c10.206-17.474,14.922-34.87,14.922-55.128V144.43L347.622,144.353z"/>
<path style="fill:#6C7678;" d="M422.543,137.085l-0.619,153.399c-0.155,30.463-0.387,61.932-22.5,82.808l-42.216,39.741h-24.974
	c7.423-15.928,20.18-37.267,38.504-47.86c31.546-18.247,26.52-66.339,26.52-66.339l-1.624-160.126l26.984-1.546L422.543,137.085z"/>
<path style="fill:#596366;" d="M431.357,117.91c-8.969,48.556-32.242,42.448-79.947,56.519
	c-57.215,16.933-186.878-41.829-131.982-75.076c36.726-22.19,220.434-27.603,211.851,18.479L431.357,117.91z"/>
<path style="fill:#6C7678;" d="M285.922,84.586c53.891-4.794,121.08-0.696,140.332,18.402c-0.077,0.077-48.401,21.804-69.895,16.391
	C334.787,113.967,325.432,108.245,285.922,84.586z"/>
<path style="fill:#FFE356;" d="M364.941,281.36c-67.963,23.737-1.701-12.989-29.69-30.231c-5.412-3.325-7.5-17.01,0-31.546
	c15.309-29.767-34.407-56.442,28.84-31.778c21.881,8.505,22.963,85.823,0.928,93.555H364.941z"/>
<path style="fill:#FCD34E;" d="M364.941,281.36c-8.892,3.093-15.386,5.18-20.257,6.34c0.85-6.727,19.407-24.742,2.088-35.412
	c-5.412-3.325-7.5-17.01,0-31.546c9.819-19.02-7.113-36.881-3.866-40.669c4.948,1.546,11.83,4.021,21.03,7.654
	c21.881,8.505,22.963,85.823,0.928,93.555L364.941,281.36z"/>
<g>
	<path style="fill:#6C7678;" d="M340.354,400.662c15.232-2.938,16.778,9.201,16.778,12.371c0,5.103-14.227,7.036-29.458,7.036
		s-20.644-1.933-20.644-7.036c0,0-1.624-9.51,1.469-10.979c0.696-0.309,30.231-1.005,31.855-1.314V400.662z"/>
	<path style="fill:#6C7678;" d="M283.139,100.9c43.066,13.299,78.014,43.298,78.014,67.035s-34.948,32.087-78.014,18.788
		s-78.014-43.298-78.014-67.035S240.072,87.601,283.139,100.9z"/>
</g>
<path style="fill:#596366;" d="M283.139,112.73c36.571,11.288,66.184,34.407,66.184,51.571s-29.613,21.958-66.184,10.67
	c-36.571-11.288-66.184-34.407-66.184-51.571S246.567,101.441,283.139,112.73z"/>
<path style="fill:#83CF8F;" d="M283.139,112.73c36.571,11.288,66.184,34.407,66.184,51.571c0,1.546-0.232,3.015-0.696,4.33
	L216.954,123.4C216.954,106.235,246.567,101.441,283.139,112.73z"/>
<polygon style="fill:#F9F9F9;" points="40.051,202.96 260.639,202.96 260.639,321.411 40.051,321.411 "/>
<g>
	<path style="fill:#C6CBD6;" d="M55.282,212.238h4.021l0.155,86.519h-4.021L55.282,212.238z M185.486,233.114h-2.165l0.155,65.488
		h2.165L185.486,233.114z M196.542,233.114h-8.814l0.155,65.488h8.814L196.542,233.114z M203.578,233.114h-4.252l0.155,65.488h4.252
		L203.578,233.114z M212.779,233.114h-2.783l0.155,65.488h2.783L212.779,233.114z M241.542,233.037h2.165l0.155,65.488h-2.165
		L241.542,233.037z M230.485,233.037h8.814l0.155,65.488h-8.814L230.485,233.037z M223.449,233.037h4.252l0.155,65.488h-4.253
		L223.449,233.037z M214.248,233.037h2.783l0.155,65.488h-2.783L214.248,233.037z M145.744,212.083h1.469l0.155,86.519h-1.469
		L145.744,212.083z M158.038,212.083h11.752l0.155,86.519h-11.752L158.038,212.083z M152.858,212.083h2.938l0.155,86.519h-2.938
		L152.858,212.083z M130.281,212.083h11.752l0.155,86.519h-11.752L130.281,212.083z M126.028,212.083h2.474l0.155,86.519h-2.474
		L126.028,212.083z M119.92,212.083h2.938l0.155,86.519h-2.938L119.92,212.083z M111.57,212.083h5.876l0.155,86.519h-5.876
		L111.57,212.083z M97.111,212.083h11.752l0.155,86.519H97.266L97.111,212.083z M90.153,212.083h2.474l0.155,86.519h-2.474
		L90.153,212.083z M77.163,212.083h9.665l0.155,86.519h-9.665L77.163,212.083z M63.555,212.083h4.021l0.155,86.519H63.71
		L63.555,212.083z"/>
	<path style="fill:#C6CBD6;" d="M57.525,302.468c0.928,0,1.624,0.309,2.165,1.005c0.619,0.773,1.005,2.088,1.005,3.866
		c0,1.778-0.232,3.093-0.85,3.943c-0.541,0.619-1.237,1.005-2.165,1.005c-0.928,0-1.701-0.387-2.242-1.082
		c-0.619-0.696-0.928-2.01-0.928-3.789s0.232-3.093,0.85-3.866c0.541-0.619,1.237-1.005,2.165-1.005V302.468z M57.525,304.014
		c-0.232,0-0.387,0.077-0.541,0.232s-0.309,0.387-0.387,0.773c-0.077,0.464-0.155,1.237-0.155,2.397c0,1.16,0.077,1.933,0.232,2.32
		s0.232,0.696,0.464,0.85c0.155,0.155,0.387,0.232,0.619,0.232c0.232,0,0.387-0.077,0.541-0.232s0.309-0.387,0.387-0.773
		c0.077-0.464,0.155-1.237,0.155-2.397c0-1.16-0.077-1.856-0.232-2.32c-0.155-0.387-0.232-0.696-0.464-0.85
		C57.989,304.092,57.757,304.014,57.525,304.014z M65.566,309.581l1.778-0.232c0.077,0.464,0.232,0.773,0.464,1.005
		c0.232,0.232,0.541,0.387,0.928,0.387s0.696-0.155,0.928-0.464s0.387-0.696,0.387-1.16c0-0.464-0.155-0.85-0.387-1.082
		c-0.232-0.232-0.541-0.387-0.928-0.387c-0.232,0-0.541,0.077-0.85,0.155l0.155-1.469c0.464,0,0.851-0.077,1.16-0.309
		c0.232-0.232,0.387-0.541,0.387-0.928c0-0.309-0.077-0.541-0.309-0.773c-0.232-0.155-0.464-0.309-0.773-0.309
		c-0.309,0-0.541,0.077-0.773,0.309s-0.309,0.541-0.387,0.928l-1.701-0.309c0.077-0.541,0.309-1.082,0.541-1.392
		c0.232-0.387,0.541-0.619,1.005-0.85c0.387-0.232,0.928-0.309,1.392-0.309c0.928,0,1.624,0.309,2.165,0.85
		c0.464,0.464,0.696,1.005,0.696,1.624c0,0.85-0.464,1.546-1.314,2.01c0.541,0.155,1.005,0.387,1.314,0.773s0.541,0.928,0.541,1.469
		c0,0.851-0.309,1.546-0.851,2.165c-0.619,0.619-1.314,0.928-2.242,0.928c-0.851,0-1.546-0.232-2.165-0.773
		c-0.541-0.464-0.928-1.16-1.005-1.933L65.566,309.581z M80.333,312.056v-1.933h-3.866v-1.624l4.021-6.108h1.546l0.155,6.031h1.16
		v1.624h-1.16l0.077,1.933h-1.778L80.333,312.056z M80.256,308.499l-0.077-3.247l-2.088,3.247H80.256z M87.756,309.504l1.778-0.232
		c0.077,0.464,0.232,0.773,0.464,1.005c0.232,0.232,0.541,0.387,0.928,0.387s0.696-0.155,0.928-0.464
		c0.232-0.309,0.387-0.696,0.387-1.16s-0.155-0.85-0.387-1.082c-0.232-0.232-0.541-0.387-0.928-0.387
		c-0.232,0-0.541,0.077-0.851,0.155l0.155-1.469c0.464,0,0.85-0.077,1.16-0.309c0.232-0.232,0.387-0.541,0.387-0.928
		c0-0.309-0.077-0.541-0.309-0.773c-0.232-0.155-0.464-0.309-0.773-0.309s-0.541,0.077-0.773,0.309
		c-0.232,0.232-0.309,0.541-0.387,0.928l-1.701-0.309c0.077-0.619,0.309-1.082,0.541-1.392c0.232-0.387,0.541-0.619,1.005-0.85
		c0.387-0.232,0.928-0.309,1.392-0.309c0.928,0,1.624,0.309,2.165,0.851c0.464,0.464,0.696,1.005,0.696,1.624
		c0,0.85-0.464,1.546-1.314,2.01c0.541,0.155,1.005,0.387,1.314,0.773s0.541,0.928,0.541,1.469c0,0.85-0.309,1.546-0.85,2.165
		c-0.619,0.619-1.314,0.928-2.242,0.928c-0.85,0-1.546-0.232-2.165-0.773c-0.541-0.464-0.928-1.16-1.005-1.933L87.756,309.504z
		 M104.998,304.788l-1.778,0.232c-0.077-0.387-0.155-0.619-0.387-0.773c-0.155-0.155-0.387-0.232-0.696-0.232
		c-0.387,0-0.696,0.155-1.005,0.541c-0.232,0.387-0.387,1.082-0.464,2.165c0.464-0.541,1.005-0.773,1.701-0.773
		c0.773,0,1.392,0.309,2.01,0.85c0.541,0.619,0.851,1.314,0.851,2.242c0,1.005-0.232,1.778-0.773,2.32
		c-0.541,0.619-1.314,0.85-2.165,0.928c-0.928,0-1.778-0.387-2.397-1.16c-0.619-0.773-1.005-2.01-1.005-3.711
		c0-1.778,0.232-3.015,0.928-3.789c0.619-0.773,1.469-1.16,2.474-1.16c0.696,0,1.314,0.232,1.778,0.619
		c0.464,0.387,0.773,1.005,0.928,1.778V304.788z M100.9,308.808c0,0.619,0.155,1.082,0.464,1.392
		c0.309,0.309,0.619,0.464,0.928,0.464s0.619-0.155,0.851-0.387c0.232-0.232,0.309-0.696,0.309-1.314
		c0-0.619-0.155-1.082-0.387-1.392c-0.232-0.309-0.541-0.464-0.928-0.464s-0.619,0.155-0.851,0.387
		c-0.232,0.309-0.387,0.696-0.309,1.237L100.9,308.808z M116.209,310.277v1.701h-6.417c0.077-0.619,0.232-1.237,0.619-1.856
		c0.309-0.541,1.005-1.314,2.01-2.32c0.773-0.773,1.314-1.314,1.469-1.546c0.232-0.387,0.387-0.773,0.387-1.082
		c0-0.387-0.155-0.696-0.309-0.928c-0.232-0.232-0.541-0.309-0.928-0.309s-0.696,0.155-0.928,0.387
		c-0.232,0.232-0.309,0.619-0.387,1.16l-1.856-0.155c0.077-1.005,0.387-1.701,1.005-2.165c0.541-0.464,1.237-0.619,2.165-0.696
		c0.928,0,1.701,0.232,2.242,0.773c0.541,0.541,0.85,1.16,0.85,1.933c0,0.464-0.077,0.85-0.232,1.237
		c-0.155,0.387-0.387,0.773-0.696,1.237c-0.232,0.309-0.619,0.696-1.16,1.237s-0.928,0.85-1.082,1.082
		c-0.155,0.155-0.309,0.309-0.387,0.541h3.634V310.277z M121.157,309.504l1.856-0.155c0.077,0.387,0.232,0.773,0.464,1.005
		c0.232,0.232,0.541,0.387,0.928,0.387s0.696-0.155,0.928-0.464c0.232-0.309,0.387-0.773,0.387-1.392
		c0-0.619-0.155-1.005-0.387-1.314c-0.232-0.309-0.619-0.464-1.005-0.464c-0.541,0-1.005,0.232-1.392,0.696l-1.469-0.232
		l0.851-4.948h4.871v1.701h-3.479l-0.232,1.624c0.387-0.232,0.85-0.309,1.237-0.309c0.85,0,1.546,0.309,2.088,0.85
		c0.541,0.619,0.85,1.392,0.928,2.32c0,0.773-0.232,1.469-0.619,2.088c-0.619,0.85-1.469,1.237-2.551,1.237
		c-0.85,0-1.624-0.232-2.165-0.696c-0.541-0.464-0.928-1.082-1.005-1.933H121.157z M138.322,304.71l-1.778,0.232
		c-0.077-0.387-0.155-0.619-0.387-0.773c-0.155-0.155-0.387-0.232-0.696-0.232c-0.387,0-0.696,0.155-1.005,0.541
		c-0.232,0.387-0.387,1.082-0.464,2.165c0.464-0.541,1.005-0.773,1.701-0.773c0.773,0,1.392,0.309,2.01,0.85
		c0.541,0.619,0.851,1.314,0.851,2.242c0,1.005-0.232,1.778-0.773,2.32c-0.541,0.619-1.314,0.928-2.165,0.928
		c-0.928,0-1.778-0.387-2.397-1.16c-0.619-0.773-1.005-2.01-1.005-3.711c0-1.778,0.232-3.015,0.928-3.789
		c0.619-0.773,1.469-1.16,2.474-1.16c0.696,0,1.314,0.232,1.778,0.619c0.464,0.387,0.773,1.005,0.928,1.778V304.71z
		 M134.224,308.731c0,0.619,0.155,1.082,0.464,1.392c0.309,0.309,0.619,0.464,0.928,0.464c0.309,0,0.619-0.155,0.851-0.387
		c0.232-0.232,0.309-0.696,0.309-1.314c0-0.619-0.155-1.082-0.387-1.392c-0.232-0.309-0.541-0.464-0.928-0.464
		c-0.387,0-0.619,0.155-0.85,0.387c-0.232,0.309-0.387,0.696-0.309,1.237L134.224,308.731z M146.982,309.349l1.778-0.232
		c0.077,0.464,0.232,0.773,0.464,1.005c0.232,0.232,0.541,0.387,0.928,0.387c0.387,0,0.696-0.155,0.928-0.464
		c0.232-0.309,0.387-0.696,0.387-1.16c0-0.464-0.155-0.85-0.387-1.082c-0.232-0.232-0.541-0.387-0.928-0.387
		c-0.232,0-0.541,0.077-0.85,0.155l0.155-1.469c0.464,0,0.85-0.077,1.16-0.309c0.232-0.232,0.387-0.541,0.387-0.928
		c0-0.309-0.077-0.541-0.309-0.773c-0.232-0.155-0.464-0.309-0.773-0.309c-0.309,0-0.541,0.077-0.773,0.309
		c-0.232,0.232-0.309,0.541-0.387,0.928l-1.701-0.309c0.077-0.541,0.309-1.082,0.541-1.392c0.232-0.387,0.541-0.619,1.005-0.851
		c0.387-0.232,0.928-0.309,1.392-0.309c0.928,0,1.624,0.309,2.165,0.85c0.464,0.464,0.696,1.005,0.696,1.624
		c0,0.85-0.464,1.546-1.314,2.01c0.541,0.155,1.005,0.387,1.314,0.773c0.309,0.387,0.541,0.928,0.541,1.469
		c0,0.85-0.309,1.546-0.851,2.165c-0.619,0.619-1.314,0.928-2.242,0.928c-0.85,0-1.546-0.232-2.165-0.773
		c-0.541-0.464-0.928-1.16-1.005-1.933L146.982,309.349z M164.223,304.633l-1.778,0.232c-0.077-0.387-0.155-0.619-0.387-0.773
		c-0.155-0.155-0.387-0.232-0.696-0.232c-0.387,0-0.696,0.155-1.005,0.541c-0.232,0.387-0.387,1.082-0.464,2.165
		c0.464-0.541,1.005-0.773,1.701-0.773c0.773,0,1.392,0.309,2.01,0.851c0.541,0.619,0.85,1.314,0.85,2.242
		c0,1.005-0.232,1.778-0.773,2.32c-0.541,0.619-1.314,0.851-2.165,0.928c-0.928,0-1.778-0.387-2.397-1.16
		c-0.619-0.773-1.005-2.01-1.005-3.711c0-1.778,0.232-3.015,0.928-3.789c0.619-0.773,1.469-1.16,2.474-1.16
		c0.696,0,1.314,0.232,1.778,0.619c0.464,0.387,0.773,1.005,0.928,1.778V304.633z M160.126,308.654c0,0.619,0.155,1.082,0.464,1.392
		c0.309,0.309,0.619,0.464,0.928,0.464c0.309,0,0.619-0.155,0.85-0.387c0.232-0.232,0.309-0.696,0.309-1.314
		c0-0.619-0.155-1.082-0.387-1.392c-0.232-0.309-0.541-0.464-0.928-0.464c-0.387,0-0.619,0.155-0.85,0.387
		c-0.232,0.309-0.387,0.696-0.309,1.237L160.126,308.654z M169.095,304.092v-1.701h6.263v1.314
		c-0.541,0.541-1.005,1.237-1.546,2.165s-0.928,1.933-1.16,3.015s-0.387,2.01-0.387,2.861h-1.778c0-1.314,0.232-2.706,0.773-4.021
		c0.464-1.392,1.16-2.629,2.01-3.711h-4.175V304.092z M185.022,311.824h-1.856l-0.155-6.881c-0.619,0.619-1.469,1.082-2.32,1.392
		v-1.701c0.464-0.155,1.005-0.464,1.546-0.928c0.541-0.464,0.928-0.928,1.082-1.546h1.469l0.155,9.587L185.022,311.824z
		 M197.625,310.123v1.701h-6.417c0.077-0.619,0.232-1.237,0.619-1.856c0.309-0.541,1.005-1.314,2.01-2.32
		c0.773-0.773,1.314-1.314,1.469-1.546c0.232-0.387,0.387-0.773,0.387-1.082c0-0.387-0.155-0.696-0.387-0.928
		c-0.232-0.232-0.541-0.309-0.928-0.309c-0.387,0-0.696,0.155-0.928,0.387c-0.232,0.232-0.309,0.619-0.387,1.16l-1.856-0.155
		c0.077-1.005,0.387-1.701,1.005-2.165c0.541-0.464,1.314-0.696,2.165-0.696c0.928,0,1.701,0.232,2.242,0.773
		c0.541,0.541,0.85,1.16,0.85,1.933c0,0.464-0.077,0.85-0.232,1.237c-0.155,0.387-0.387,0.773-0.696,1.237
		c-0.232,0.309-0.619,0.696-1.16,1.237s-0.928,0.85-1.082,1.082c-0.155,0.155-0.309,0.309-0.387,0.541h3.634L197.625,310.123z
		 M202.573,309.349l1.856-0.155c0.077,0.387,0.232,0.773,0.464,1.005c0.232,0.232,0.541,0.387,0.928,0.387
		c0.387,0,0.696-0.155,0.928-0.464c0.232-0.309,0.387-0.773,0.387-1.392c0-0.619-0.155-1.005-0.387-1.314
		c-0.232-0.309-0.619-0.464-1.005-0.464c-0.541,0-1.005,0.232-1.392,0.696l-1.469-0.232l0.85-4.948h4.871v1.701h-3.479l-0.232,1.624
		c0.387-0.232,0.85-0.309,1.237-0.309c0.85,0,1.546,0.309,2.088,0.85c0.541,0.619,0.85,1.392,0.928,2.32
		c0,0.773-0.232,1.469-0.619,2.088c-0.619,0.85-1.469,1.237-2.551,1.237c-0.85,0-1.624-0.232-2.165-0.696s-0.928-1.082-1.005-1.933
		H202.573z M217.264,311.746v-1.933h-3.866v-1.624l4.021-6.108h1.546l0.155,6.031h1.16v1.624h-1.16l0.077,1.933h-1.778
		L217.264,311.746z M217.186,308.19l-0.077-3.247l-2.088,3.247H217.186z M234.583,304.478l-1.778,0.232
		c-0.077-0.387-0.155-0.619-0.387-0.773c-0.155-0.155-0.387-0.232-0.696-0.232c-0.387,0-0.696,0.155-1.005,0.541
		c-0.232,0.309-0.387,1.082-0.464,2.165c0.464-0.541,1.005-0.773,1.701-0.773c0.773,0,1.392,0.309,2.01,0.85
		c0.541,0.619,0.85,1.314,0.85,2.242c0,1.005-0.232,1.778-0.773,2.32c-0.541,0.619-1.314,0.928-2.165,0.928
		c-0.928,0-1.778-0.387-2.397-1.082c-0.619-0.773-1.005-2.01-1.005-3.711c0-1.778,0.232-3.015,0.928-3.789
		c0.619-0.773,1.469-1.16,2.474-1.16c0.696,0,1.314,0.232,1.778,0.619c0.464,0.387,0.773,1.005,0.928,1.778V304.478z
		 M230.485,308.499c0,0.619,0.155,1.082,0.464,1.392c0.309,0.309,0.619,0.464,0.928,0.464c0.309,0,0.619-0.155,0.85-0.387
		c0.232-0.232,0.309-0.696,0.309-1.314c0-0.619-0.155-1.082-0.387-1.392c-0.232-0.309-0.541-0.464-0.928-0.464
		c-0.387,0-0.619,0.155-0.85,0.387c-0.232,0.309-0.387,0.696-0.309,1.237L230.485,308.499z M239.531,309.195l1.778-0.232
		c0.077,0.464,0.232,0.773,0.464,1.005c0.232,0.232,0.541,0.387,0.928,0.387c0.387,0,0.696-0.155,0.928-0.464
		s0.387-0.696,0.387-1.16c0-0.464-0.155-0.851-0.387-1.082c-0.232-0.232-0.541-0.387-0.928-0.387c-0.232,0-0.541,0.077-0.851,0.155
		l0.155-1.469c0.464,0,0.85-0.077,1.16-0.309c0.232-0.232,0.387-0.541,0.387-0.928c0-0.309-0.077-0.541-0.309-0.773
		c-0.232-0.155-0.464-0.309-0.773-0.309c-0.309,0-0.541,0.077-0.773,0.309c-0.232,0.232-0.309,0.541-0.387,0.928l-1.701-0.309
		c0.077-0.619,0.309-1.082,0.541-1.392c0.232-0.387,0.541-0.619,1.005-0.851c0.387-0.232,0.928-0.309,1.392-0.309
		c0.928,0,1.624,0.309,2.165,0.85c0.464,0.464,0.696,1.005,0.696,1.624c0,0.85-0.464,1.546-1.314,2.01
		c0.541,0.155,1.005,0.387,1.314,0.773c0.309,0.387,0.541,0.928,0.541,1.469c0,0.85-0.309,1.546-0.85,2.165
		c-0.619,0.619-1.314,0.928-2.242,0.928c-0.85,0-1.546-0.232-2.165-0.773c-0.541-0.464-0.928-1.16-1.005-1.933L239.531,309.195z"/>
</g>
<g>
</g>
<g>
</g>
<g>
</g>
<g>
</g>
<g>
</g>
<g>
</g>
<g>
</g>
<g>
</g>
<g>
</g>
<g>
</g>
<g>
</g>
<g>
</g>
<g>
</g>
<g>
</g>
<g>
</g>
</svg>
