<?xml version="1.0" encoding="iso-8859-1"?>
<!-- Generator: Adobe Illustrator 19.0.0, SVG Export Plug-In . SVG Version: 6.00 Build 0)  -->
<svg version="1.1" id="Layer_1" xmlns="http://www.w3.org/2000/svg" xmlns:xlink="http://www.w3.org/1999/xlink" x="0px" y="0px"
	 viewBox="0 0 512 512" style="enable-background:new 0 0 512 512;" xml:space="preserve">
<g>
	<g>
		<path d="M302.298,209.702H155.234c-4.512,0-8.17,3.658-8.17,8.17c0,4.512,3.658,8.17,8.17,8.17h147.064
			c4.512,0,8.17-3.658,8.17-8.17C310.468,213.36,306.81,209.702,302.298,209.702z"/>
	</g>
</g>
<g>
	<g>
		<path d="M285.527,253.277H89.872c-4.512,0-8.17,3.658-8.17,8.17v43.574c0,4.512,3.658,8.17,8.17,8.17h171.183
			c4.512,0,8.17-3.658,8.17-8.17c0-4.512-3.658-8.17-8.17-8.17H98.043v-27.234h187.485c4.512,0,8.17-3.658,8.17-8.17
			C293.697,256.935,290.039,253.277,285.527,253.277z"/>
	</g>
</g>
<g>
	<g>
		<circle cx="375.83" cy="84.426" r="8.17"/>
	</g>
</g>
<g>
	<g>
		<circle cx="343.149" cy="84.426" r="8.17"/>
	</g>
</g>
<g>
	<g>
		<circle cx="408.511" cy="84.426" r="8.17"/>
	</g>
</g>
<g>
	<g>
		<path d="M449.362,43.574H8.17c-3.095,0-5.924,1.748-7.307,4.517C0,49.815,0,49.815,0,55.721v350.066c0,4.512,3.658,8.17,8.17,8.17
			h256.005c4.512,0,8.17-3.658,8.17-8.17s-3.658-8.17-8.17-8.17H16.34c0-35.947,0-181.912,0-272.34h424.851v95.326
			c0,4.512,3.658,8.17,8.17,8.17s8.17-3.658,8.17-8.17V51.745C457.532,47.233,453.874,43.574,449.362,43.574z M294.128,108.936
			H16.34c0-22.068,0-39.457,0-49.021h277.787V108.936z M441.191,108.936H310.468V59.915h130.723V108.936z"/>
	</g>
</g>
<g>
	<g>
		<path d="M394.894,234.213c-64.573,0-117.106,52.533-117.106,117.106s52.533,117.106,117.106,117.106S512,415.892,512,351.319
			S459.466,234.213,394.894,234.213z M394.894,452.085c-55.563,0-100.766-45.203-100.766-100.766s45.203-100.766,100.766-100.766
			c55.563,0,100.766,45.203,100.766,100.766S450.455,452.085,394.894,452.085z"/>
	</g>
</g>
<g>
	<g>
		<path d="M449.362,326.809h-29.957v-29.957c0-13.516-10.995-24.511-24.511-24.511s-24.511,10.995-24.511,24.511v29.957h-29.957
			c-13.516,0-24.511,10.995-24.511,24.511s10.995,24.511,24.511,24.511h29.957v29.957c0,13.516,10.995,24.511,24.511,24.511
			s24.511-10.995,24.511-24.511V375.83h29.957c13.516,0,24.511-10.995,24.511-24.511S462.876,326.809,449.362,326.809z
			 M449.362,359.489h-38.128c-4.512,0-8.17,3.658-8.17,8.17v38.128c0,4.506-3.665,8.17-8.17,8.17c-4.506,0-8.17-3.665-8.17-8.17
			V367.66c0-4.512-3.658-8.17-8.17-8.17h-38.128c-4.506,0-8.17-3.665-8.17-8.17s3.665-8.17,8.17-8.17h38.128
			c4.512,0,8.17-3.658,8.17-8.17v-38.128c0-4.506,3.665-8.17,8.17-8.17c4.506,0,8.17,3.665,8.17,8.17v38.128
			c0,4.512,3.658,8.17,8.17,8.17h38.128c4.506,0,8.17,3.665,8.17,8.17S453.866,359.489,449.362,359.489z"/>
	</g>
</g>
<g>
</g>
<g>
</g>
<g>
</g>
<g>
</g>
<g>
</g>
<g>
</g>
<g>
</g>
<g>
</g>
<g>
</g>
<g>
</g>
<g>
</g>
<g>
</g>
<g>
</g>
<g>
</g>
<g>
</g>
</svg>
