<?xml version="1.0" encoding="iso-8859-1"?>
<!-- Generator: Adobe Illustrator 19.0.0, SVG Export Plug-In . SVG Version: 6.00 Build 0)  -->
<svg version="1.1" id="Capa_1" xmlns="http://www.w3.org/2000/svg" xmlns:xlink="http://www.w3.org/1999/xlink" x="0px" y="0px"
	 viewBox="0 0 512 512" style="enable-background:new 0 0 512 512;" xml:space="preserve">
<g>
	<g>
		<g>
			<path d="M503.66,191.56l-15.488,4c10.383,40.047,10.226,82.1-0.457,122.069c-10.114,37.839-28.739,71.13-53.261,98.371h-74.61
				V304c0.014-1.238-0.26-2.462-0.8-3.576l-8-16c-0.848-1.686-2.265-3.018-4-3.76l-53.12-22.984l-4.276-13.253
				c13.839-11.185,22.196-29.741,22.196-52.427v-16v-48c0-2.122-0.844-4.156-2.344-5.656C294.557,109.702,275.4,103.152,255.844,104
				c-19.555-0.848-38.712,5.702-53.656,18.344c-1.5,1.5-2.344,3.534-2.344,5.656v48v16c0,22.68,8.35,41.232,22.182,52.419
				l-4.278,13.261l-53.064,22.984c-1.735,0.742-3.152,2.074-4,3.76l-8,16c-0.554,1.111-0.841,2.335-0.84,3.576v112H77.827
				C25.554,357.742,2.8,275.081,24.519,193.823C58.708,65.915,190.112-10.06,318.02,24.128l4.144-15.456
				C300.696,2.937,278.572,0.022,256.351,0C114.966-0.14,0.238,114.362,0.098,255.747C-0.042,397.132,114.459,511.86,255.844,512
				c21.594-0.019,43.099-2.767,64.004-8.18C456.835,468.35,539.13,328.547,503.66,191.56z M255.844,120
				c14.245-0.483,28.268,3.625,40,11.72v35.125c-4-1.052-8-3.053-8-6.845c0-4.418-3.582-8-8-8h-48c-4.418,0-8,3.582-8,8
				c0,3.792-4,5.792-8,6.845v-35.117C227.575,123.631,241.598,119.519,255.844,120z M215.844,192v-8.744
				c9.621-0.924,18.114-6.67,22.552-15.256H273.3c4.433,8.587,12.925,14.334,22.544,15.256V192c0,22.144-10.48,48-40,48
				S215.844,214.144,215.844,192z M255.844,256c7.043,0,13.627-1.21,19.635-3.467l3.054,9.466l-22.689,22.689l-22.696-22.696
				l3.049-9.462C242.209,254.789,248.797,256,255.844,256z M167.844,305.888l5.84-11.704l48.173-20.859l25.987,25.987V328h16
				v-28.688l25.987-25.987l48.165,20.859l5.848,11.704V416h-24v-40h-16v40h-96v-40h-16v40h-24V305.888z M194.214,487.323
				C155.326,476.929,121.251,457.536,93.6,432h325.018C360.251,485.704,276.512,509.321,194.214,487.323z"/>
			<path d="M71.844,248c0.115-101.573,82.427-183.885,184-184V48c-110.406,0.123-199.877,89.594-200,200H71.844z"/>
			<path d="M415.844,192c52.996-0.057,95.943-43.004,96-96c0-53.019-42.981-96-96-96s-96,42.981-96,96S362.825,192,415.844,192z
				 M415.844,16c44.163,0.049,79.952,35.837,80,80c0,44.183-35.817,80-80,80c-44.183,0-80-35.817-80-80S371.662,16,415.844,16z"/>
			<polygon points="407.844,144 423.844,144 423.844,104 463.844,104 463.844,88 423.844,88 423.844,48 407.844,48 407.844,88 
				367.844,88 367.844,104 407.844,104 			"/>
		</g>
	</g>
</g>
<g>
</g>
<g>
</g>
<g>
</g>
<g>
</g>
<g>
</g>
<g>
</g>
<g>
</g>
<g>
</g>
<g>
</g>
<g>
</g>
<g>
</g>
<g>
</g>
<g>
</g>
<g>
</g>
<g>
</g>
</svg>
