<?xml version="1.0" encoding="iso-8859-1"?>
<!-- Generator: Adobe Illustrator 19.0.0, SVG Export Plug-In . SVG Version: 6.00 Build 0)  -->
<svg version="1.1" id="Layer_1" xmlns="http://www.w3.org/2000/svg" xmlns:xlink="http://www.w3.org/1999/xlink" x="0px" y="0px"
	 viewBox="0 0 512 512" style="enable-background:new 0 0 512 512;" xml:space="preserve">
<circle style="fill:#FFC61B;" cx="256" cy="256" r="256"/>
<path style="fill:#EAA22F;" d="M260.527,511.943c137.787-2.391,249.023-113.63,251.416-251.416L400.21,148.794l-24.831,22.64
	l-93.212-93.212l-42.544,40.153l92.498,92.498l-66.786,60.89l-59.956-59.956L78.222,282.169l80.674,80.674l-10.102,37.369
	L260.527,511.943z"/>
<path style="fill:#386895;" d="M406.64,229.833c-3.498-23.011-12.152-44.32-24.729-62.738l18.301-18.301l-37.005-37.005
	l-17.78,17.78c-18.41-13.369-39.921-22.704-63.257-26.745V78.222h-52.333v24.602c-23.337,4.041-44.849,13.378-63.257,26.746
	l-17.784-17.78l-37.005,37.005l18.301,18.301c-12.579,18.418-21.233,39.729-24.731,62.738H78.222v52.333h28.231
	c4.308,22.154,13.415,42.58,26.195,60.18l-20.859,20.859l37.005,37.004l21.38-21.38c17.591,12.014,37.831,20.408,59.659,24.186
	v30.76h52.333v-30.76c21.828-3.781,42.07-12.174,59.659-24.188l21.38,21.38l37.005-37.005l-20.859-20.859
	c12.781-17.599,21.888-38.026,26.195-60.18h28.231v-52.333L406.64,229.833z M256,329.113c-42.079,0-76.19-34.111-76.19-76.191
	S213.921,176.73,256,176.73s76.19,34.111,76.19,76.19S298.079,329.113,256,329.113z"/>
<path style="fill:#273B7A;" d="M406.64,229.833c-3.498-23.011-12.152-44.32-24.729-62.738l18.301-18.301l-37.005-37.005
	l-17.78,17.78c-18.41-13.369-39.921-22.704-63.257-26.745V78.222h-26.74v98.523c0.193-0.002,0.381-0.016,0.574-0.016
	c42.079,0,76.19,34.111,76.19,76.19s-34.111,76.191-76.19,76.191c-0.193,0-0.381-0.014-0.574-0.016v104.681h26.74v-30.76
	c21.828-3.781,42.07-12.174,59.659-24.188l21.38,21.38l37.005-37.005l-20.859-20.859c12.781-17.599,21.888-38.026,26.196-60.18
	h28.231v-52.333H406.64V229.833z"/>
<circle style="fill:#FFFFFF;" cx="256" cy="256" r="106.667"/>
<path style="fill:#D0D1D3;" d="M256,149.333c-0.193,0-0.383,0.014-0.574,0.014v213.304c0.193,0,0.383,0.014,0.574,0.014
	c58.911,0,106.667-47.756,106.667-106.667S314.911,149.333,256,149.333z"/>
<polygon style="fill:#B54324;" points="227.149,298.26 213.74,284.851 246.519,252.073 246.519,184.889 265.481,184.889 
	265.481,259.927 "/>
<polygon style="fill:#930000;" points="265.481,184.889 255.426,184.889 255.426,269.983 265.481,259.927 "/>
<g>
</g>
<g>
</g>
<g>
</g>
<g>
</g>
<g>
</g>
<g>
</g>
<g>
</g>
<g>
</g>
<g>
</g>
<g>
</g>
<g>
</g>
<g>
</g>
<g>
</g>
<g>
</g>
<g>
</g>
</svg>
