<?xml version="1.0" encoding="iso-8859-1"?>
<!-- Generator: Adobe Illustrator 19.0.0, SVG Export Plug-In . SVG Version: 6.00 Build 0)  -->
<svg version="1.1" id="Capa_1" xmlns="http://www.w3.org/2000/svg" xmlns:xlink="http://www.w3.org/1999/xlink" x="0px" y="0px"
	 viewBox="0 0 512 512" style="enable-background:new 0 0 512 512;" xml:space="preserve">
<g>
	<g>
		<path d="M440.185,242.935C426.583,226.869,390.274,189.5,347,189.5s-79.583,37.369-93.185,53.436
			c-6.164,7.28-6.164,17.849,0,25.129C267.417,284.131,303.726,321.5,347,321.5s79.583-37.369,93.185-53.436
			C446.349,260.784,446.349,250.215,440.185,242.935z M285.334,278.73c-8.777-7.628-15.71-15.208-20.07-20.357
			c-1.409-1.665-1.409-4.081,0-5.746c4.36-5.149,11.293-12.729,20.07-20.357c-2.732,7.229-4.24,15.056-4.24,23.23
			C281.094,263.674,282.601,271.5,285.334,278.73z M347,306.406c-28.07,0-50.906-22.837-50.906-50.906
			c0-28.069,22.836-50.906,50.906-50.906s50.906,22.837,50.906,50.906C397.906,283.569,375.07,306.406,347,306.406z
			 M428.736,258.373c-4.36,5.149-11.293,12.729-20.07,20.357c2.732-7.229,4.24-15.056,4.24-23.23c0-8.174-1.507-16-4.24-23.23
			c8.777,7.628,15.71,15.208,20.07,20.357C430.145,254.292,430.145,256.708,428.736,258.373z"/>
	</g>
</g>
<g>
	<g>
		<path d="M347,214.055c-22.854,0-41.446,18.593-41.446,41.445s18.592,41.445,41.446,41.445s41.446-18.593,41.446-41.445
			C388.446,232.648,369.854,214.055,347,214.055z M347,281.945c-14.582,0-26.446-11.863-26.446-26.445
			c0-14.582,11.864-26.445,26.446-26.445c14.582,0,26.446,11.863,26.446,26.445C373.446,270.082,361.582,281.945,347,281.945z"/>
	</g>
</g>
<g>
	<g>
		<path d="M183.6,136H80.4c-11.524,0-20.9,9.376-20.9,20.9v103.2c0,11.524,9.375,20.9,20.9,20.9h103.2
			c11.524,0,20.9-9.376,20.9-20.9V156.9C204.5,145.376,195.125,136,183.6,136z M132,151c12.958,0,23.5,10.542,23.5,23.5
			S144.958,198,132,198s-23.5-10.542-23.5-23.5S119.042,151,132,151z M80.5,246.181V266h-0.1c-3.254,0-5.9-2.646-5.9-5.9V156.9
			c0-3.254,2.646-5.9,5.9-5.9h21.136c-5.031,6.507-8.036,14.657-8.036,23.5c0,11.497,5.072,21.825,13.088,28.886
			C91.108,211.41,80.5,227.574,80.5,246.181z M168.501,266H95.5v-19.819c0-18.296,14.885-33.181,33.181-33.181h6.639
			c18.296,0,33.181,14.885,33.181,33.181V266z M189.5,260.1c0,3.254-2.646,5.9-5.9,5.9h-0.1v-19.819
			c0-18.606-10.608-34.771-26.088-42.795c8.016-7.061,13.088-17.389,13.088-28.886c0-8.843-3.004-16.993-8.036-23.5H183.6
			c3.253,0,5.9,2.646,5.9,5.9V260.1z"/>
	</g>
</g>
<g>
	<g>
		<path d="M142,303H70c-4.142,0-7.5,3.357-7.5,7.5s3.358,7.5,7.5,7.5h72c4.142,0,7.5-3.357,7.5-7.5S146.142,303,142,303z"/>
	</g>
</g>
<g>
	<g>
		<path d="M197,303h-34c-4.142,0-7.5,3.357-7.5,7.5s3.358,7.5,7.5,7.5h34c4.142,0,7.5-3.357,7.5-7.5S201.142,303,197,303z"/>
	</g>
</g>
<g>
	<g>
		<path d="M142,330H70c-4.142,0-7.5,3.357-7.5,7.5s3.358,7.5,7.5,7.5h72c4.142,0,7.5-3.357,7.5-7.5S146.142,330,142,330z"/>
	</g>
</g>
<g>
	<g>
		<path d="M197,330h-34c-4.142,0-7.5,3.357-7.5,7.5s3.358,7.5,7.5,7.5h34c4.142,0,7.5-3.357,7.5-7.5S201.142,330,197,330z"/>
	</g>
</g>
<g>
	<g>
		<path d="M142,357H70c-4.142,0-7.5,3.357-7.5,7.5s3.358,7.5,7.5,7.5h72c4.142,0,7.5-3.357,7.5-7.5S146.142,357,142,357z"/>
	</g>
</g>
<g>
	<g>
		<path d="M197,357h-34c-4.142,0-7.5,3.357-7.5,7.5s3.358,7.5,7.5,7.5h34c4.142,0,7.5-3.357,7.5-7.5S201.142,357,197,357z"/>
	</g>
</g>
<g>
	<g>
		<path d="M479,443h-54c-4.142,0-7.5,3.358-7.5,7.5V470h-20.354l-24.3-63h79.226c14.596,0,26.428-11.832,26.428-26.428V134.428
			c0-14.596-11.832-26.428-26.428-26.428h-40.667c-4.142,0-7.5,3.358-7.5,7.5c0,4.142,3.358,7.5,7.5,7.5h40.667
			c6.312,0,11.428,5.117,11.428,11.428v246.143c0,6.312-5.117,11.429-11.429,11.429H367.06l-21.949-56.904
			c-1.478-3.831-5.719-6.034-9.593-4.673c-4.009,1.409-6.034,5.839-4.516,9.776L350.983,392H155.384c-4.142,0-7.5,3.358-7.5,7.5
			c0,4.142,3.358,7.5,7.5,7.5h201.384l28.234,73.199c1.116,2.893,3.897,4.801,6.998,4.801h25.5v19.5c0,4.142,3.358,7.5,7.5,7.5h54
			c4.142,0,7.5-3.358,7.5-7.5v-54C486.5,446.358,483.142,443,479,443z M471.5,497h-39v-39h39V497z"/>
	</g>
</g>
<g>
	<g>
		<path d="M362.604,108h-42.23l-25.371-66.185C293.891,38.915,291.106,37,288,37h-37.145C247.09,14.923,227.02-1.668,203.511,0.134
			c-22.334,1.712-40.101,20.208-40.976,42.591C161.544,68.067,181.873,89,207,89c21.981,0,40.278-16.023,43.855-37h31.988l21.467,56
			H51.928C37.332,108,25.5,119.832,25.5,134.428v246.143C25.5,395.167,37.333,407,51.929,407h54.654c4.142,0,7.5-3.358,7.5-7.5
			c0-4.142-3.358-7.5-7.5-7.5H51.928c-6.311,0-11.428-5.117-11.428-11.428V134.429c0-6.312,5.117-11.429,11.429-11.429H310.06
			l16.938,44.185c1.144,2.984,3.988,4.817,7.004,4.817c1.146,0,2.317-0.264,3.428-0.831c3.457-1.765,4.86-6,3.471-9.625L326.124,123
			h36.48c4.142,0,7.5-3.358,7.5-7.5C370.104,111.358,366.746,108,362.604,108z M207,74c-16.267,0-29.5-13.233-29.5-29.5
			c0-16.267,13.233-29.5,29.5-29.5c16.267,0,29.5,13.233,29.5,29.5C236.5,60.767,223.267,74,207,74z"/>
	</g>
</g>
<g>
</g>
<g>
</g>
<g>
</g>
<g>
</g>
<g>
</g>
<g>
</g>
<g>
</g>
<g>
</g>
<g>
</g>
<g>
</g>
<g>
</g>
<g>
</g>
<g>
</g>
<g>
</g>
<g>
</g>
</svg>
