<?xml version="1.0" encoding="iso-8859-1"?>
<!-- Generator: Adobe Illustrator 19.0.0, SVG Export Plug-In . SVG Version: 6.00 Build 0)  -->
<svg version="1.1" id="Capa_1" xmlns="http://www.w3.org/2000/svg" xmlns:xlink="http://www.w3.org/1999/xlink" x="0px" y="0px"
	 viewBox="0 0 512 512" style="enable-background:new 0 0 512 512;" xml:space="preserve">
<path style="fill:#ECEDEF;" d="M440.859,423.867l-136.27-136.27c-4.695-4.696-12.309-4.696-17.005,0
	c-4.696,4.696-4.696,12.308,0,17.005l136.27,136.27c2.348,2.348,5.425,3.522,8.502,3.522s6.155-1.173,8.502-3.522
	C445.555,436.176,445.555,428.564,440.859,423.867z"/>
<path style="fill:#8E959F;" d="M497.457,463.461l-88.175-88.175c-9.392-9.391-24.617-9.391-34.008,0
	c-9.391,9.392-9.391,24.618,0,34.008l88.175,88.175c4.696,4.695,10.85,7.043,17.005,7.043c6.155,0,12.308-2.348,17.005-7.043
	C506.848,488.078,506.848,472.852,497.457,463.461z"/>
<path style="fill:#7B848F;" d="M496.484,488.48c-6.155,0-12.308-2.348-17.005-7.043l-88.175-88.175
	c-6.491-6.492-8.489-15.77-6.006-23.984c-3.668,1.109-7.126,3.107-10.025,6.006c-9.391,9.392-9.391,24.618,0,34.008l88.175,88.175
	c4.696,4.695,10.85,7.043,17.005,7.043c6.155,0,12.308-2.348,17.005-7.043c2.9-2.9,4.898-6.357,6.006-10.025
	C501.191,488.131,498.838,488.48,496.484,488.48z"/>
<circle style="fill:#FF8C78;" cx="175.849" cy="175.86" r="168.334"/>
<circle style="fill:#DB6B5E;" cx="175.849" cy="175.86" r="144.286"/>
<circle style="fill:#D9DCDF;" cx="175.849" cy="175.86" r="128.254"/>
<circle style="fill:#ECEDEF;" cx="175.849" cy="175.86" r="104.207"/>
<path style="fill:#8AC451;" d="M175.849,47.606v128.254h128.254C304.103,105.028,246.681,47.606,175.849,47.606z"/>
<path style="fill:#C4DF64;" d="M175.849,71.654v104.207h104.207C280.055,118.31,233.401,71.654,175.849,71.654z"/>
<path d="M502.771,458.146l-88.176-88.175c-7.091-7.091-16.745-10.087-26.009-9.005l-75.408-75.407
	c24.089-30.096,38.518-68.24,38.518-109.698c0-42.412-15.308-83.373-43.106-115.339c-2.722-3.132-7.469-3.463-10.602-0.739
	c-3.131,2.723-3.463,7.471-0.738,10.602c25.418,29.231,39.417,66.689,39.417,105.476c0,88.676-72.143,160.819-160.819,160.819
	S15.03,264.537,15.03,175.861S87.173,15.042,175.849,15.042c34.198,0,66.849,10.589,94.422,30.623
	c3.357,2.439,8.057,1.696,10.497-1.662c2.44-3.358,1.695-8.057-1.662-10.497C248.947,11.594,213.241,0.012,175.849,0.012
	C78.885,0.012,0,78.898,0,175.861s78.885,175.849,175.849,175.849c41.457,0,79.603-14.43,109.697-38.518l74.878,74.878
	c0.171,0.171,0.351,0.331,0.533,0.482c-1.097,9.278,1.897,18.953,9,26.056l88.176,88.175c9.283,9.283,23.794,11.863,35.699,6.285
	c3.318-1.554,6.349-3.696,8.938-6.285C515.077,490.477,515.077,470.453,502.771,458.146z M296.904,303.292
	c2.179-2.071,4.306-4.197,6.377-6.377l70.099,70.099c-1.191,0.892-2.338,1.874-3.42,2.957c-1.083,1.082-2.064,2.227-2.957,3.42
	L296.904,303.292z M492.144,492.155c-6.373,6.372-17.009,6.374-23.381,0l-88.175-88.175c-6.447-6.447-6.447-16.935-0.001-23.38
	c6.364-6.362,17.018-6.364,23.381,0l88.175,88.175C498.589,475.22,498.589,485.709,492.144,492.155z"/>
<path d="M175.849,40.092c-74.863,0-135.769,60.906-135.769,135.769S100.985,311.63,175.849,311.63s135.769-60.906,135.769-135.769
	S250.712,40.092,175.849,40.092z M183.364,296.36v-16.292c0-4.15-3.364-7.515-7.515-7.515c-4.151,0-7.515,3.365-7.515,7.515v16.292
	c-60.602-3.74-109.244-52.382-112.984-112.984h16.292c4.151,0,7.515-3.365,7.515-7.515c0-4.15-3.364-7.515-7.515-7.515H55.35
	c3.74-60.601,52.382-109.243,112.984-112.983v16.292c0,4.15,3.364,7.515,7.515,7.515c4.151,0,7.515-3.365,7.515-7.515V55.363
	c60.602,3.74,109.244,52.382,112.984,112.984h-16.292c-4.151,0-7.515,3.365-7.515,7.515c0,4.15,3.364,7.515,7.515,7.515h16.292
	C292.607,243.978,243.966,292.619,183.364,296.36z"/>
<path d="M215.928,168.346h-32.565v-40.58c0-4.15-3.364-7.515-7.515-7.515c-4.151,0-7.515,3.365-7.515,7.515v48.095
	c0,4.15,3.364,7.515,7.515,7.515h40.079c4.151,0,7.515-3.365,7.515-7.515C223.443,171.711,220.079,168.346,215.928,168.346z"/>
<g>
</g>
<g>
</g>
<g>
</g>
<g>
</g>
<g>
</g>
<g>
</g>
<g>
</g>
<g>
</g>
<g>
</g>
<g>
</g>
<g>
</g>
<g>
</g>
<g>
</g>
<g>
</g>
<g>
</g>
</svg>
