<?xml version="1.0" encoding="iso-8859-1"?>
<!-- Generator: Adobe Illustrator 19.0.0, SVG Export Plug-In . SVG Version: 6.00 Build 0)  -->
<svg version="1.1" id="Capa_1" xmlns="http://www.w3.org/2000/svg" xmlns:xlink="http://www.w3.org/1999/xlink" x="0px" y="0px"
	 viewBox="0 0 468.293 468.293" style="enable-background:new 0 0 468.293 468.293;" xml:space="preserve">
<path style="fill:#1C75A1;" d="M461.509,138.574l-27.375-28.816L279.259,64.952h-37.626H226.66h-37.626L34.158,109.758
	L6.784,138.574c-5.096,5.364-7.029,13.224-4.325,20.111c5.313,13.536,2.338,25.125-0.893,32.23
	c-2.473,5.439-1.938,11.779,1.051,16.952L22.47,242.23h204.19h14.972h204.19l19.853-34.362c2.989-5.173,3.524-11.513,1.051-16.952
	c-3.231-7.106-6.206-18.695-0.893-32.23C468.538,151.799,466.605,143.938,461.509,138.574z"/>
<path style="fill:#64798A;" d="M23.183,242.23h421.926c6.835,0,12.376,5.541,12.376,12.376v0.302
	c0,6.835-5.541,12.376-12.376,12.376H23.183c-6.835,0-12.376-5.541-12.376-12.376v-0.302
	C10.807,247.771,16.348,242.23,23.183,242.23z"/>
<path style="fill:#FCD462;" d="M186.901,108.297v50.92c0,0.504,0.02,0.988,0.086,1.487c0.616,4.626,5.362,28.884,39.01,57.013
	c4.684,3.916,11.614,3.916,16.298,0c33.647-28.128,38.394-52.387,39.01-57.013c0.066-0.499,0.086-0.984,0.086-1.487v-50.92
	c0-6.981-5.659-12.64-12.64-12.64h-69.211C192.56,95.657,186.901,101.316,186.901,108.297z"/>
<g>
	<path style="fill:#F6C358;" d="M268.752,95.657h-69.211c-6.981,0-12.64,5.659-12.64,12.64v6.32c0-6.981,5.659-12.64,12.64-12.64
		h69.211c6.98,0,12.64,5.659,12.64,12.64v-6.32C281.392,101.316,275.732,95.657,268.752,95.657z"/>
	<rect x="25.588" y="267.301" style="fill:#F6C358;" width="417.124" height="34.76"/>
</g>
<path style="fill:#64798A;" d="M25.585,301.045c0,49.515,93.376,102.296,208.561,102.296c115.186,0,208.561-52.781,208.561-102.296
	H25.585z"/>
<polygon style="fill:#1C75A1;" points="234.146,114.565 241.866,138.326 266.849,138.326 246.638,153.01 254.358,176.77 
	234.146,162.086 213.935,176.77 221.655,153.01 201.443,138.326 226.426,138.326 "/>
<g>
</g>
<g>
</g>
<g>
</g>
<g>
</g>
<g>
</g>
<g>
</g>
<g>
</g>
<g>
</g>
<g>
</g>
<g>
</g>
<g>
</g>
<g>
</g>
<g>
</g>
<g>
</g>
<g>
</g>
</svg>
