<?xml version="1.0" encoding="iso-8859-1"?>
<!-- Generator: Adobe Illustrator 19.0.0, SVG Export Plug-In . SVG Version: 6.00 Build 0)  -->
<svg version="1.1" id="Capa_1" xmlns="http://www.w3.org/2000/svg" xmlns:xlink="http://www.w3.org/1999/xlink" x="0px" y="0px"
	 viewBox="0 0 512 512" style="enable-background:new 0 0 512 512;" xml:space="preserve">
<g>
	<rect x="238.345" y="383.47" style="fill:#5E5F62;" width="35.31" height="75.591"/>
	<path style="fill:#95A5A5;" d="M97.104,286.897h317.793v92.69c0,9.751-7.905,17.655-17.655,17.655H114.759
		c-9.751,0-17.655-7.904-17.655-17.655V286.897z"/>
	<g>
		<path style="fill:#ECF0F1;" d="M220.69,353.103h-88.276c-4.875,0-8.828-3.952-8.828-8.828s3.952-8.828,8.828-8.828h88.276
			c4.875,0,8.828,3.952,8.828,8.828S225.565,353.103,220.69,353.103z"/>
		<path style="fill:#ECF0F1;" d="M379.586,353.103h-8.828c-4.875,0-8.828-3.952-8.828-8.828s3.952-8.828,8.828-8.828h8.828
			c4.875,0,8.828,3.952,8.828,8.828S384.462,353.103,379.586,353.103z"/>
	</g>
	<path style="fill:#7F8C8D;" d="M79.448,0h353.103c9.751,0,17.655,7.904,17.655,17.655v264.828c0,9.751-7.905,17.655-17.655,17.655
		H79.448c-9.751,0-17.655-7.905-17.655-17.655V17.655C61.793,7.904,69.698,0,79.448,0z"/>
	<rect x="105.931" y="35.31" style="fill:#B0D3F0;" width="300.138" height="220.69"/>
	<path style="fill:#14A085;" d="M512,459.034v35.31c-0.029,9.739-7.916,17.627-17.655,17.655H17.655
		c-3.782,0.023-7.47-1.185-10.505-3.443c-4.49-3.346-7.14-8.613-7.15-14.212v-35.31c0.028-9.739,7.916-17.627,17.655-17.655h476.69
		C504.084,441.408,511.972,449.296,512,459.034z"/>
	<g>
		<path style="fill:#65DDB9;" d="M74.328,441.379L7.151,508.557c-4.49-3.346-7.14-8.613-7.15-14.212v-3.708l49.258-49.258H74.328z"
			/>
		<polygon style="fill:#65DDB9;" points="127.206,441.379 56.585,512 31.691,512 102.312,441.379 		"/>
		<polygon style="fill:#65DDB9;" points="180.259,441.379 109.639,512 84.568,512 155.189,441.379 		"/>
		<polygon style="fill:#65DDB9;" points="233.225,441.379 162.604,512 137.534,512 208.155,441.379 		"/>
		<polygon style="fill:#65DDB9;" points="286.102,441.379 215.57,512 190.499,512 261.208,441.379 		"/>
		<polygon style="fill:#65DDB9;" points="308.966,446.499 308.966,471.57 268.535,512 243.465,512 		"/>
	</g>
	<g>
		<path style="fill:#4482C3;" d="M251.586,194.207c-17.912,0.056-34.07-10.752-40.857-27.328
			c-6.787-16.577-2.848-35.613,9.961-48.135v18.083c0,4.875,3.952,8.828,8.828,8.828s8.828-3.952,8.828-8.828v-34.905
			c0-0.275-0.131-0.506-0.156-0.775c0.009-0.354-0.005-0.709-0.042-1.061c-0.099-0.297-0.215-0.589-0.348-0.873
			c-0.315-1.049-0.851-2.019-1.573-2.844c-0.659-0.916-1.546-1.643-2.573-2.111c-0.286-0.187-0.583-0.357-0.889-0.509
			c-0.999-0.41-2.065-0.632-3.144-0.655l-35.31-0.405c-3.157-0.042-6.096,1.605-7.709,4.32c-1.612,2.715-1.652,6.084-0.104,8.836
			c1.548,2.752,4.448,4.468,7.605,4.499l10.112,0.112c-15.415,18.393-18.777,44.051-8.62,65.794s31.992,35.631,55.99,35.612
			c4.875,0,8.828-3.952,8.828-8.828S256.462,194.207,251.586,194.207L251.586,194.207z"/>
		<path style="fill:#4482C3;" d="M317.897,180.966l-10.112-0.112c15.415-18.393,18.777-44.051,8.62-65.794
			s-31.992-35.631-55.99-35.612c-4.875,0-8.828,3.952-8.828,8.828c0,4.875,3.952,8.828,8.828,8.828
			c17.912-0.056,34.07,10.751,40.857,27.328c6.787,16.577,2.848,35.613-9.961,48.134v-18.083c0-4.875-3.952-8.828-8.828-8.828
			s-8.828,3.952-8.828,8.828v34.905c0,0.275,0.132,0.505,0.156,0.774c-0.095,0.672,0.043,1.356,0.391,1.939
			c0.514,1.407,1.323,2.687,2.372,3.756c0.541,0.472,1.139,0.875,1.78,1.199c0.283,0.186,0.577,0.354,0.88,0.504
			c0.999,0.41,2.066,0.633,3.145,0.655l35.31,0.405h0.103c4.875,0.029,8.851-3.9,8.879-8.776
			C326.701,184.969,322.772,180.994,317.897,180.966L317.897,180.966z"/>
	</g>
	<path style="fill:#BDC3C7;" d="M512,459.034v35.31c-0.029,9.739-7.916,17.627-17.655,17.655H308.966v-70.621h185.379
		C504.084,441.408,511.972,449.296,512,459.034z"/>
</g>
<g>
</g>
<g>
</g>
<g>
</g>
<g>
</g>
<g>
</g>
<g>
</g>
<g>
</g>
<g>
</g>
<g>
</g>
<g>
</g>
<g>
</g>
<g>
</g>
<g>
</g>
<g>
</g>
<g>
</g>
</svg>
