<?xml version="1.0" encoding="iso-8859-1"?>
<!-- Generator: Adobe Illustrator 19.0.0, SVG Export Plug-In . SVG Version: 6.00 Build 0)  -->
<svg version="1.1" id="Capa_1" xmlns="http://www.w3.org/2000/svg" xmlns:xlink="http://www.w3.org/1999/xlink" x="0px" y="0px"
	 viewBox="0 0 504.32 504.32" style="enable-background:new 0 0 504.32 504.32;" xml:space="preserve">
<circle style="fill:#2CA0DA;" cx="278.252" cy="351.409" r="152.812"/>
<g>
	<rect x="23.828" y="471.138" style="fill:#183651;" width="15.754" height="15.754"/>
	<rect x="23.828" y="423.877" style="fill:#183651;" width="15.754" height="15.754"/>
	<rect x="23.828" y="376.615" style="fill:#183651;" width="15.754" height="15.754"/>
	<rect x="23.828" y="329.354" style="fill:#183651;" width="15.754" height="15.754"/>
	<rect x="23.828" y="282.092" style="fill:#183651;" width="15.754" height="15.754"/>
	<rect x="464.935" y="471.138" style="fill:#183651;" width="15.754" height="15.754"/>
	<rect x="464.935" y="423.877" style="fill:#183651;" width="15.754" height="15.754"/>
	<rect x="464.935" y="376.615" style="fill:#183651;" width="15.754" height="15.754"/>
	<rect x="464.935" y="329.354" style="fill:#183651;" width="15.754" height="15.754"/>
	<rect x="464.935" y="282.092" style="fill:#183651;" width="15.754" height="15.754"/>
</g>
<path style="fill:#FFFFFF;" d="M78.178,228.529l35.446,8.665l9.452-25.206c8.665,0,18.117-1.575,25.994-3.938l16.542,21.268
	l30.72-18.905l-10.24-25.206c6.302-6.302,11.815-13.391,15.754-21.268l26.782,3.151l8.665-35.446l-25.206-9.452
	c0-8.665-1.575-18.117-3.938-25.994l21.268-16.542l-18.905-30.72l-25.206,10.24c-6.302-6.302-13.391-11.815-21.268-15.754
	l3.151-26.782l-35.446-8.665l-9.452,25.206c-8.665,0-18.117,1.575-25.994,3.938L79.754,15.852L48.246,34.757l11.028,25.206
	c-6.302,6.302-11.815,13.391-15.754,21.268L16.738,78.08l-8.665,35.446l25.206,9.452c0,8.665,1.575,18.117,3.938,25.994
	l-21.268,16.542l18.905,30.72l24.418-11.028c6.302,6.302,13.391,11.815,21.268,15.754L78.178,228.529z"/>
<path style="fill:#183651;" d="M113.625,245.071c-0.788,0-1.575,0-1.575,0l-35.446-8.665c-3.938-0.788-6.302-4.726-6.302-8.665
	l2.363-22.055c-5.514-3.151-10.24-6.302-14.178-10.24l-19.692,8.665c-3.938,1.575-7.877,0-10.24-3.151L9.649,170.24
	c-2.363-3.151-1.575-7.877,1.575-10.24l17.329-14.178c-1.575-5.514-2.363-11.815-3.151-18.117l-20.48-7.877
	c-3.938-1.575-5.514-5.514-4.726-9.452l8.665-35.446c0.788-3.938,4.726-6.302,8.665-6.302l22.055,2.363
	c3.151-5.514,6.302-10.24,10.24-14.178l-8.665-18.905c-1.575-3.938,0-7.877,3.151-10.24l30.72-18.117
	c3.151-2.363,7.877-1.575,10.24,1.575l13.391,17.329c5.514-1.575,11.815-2.363,18.117-2.363l7.877-20.48
	c1.575-3.938,5.514-5.514,9.452-4.726l35.446,8.665c3.938,0.788,6.302,4.726,6.302,8.665l-2.363,22.055
	c5.514,3.151,10.24,6.302,14.178,10.24l19.692-8.665c3.938-1.575,7.877,0,10.24,3.151l18.905,30.72
	c2.363,3.151,1.575,7.877-1.575,10.24L216.812,98.56c1.575,5.514,2.363,11.815,2.363,18.117l20.48,7.877
	c3.938,1.575,5.514,5.514,4.726,9.452l-8.665,35.446c-0.788,3.938-4.726,6.302-8.665,6.302l-22.055-2.363
	c-3.151,5.514-6.302,10.24-10.24,14.178l8.665,19.692c1.575,3.938,0,7.877-3.151,10.24l-30.72,18.905
	c-3.151,2.363-7.877,1.575-10.24-1.575l-13.391-18.117c-5.514,1.575-11.815,2.363-18.117,2.363l-7.877,20.48
	C119.926,242.708,116.775,245.071,113.625,245.071z M86.843,222.228l22.055,5.514l7.089-18.905c0.788-3.151,3.938-4.726,7.089-4.726
	c7.877,0,16.542-1.575,23.631-3.938c3.151-0.788,6.302,0,8.665,2.363l12.603,15.754l18.905-11.815l-8.665-18.117
	c-1.575-3.151-0.788-6.302,1.575-8.665c5.514-5.514,10.24-12.603,14.178-19.692c1.575-3.151,4.726-4.726,7.877-3.938l19.692,2.363
	l5.514-22.055l-18.117-7.089c-3.151-0.788-4.726-3.938-4.726-7.089c0-7.877-1.575-15.754-3.938-23.631
	c-0.788-3.151,0-6.302,2.363-8.665l15.754-12.603l-11.815-18.905l-18.117,8.665c-3.151,0.788-6.302,0-8.665-2.363
	c-5.514-5.514-12.603-10.24-19.692-14.178c-3.151-1.575-4.726-4.726-3.938-7.877l2.363-19.692l-22.055-5.514l-7.089,18.905
	c-0.788,3.151-3.938,4.726-7.089,4.726c-7.877,0-16.542,1.575-23.631,3.938c-3.151,0.788-6.302,0-8.665-2.363L77.391,26.88
	L58.486,37.908l8.665,18.117c0.788,3.151,0,7.089-2.363,9.452c-5.514,5.514-10.24,11.815-14.178,19.692
	c-1.575,3.151-4.726,4.726-7.877,3.938L23.04,86.745L17.526,108.8l18.905,7.089c3.151,0.788,4.726,3.938,4.726,7.089
	c0,7.877,1.575,16.542,3.938,23.631c0.788,3.151,0,6.302-2.363,8.665l-15.754,12.603l11.815,18.905l18.117-8.665
	c2.363-0.788,6.302,0,8.665,2.363c5.514,5.514,12.603,10.24,19.692,14.178c3.151,1.575,4.726,4.726,3.938,7.877L86.843,222.228z"/>
<circle style="fill:#E1E6E7;" cx="122.289" cy="122.191" r="65.378"/>
<circle style="fill:#FFFFFF;" cx="122.289" cy="122.191" r="32.295"/>
<path style="fill:#183651;" d="M122.289,162.363c-3.151,0-6.302,0-9.452-0.788c-21.268-5.514-34.658-26.782-29.145-48.049
	c4.726-18.117,20.48-30.72,38.597-30.72c3.151,0,6.302,0,9.452,0.788c21.268,5.514,34.658,26.782,29.145,48.049
	C156.948,149.76,141.194,162.363,122.289,162.363z M122.289,98.56c-11.028,0-20.48,7.877-23.631,18.117
	c-3.151,12.603,4.726,25.994,17.329,29.145c12.603,3.151,25.994-4.726,29.145-17.329c3.151-12.603-4.726-25.994-17.329-29.145
	C126.228,98.56,124.652,98.56,122.289,98.56z"/>
<path style="fill:#FFFFFF;" d="M286.917,479.015l39.385-9.452l-3.151-29.932c8.665-4.726,17.329-10.24,24.418-17.329l27.569,12.603
	l21.268-34.658l-23.631-18.905c3.151-9.452,4.726-18.905,4.726-29.145l28.357-9.452l-9.452-39.385l-29.932,3.151
	c-4.726-8.665-10.24-17.329-17.329-24.418l12.603-27.569l-34.658-21.268l-18.905,23.631c-9.452-3.151-18.905-4.726-29.145-4.726
	l-10.24-28.357l-39.385,9.452l3.151,29.932c-8.665,4.726-17.329,10.24-24.418,17.329l-27.569-12.603l-21.268,34.658l23.631,18.905
	c-3.151,9.452-4.726,18.905-4.726,29.145l-28.357,10.24l9.452,39.385l29.932-3.151c4.726,8.665,10.24,17.329,17.329,24.418
	l-12.603,27.569l34.658,21.268l18.905-23.631c9.452,3.151,18.905,4.726,29.145,4.726L286.917,479.015z"/>
<path style="fill:#183651;" d="M286.917,486.892c-3.151,0-6.302-2.363-7.089-5.514l-8.665-23.631
	c-7.089-0.788-14.178-1.575-20.48-3.151l-15.754,19.692c-2.363,3.151-7.089,3.938-10.24,1.575l-34.658-21.268
	c-3.151-2.363-4.726-6.302-3.151-10.24l10.24-22.843c-4.726-5.514-8.665-11.028-11.815-17.329l-24.418,2.363
	c-3.938,0-7.877-2.363-8.665-6.302l-9.452-39.385c-0.788-3.938,1.575-7.877,4.726-9.452l23.631-8.665
	c0.788-7.089,1.575-14.178,3.151-20.48l-19.692-15.754c-3.151-2.363-3.938-7.089-1.575-10.24l21.268-34.658
	c2.363-3.151,6.302-4.726,10.24-3.151l22.843,10.24c5.514-4.726,11.028-8.665,17.329-11.815l-2.363-24.418
	c-0.788-3.938,2.363-7.877,6.302-8.665l39.385-9.452c3.938-0.788,7.877,1.575,9.452,4.726l8.665,23.631
	c7.089,0.788,14.178,1.575,20.48,3.151l15.754-19.692c2.363-3.151,7.089-3.938,10.24-1.575l33.871,23.631
	c3.151,2.363,4.726,6.302,3.151,10.24l-10.24,22.843c4.726,5.514,8.665,11.028,11.815,17.329l24.418-2.363
	c3.938-0.788,7.877,2.363,8.665,6.302l9.452,39.385c0.788,3.938-1.575,7.877-4.726,9.452l-23.631,8.665
	c-0.788,7.089-1.575,14.178-3.151,20.48l19.692,15.754c3.151,2.363,3.938,7.089,1.575,10.24l-21.268,34.658
	c-2.363,3.151-6.302,4.726-10.24,3.151l-22.843-10.24c-5.514,4.726-11.028,8.665-17.329,11.815l2.363,24.418
	c0.788,3.938-2.363,7.877-6.302,8.665l-39.385,9.452C288.492,486.892,287.705,486.892,286.917,486.892z M247.532,438.055
	c0.788,0,1.575,0,2.363,0c8.665,3.151,17.329,4.726,26.782,4.726c3.151,0,6.302,2.363,7.089,5.514l7.877,22.055l25.994-6.302
	l-2.363-22.843c0-3.151,1.575-6.302,3.938-7.877c7.877-3.938,15.754-9.452,22.055-15.754c2.363-2.363,5.514-3.151,8.665-1.575
	l21.268,10.24l14.178-22.843l-18.117-14.966c-2.363-2.363-3.938-5.514-2.363-8.665c3.151-8.665,4.726-17.329,4.726-26.782
	c0-3.151,2.363-6.302,5.514-7.089l22.055-7.877l-6.302-25.994l-22.843,2.363c-3.151,0-6.302-1.575-7.877-3.938
	c-3.938-7.877-9.452-15.754-15.754-22.055c-2.363-2.363-3.151-5.514-1.575-8.665l10.24-21.268l-22.843-14.178L315.274,262.4
	c-2.363,2.363-5.514,3.151-8.665,2.363c-8.665-3.151-17.329-4.726-26.782-4.726c-3.151,0-6.302-2.363-7.089-5.514l-7.877-22.055
	l-25.994,6.302l2.363,22.843c0,3.151-1.575,6.302-3.938,7.877c-7.877,3.938-15.754,9.452-22.055,15.754
	c-2.363,2.363-5.514,3.151-8.665,1.575l-21.268-10.24l-14.178,22.843l18.117,14.966c2.363,2.363,3.938,5.514,2.363,8.665
	c-3.151,8.665-4.726,17.329-4.726,26.782c0,3.151-2.363,6.302-5.514,7.089l-22.055,7.877l6.302,25.994l22.843-2.363
	c3.151,0,6.302,1.575,7.877,3.938c3.938,7.877,9.452,15.754,15.754,22.055c2.363,2.363,3.151,5.514,1.575,8.665l-9.452,22.055
	l22.843,14.178l14.966-18.117C242.806,438.843,245.169,438.055,247.532,438.055z"/>
<circle style="fill:#F06151;" cx="278.252" cy="351.409" r="73.255"/>
<circle style="fill:#FFFFFF;" cx="278.252" cy="351.409" r="35.446"/>
<path style="fill:#183651;" d="M278.252,394.732c-20.48,0-37.809-14.178-42.535-33.871c-2.363-11.028-0.788-22.843,5.514-33.083
	c6.302-9.452,15.754-16.542,26.782-19.692c3.151-0.788,6.302-0.788,9.452-0.788c20.48,0,37.809,14.178,42.535,33.871
	c2.363,11.028,0.788,22.843-5.514,33.083c-6.302,9.452-15.754,16.542-26.782,19.692
	C284.554,394.732,281.403,394.732,278.252,394.732z M278.252,323.84c-2.363,0-3.938,0-6.302,0.788
	c-7.089,1.575-13.391,6.302-17.329,12.603c-3.938,6.302-5.514,13.391-3.151,21.268c3.151,12.603,14.178,21.268,26.782,21.268
	c2.363,0,3.938,0,6.302-0.788c7.089-1.575,13.391-6.302,17.329-12.603c3.938-6.302,5.514-13.391,3.151-21.268
	C302.671,332.505,291.643,323.84,278.252,323.84z"/>
<circle style="fill:#FBBD5E;" cx="407.434" cy="96.985" r="89.009"/>
<path style="fill:#183651;" d="M407.434,193.871c-53.563,0-96.886-43.323-96.886-96.886s43.323-96.886,96.886-96.886
	s96.886,43.323,96.886,96.886S460.997,193.871,407.434,193.871z M407.434,15.852c-44.898,0-81.132,36.234-81.132,81.132
	s36.234,81.132,81.132,81.132s81.132-36.234,81.132-81.132S452.332,15.852,407.434,15.852z"/>
<path style="fill:#FFFFFF;" d="M407.434,154.486c-31.508,0-57.502-25.994-57.502-57.502s25.994-57.502,57.502-57.502
	s57.502,25.994,57.502,57.502S438.942,154.486,407.434,154.486z"/>
<polygon style="fill:#173651;" points="397.982,125.342 370.412,98.56 381.44,87.532 397.982,103.286 433.428,67.84 444.455,78.868 
	"/>
<g>
</g>
<g>
</g>
<g>
</g>
<g>
</g>
<g>
</g>
<g>
</g>
<g>
</g>
<g>
</g>
<g>
</g>
<g>
</g>
<g>
</g>
<g>
</g>
<g>
</g>
<g>
</g>
<g>
</g>
</svg>
