<?xml version="1.0" encoding="iso-8859-1"?>
<!-- Generator: Adobe Illustrator 19.0.0, SVG Export Plug-In . SVG Version: 6.00 Build 0)  -->
<svg version="1.1" id="Capa_1" xmlns="http://www.w3.org/2000/svg" xmlns:xlink="http://www.w3.org/1999/xlink" x="0px" y="0px"
	 viewBox="0 0 511.999 511.999" style="enable-background:new 0 0 511.999 511.999;" xml:space="preserve">
<g>
	<path style="fill:#7AEAE7;" d="M256.003,124.705c-42.186,0-79.605,19.259-102.902,48.964c-8.246,10.501-14.72,22.312-19.013,35.041
		c-3.908,11.554-6.014,23.867-6.014,36.643c0,16.003,3.305,31.275,9.304,45.246c-4.299,4.254-7.354,9.759-8.557,15.907
		c-0.371,1.9-0.566,3.859-0.566,5.865c0,13.194,8.451,24.517,20.21,28.811c3.266,1.191,6.783,1.844,10.446,1.844h25.106v31.764
		c0,6.879,5.629,12.505,12.505,12.505h33.43h52.099h31.402c6.877,0,12.505-5.627,12.505-12.505v-31.764h27.134
		c3.662,0,7.184-0.652,10.444-1.844c11.759-4.293,20.212-15.614,20.212-28.812c0-2.004-0.195-3.963-0.564-5.861
		c-1.205-6.148-4.262-11.655-8.561-15.909c6-13.97,9.308-29.242,9.308-45.246c0-12.775-2.105-25.091-6.016-36.644
		c-4.291-12.729-10.767-24.538-19.013-35.039C335.608,143.963,298.19,124.705,256.003,124.705L256.003,124.705z M210.748,238.606
		c13.808,0,24.999,11.19,24.999,24.997c0,13.808-11.19,24.999-24.999,24.999c-13.806,0-24.999-11.19-24.999-24.999
		C185.749,249.798,196.941,238.606,210.748,238.606L210.748,238.606z M301.261,238.604c13.806,0,24.999,11.192,24.999,24.999
		c0,13.808-11.192,24.999-24.999,24.999c-13.808,0-24.999-11.19-24.999-24.999C276.262,249.798,287.452,238.604,301.261,238.604z"/>
	<g>
		<circle style="fill:#0586AD;" cx="210.747" cy="263.606" r="24.999"/>
		<circle style="fill:#0586AD;" cx="301.262" cy="263.606" r="24.999"/>
		<path style="fill:#0586AD;" d="M134.088,208.71c4.293-12.729,10.767-24.54,19.013-35.041l-50.442-29.124L70.867,126.19
			c4.404-10.428,0.451-22.746-9.606-28.552c-10.892-6.291-24.819-2.559-31.107,8.335c-3.402,5.892-3.869,12.67-1.859,18.646
			c-6.182,1.248-11.817,5.045-15.222,10.936c-6.289,10.891-2.557,24.821,8.338,31.108c10.058,5.809,22.704,3.069,29.533-5.959
			l31.867,18.396L134.088,208.71z"/>
		<path style="fill:#0586AD;" d="M128.822,306.505L82.81,333.072l-32.6,18.819c-6.828-9.028-19.056-12.007-29.533-5.961
			C10.2,351.979,7.497,368.65,12.34,377.04c4.848,8.393,9.039,9.688,15.22,10.937c-2.008,5.977-2.984,10.253,1.861,18.645
			c4.844,8.393,20.634,14.384,31.107,8.338c10.476-6.049,14.011-18.124,9.606-28.555l32.672-18.862l45.658-26.362
			c-11.759-4.295-20.21-15.616-20.21-28.811C128.256,310.364,128.451,308.405,128.822,306.505z"/>
		<path style="fill:#0586AD;" d="M363.538,341.181l45.661,26.362l32.672,18.862c-4.404,10.431-0.871,22.507,9.604,28.555
			c10.474,6.047,26.265,0.055,31.109-8.338c4.844-8.391,3.869-12.667,1.861-18.645c6.18-1.248,10.372-2.545,15.216-10.937
			c4.848-8.391,2.141-25.062-8.334-31.107c-10.476-6.049-22.704-3.07-29.533,5.959l-32.598-18.819l-46.013-26.565
			c0.369,1.898,0.564,3.857,0.564,5.861C383.75,325.567,375.298,336.888,363.538,341.181z"/>
		<path style="fill:#0586AD;" d="M377.918,208.708l51.28-29.607l31.867-18.397c6.83,9.028,19.476,11.769,29.533,5.961
			c10.894-6.288,14.622-20.218,8.334-31.108c-3.4-5.893-9.039-9.688-15.218-10.938c2.01-5.975,1.541-12.753-1.859-18.645
			c-6.291-10.893-20.216-14.625-31.111-8.335c-10.054,5.807-14.007,18.124-9.603,28.552l-31.791,18.354l-50.444,29.124
			C367.151,184.17,373.628,195.978,377.918,208.708z"/>
	</g>
	<g>
		<path style="fill:#FF5A5A;" d="M429.199,179.1l-51.274,29.605c3.904,11.556,6.01,23.871,6.01,36.646
			c0,16.003-3.309,31.275-9.308,45.246c4.299,4.254,7.355,9.761,8.561,15.909L429.2,333.07v-77.072V179.1H429.199z"/>
		<path style="fill:#FF5A5A;" d="M256.003,124.705c42.188,0,79.605,19.259,102.902,48.964l50.444-29.124l-66.75-38.536
			l-86.597-49.997l-86.597,49.997l-66.748,38.536l50.442,29.124C176.398,143.963,213.817,124.705,256.003,124.705z"/>
		<path style="fill:#FF5A5A;" d="M128.074,245.352c0-12.775,2.105-25.089,6.014-36.643L82.81,179.102v76.898v77.072l46.013-26.567
			c1.203-6.148,4.258-11.653,8.557-15.907C131.379,276.628,128.074,261.355,128.074,245.352z"/>
		<path style="fill:#FF5A5A;" d="M158.912,343.025c-3.664,0-7.182-0.652-10.446-1.844l-45.658,26.362l66.598,38.449l86.597,49.997
			l86.597-49.997l66.6-38.449l-45.661-26.36c-3.262,1.189-6.783,1.842-10.444,1.842H325.96v31.764
			c0,6.879-5.629,12.505-12.505,12.505h-31.402h-52.099h-33.43c-6.877,0-12.505-5.627-12.505-12.505v-31.764L158.912,343.025
			L158.912,343.025z"/>
	</g>
</g>
<path d="M199.285,183.115c-3.814-3.993-10.144-4.137-14.138-0.322l-0.525,0.508l0.001,0.002l-0.369,0.357
	c-3.994,3.815-4.139,10.143-0.322,14.138c3.814,3.993,10.143,4.137,14.138,0.322l0.525-0.508l-0.002-0.002l0.369-0.357
	C202.957,193.438,203.102,187.109,199.285,183.115z"/>
<path d="M256.003,154.701c-14.612,0-29.408,3.192-42.791,9.229c-5.035,2.272-7.273,8.195-5.002,13.228
	c1.67,3.699,5.311,5.89,9.121,5.89c1.375,0,2.771-0.285,4.107-0.888c10.815-4.881,22.769-7.461,34.564-7.461
	c5.522,0,9.999-4.477,9.999-9.999C266.003,159.178,261.524,154.701,256.003,154.701z"/>
<path d="M210.748,228.607c-19.298,0-34.998,15.699-34.998,34.996c0,19.298,15.7,34.998,34.998,34.998s34.998-15.7,34.998-34.998
	C245.746,244.306,230.046,228.607,210.748,228.607z M210.748,278.602c-8.271,0-14.999-6.728-14.999-14.999
	c0-8.27,6.729-14.997,14.999-14.997c8.271,0,14.999,6.729,14.999,14.997C225.747,271.874,219.019,278.602,210.748,278.602z"/>
<path d="M336.261,263.603c0-19.298-15.702-34.998-35-34.998c-19.298,0-34.998,15.7-34.998,34.998s15.7,34.998,34.998,34.998
	C320.558,298.601,336.261,282.901,336.261,263.603z M286.261,263.603c0-8.271,6.729-14.999,14.999-14.999
	c8.272,0,15.001,6.729,15.001,14.999c0,8.272-6.73,14.999-15.001,14.999S286.261,271.874,286.261,263.603z"/>
<path d="M496.33,337.273c-11.817-6.824-25.862-5.705-36.127,2.152l-21.005-12.126V184.874l20.319-11.73
	c10.265,7.707,24.485,8.878,36.08,2.182c7.584-4.377,13.007-11.444,15.271-19.901c2.266-8.457,1.102-17.288-3.273-24.866
	c-3.043-5.271-7.463-9.535-12.702-12.392c0.146-5.966-1.334-11.923-4.379-17.194c-9.035-15.649-29.119-21.028-44.769-11.993
	c-11.595,6.695-17.692,19.595-16.151,32.332L409.352,133L261.003,47.351c-3.094-1.785-6.906-1.785-9.999,0l-148.345,85.647
	L82.416,121.31c1.541-12.738-4.559-25.638-16.153-32.332c-7.582-4.379-16.415-5.541-24.87-3.275
	c-8.457,2.266-15.523,7.689-19.899,15.27c-3.043,5.27-4.525,11.228-4.377,17.192c-5.24,2.855-9.659,7.119-12.704,12.39
	c-4.377,7.581-5.539,16.412-3.273,24.868c2.266,8.457,7.689,15.524,15.269,19.899c11.597,6.697,25.819,5.528,36.082-2.178
	l20.321,11.731v142.42l-21.007,12.128c-10.265-7.855-24.306-8.977-36.127-2.154c-15.722,9.077-19.417,31.914-11.995,44.771
	c3.918,6.781,8.029,10.452,12.265,12.642c-0.223,4.762,0.9,10.157,4.816,16.938c3.637,6.299,10.806,11.587,19.181,14.145
	c3.584,1.096,7.203,1.637,10.714,1.637c5.393,0,10.526-1.277,14.872-3.785c11.819-6.824,17.87-19.544,16.2-32.361l21.079-12.169
	l148.195,85.559c1.547,0.895,3.273,1.34,5,1.34c1.727,0,3.453-0.445,5-1.34l148.197-85.559l21.079,12.169
	c-1.67,12.819,4.379,25.538,16.198,32.361c4.346,2.508,9.479,3.785,14.872,3.785c3.512,0,7.133-0.541,10.714-1.637
	c8.375-2.557,15.546-7.846,19.183-14.145c3.914-6.781,5.037-12.175,4.814-16.938c4.236-2.189,8.35-5.861,12.263-12.642
	c3.639-6.301,4.633-15.153,2.662-23.687C508.846,349.098,503.504,341.416,496.33,337.273z M419.199,315.752l-27.385-15.812
	c-1.285-3.994-3.191-7.771-5.672-11.213c5.174-13.9,7.791-28.462,7.791-43.376c0-11.013-1.453-21.71-4.176-31.934l29.441-16.999
	v119.334H419.199z M282.053,353.895c-5.522,0-9.999,4.478-9.999,9.999v13.399h-32.1v-13.399c0-5.522-4.477-9.999-9.999-9.999
	c-5.521,0-9.999,4.478-9.999,9.999v13.399h-23.431c-1.357,0-2.506-1.146-2.506-2.506v-31.764c0-5.523-4.477-9.999-9.999-9.999
	h-25.106c-11.39,0-20.657-9.267-20.657-20.657c0-5.527,2.188-10.733,6.158-14.663c2.922-2.893,3.775-7.277,2.154-11.054
	c-5.637-13.122-8.494-27.018-8.494-41.299c0-61.012,52.901-110.648,117.93-110.648c65.027,0,117.932,49.637,117.932,110.648
	c0,14.278-2.859,28.173-8.496,41.299c-1.623,3.778-0.768,8.164,2.154,11.054c3.971,3.93,6.158,9.138,6.158,14.665
	c0,11.388-9.267,20.655-20.657,20.655H325.96c-5.523,0-9.999,4.477-9.999,9.999v31.764c0,1.359-1.148,2.506-2.506,2.506h-21.403
	v-13.399C292.052,358.374,287.575,353.895,282.053,353.895z M446.141,134.849c4.369-2.523,6.174-7.903,4.211-12.55
	c-2.494-5.907-0.176-12.787,5.393-16.002c6.1-3.523,13.929-1.426,17.452,4.674c1.83,3.172,2.209,6.984,1.041,10.458
	c-0.914,2.72-0.617,5.701,0.816,8.188c1.436,2.484,3.867,4.234,6.682,4.803c3.596,0.727,6.707,2.963,8.539,6.138
	c1.707,2.954,2.16,6.397,1.277,9.691c-0.883,3.297-2.996,6.051-5.953,7.758c-5.566,3.215-12.687,1.783-16.558-3.335
	c-3.043-4.022-8.605-5.149-12.974-2.627l-73.123,42.216c-2.727-6.052-5.924-11.867-9.542-17.413l40.865-23.595
	c0.008-0.004,0.016-0.008,0.023-0.012L446.141,134.849z M256.003,67.558l133.348,76.988l-28.244,16.307
	c-25.321-28.212-63.04-46.146-105.103-46.146s-79.783,17.934-105.101,46.146l-28.244-16.307L256.003,67.558z M42.966,154.673
	c-3.867,5.116-10.983,6.55-16.56,3.331c-2.955-1.705-5.068-4.46-5.951-7.756c-0.883-3.296-0.43-6.738,1.275-9.69
	c1.834-3.175,4.945-5.411,8.539-6.137c2.814-0.567,5.248-2.316,6.684-4.802c1.434-2.485,1.732-5.468,0.818-8.188
	c-1.17-3.478-0.789-7.29,1.041-10.46c1.705-2.956,4.461-5.069,7.756-5.952c3.295-0.885,6.738-0.43,9.692,1.277
	c5.572,3.216,7.891,10.095,5.395,16.001c-1.963,4.648-0.156,10.028,4.213,12.551l72.74,41.997
	c-3.621,5.547-6.818,11.362-9.544,17.416l-73.121-42.217C51.572,149.525,46.011,150.65,42.966,154.673z M92.809,196.424
	l29.439,16.997c-2.721,10.224-4.174,20.92-4.174,31.932c0,14.916,2.617,29.476,7.787,43.377c-2.479,3.441-4.383,7.218-5.668,11.21
	l-27.386,15.812L92.809,196.424L92.809,196.424z M65.137,377.746c-4.369,2.523-6.176,7.904-4.213,12.55
	c2.578,6.102,0.359,12.683-5.393,16.003c-2.357,1.361-6,1.488-9.745,0.344c-3.832-1.17-6.775-3.41-7.705-5.02
	c-2.881-4.99-2.527-6.039-1.043-10.46c0.914-2.719,0.615-5.701-0.818-8.186c-1.436-2.484-3.867-4.232-6.68-4.801
	c-4.57-0.924-5.658-1.145-8.541-6.137c-2.232-3.869-0.701-14.345,4.674-17.448c5.756-3.32,12.565-1.951,16.56,3.33
	c3.043,4.025,8.609,5.152,12.975,2.629l64.547-37.268c1.832,6.561,5.269,12.454,9.862,17.233L65.137,377.746z M256.003,444.443
	l-133.196-76.9l26.964-15.569c2.941,0.68,5.998,1.051,9.143,1.051h15.106v21.765c0,12.409,10.095,22.505,22.505,22.505h116.932
	c12.409,0,22.505-10.095,22.505-22.505v-21.765h17.134c3.145,0,6.201-0.371,9.143-1.049l26.966,15.567L256.003,444.443z
	 M491.004,372.042c-2.881,4.99-3.967,5.211-8.537,6.135c-2.813,0.568-5.246,2.316-6.68,4.801c-1.436,2.484-1.732,5.465-0.82,8.184
	c1.486,4.424,1.838,5.475-1.041,10.464c-0.93,1.607-3.873,3.848-7.707,5.018c-3.748,1.146-7.391,1.018-9.743-0.344
	c-5.752-3.32-7.971-9.899-5.393-16.003c1.961-4.646,0.154-10.026-4.213-12.55l-64.484-37.228c4.594-4.779,8.031-10.671,9.862-17.231
	l64.547,37.265c4.369,2.523,9.931,1.397,12.974-2.627c3.996-5.283,10.808-6.656,16.56-3.33c2.355,1.357,4.287,4.449,5.17,8.266
	C492.402,366.761,491.933,370.431,491.004,372.042z"/>
<g>
</g>
<g>
</g>
<g>
</g>
<g>
</g>
<g>
</g>
<g>
</g>
<g>
</g>
<g>
</g>
<g>
</g>
<g>
</g>
<g>
</g>
<g>
</g>
<g>
</g>
<g>
</g>
<g>
</g>
</svg>
