<?xml version="1.0" encoding="iso-8859-1"?>
<!-- Generator: Adobe Illustrator 19.0.0, SVG Export Plug-In . SVG Version: 6.00 Build 0)  -->
<svg version="1.1" id="Capa_1" xmlns="http://www.w3.org/2000/svg" xmlns:xlink="http://www.w3.org/1999/xlink" x="0px" y="0px"
	 viewBox="0 0 512 512" style="enable-background:new 0 0 512 512;" xml:space="preserve">
<g>
	<g>
		<path d="M256.179,199.229H55.218c-5.523,0-10,4.478-10,10V447.81c0,5.522,4.477,10,10,10h200.961c5.523,0,10-4.478,10-10.001
			v-238.58C266.179,203.707,261.702,199.229,256.179,199.229z M246.179,437.81H65.218V219.229h180.961V437.81z"/>
	</g>
</g>
<g>
	<g>
		<path d="M185.311,320.436h-3.515c-5.523,0-10,4.478-10,10c0,5.522,4.477,10,10,10h3.515c5.522,0,10-4.478,10-10
			C195.311,324.914,190.834,320.436,185.311,320.436z"/>
	</g>
</g>
<g>
	<g>
		<path d="M129.601,320.436h-3.516c-5.523,0-10,4.478-10,10c0,5.522,4.477,10,10,10h3.516c5.523,0,10-4.478,10-10
			C139.601,324.914,135.124,320.436,129.601,320.436z"/>
	</g>
</g>
<g>
	<g>
		<path d="M183.165,229.645h-54.934c-25.498,0-46.241,20.744-46.241,46.241v62.236c0,16.175,5.143,31.529,14.872,44.403
			c8.036,10.633,18.967,18.977,31.255,23.96c0.149,0.641,0.32,1.273,0.512,1.896h-2.544c-5.523,0-10,4.478-10,10
			c0,5.522,4.477,10,10,10h59.225c5.523,0,10-4.478,10-10c0-5.522-4.477-10-10-10h-2.544c0.192-0.623,0.363-1.256,0.512-1.896
			c12.288-4.983,23.22-13.327,31.255-23.96c9.729-12.874,14.872-28.229,14.872-44.403v-62.236
			C229.406,250.39,208.663,229.645,183.165,229.645z M209.406,338.122c0,23.548-15.735,44.707-38.264,51.457
			c-4.231,1.268-7.13,5.162-7.13,9.579v0.911c0,4.584-3.729,8.313-8.314,8.313c-4.585,0-8.314-3.729-8.314-8.313v-0.911
			c0-4.417-2.898-8.312-7.13-9.579c-22.529-6.75-38.264-27.909-38.264-51.456v-26.102h46.78c1.619,0,3.214-0.394,4.648-1.146
			l31.45-16.511l6.928,12.503c1.762,3.18,5.111,5.153,8.747,5.153h8.863V338.122z M209.406,292.022h-2.972l-8.811-15.901
			c-2.634-4.755-8.584-6.532-13.395-4.008l-37.924,19.909H101.99v-16.135c0-14.47,11.772-26.241,26.241-26.241h54.934
			c14.469,0,26.241,11.771,26.241,26.241V292.022z"/>
	</g>
</g>
<g>
	<g>
		<path d="M456.782,390.884H309.281c-5.523,0-10,4.478-10,10v43.148c0,5.522,4.477,10,10,10h147.501c5.523,0,10-4.477,10-10v-43.148
			C466.782,395.362,462.305,390.884,456.782,390.884z M446.782,434.032H319.281v-23.148h127.501V434.032z"/>
	</g>
</g>
<g>
	<g>
		<path d="M456.782,248.732H309.281c-5.523,0-10,4.478-10,10v43.148c0,5.522,4.477,10,10,10h147.501c5.523,0,10-4.478,10-10v-43.148
			C466.782,253.21,462.305,248.732,456.782,248.732z M446.782,291.879H319.281v-23.148h127.501V291.879z"/>
	</g>
</g>
<g>
	<g>
		<path d="M460.34,344.308c-0.47-0.46-0.98-0.88-1.53-1.24c-0.54-0.359-1.12-0.67-1.72-0.92c-0.6-0.25-1.23-0.439-1.87-0.569
			c-3.25-0.661-6.7,0.41-9.03,2.729c-0.46,0.46-0.88,0.971-1.24,1.521c-0.36,0.54-0.67,1.12-0.92,1.729
			c-0.25,0.6-0.44,1.231-0.57,1.87c-0.13,0.639-0.2,1.3-0.2,1.95c0,0.65,0.07,1.31,0.2,1.96c0.13,0.63,0.32,1.26,0.57,1.87
			c0.25,0.6,0.56,1.18,0.92,1.72c0.36,0.55,0.78,1.061,1.24,1.521c1.87,1.869,4.44,2.93,7.07,2.93c0.66,0,1.31-0.061,1.96-0.191
			c0.64-0.13,1.27-0.319,1.87-0.569c0.6-0.25,1.18-0.561,1.72-0.92c0.55-0.37,1.06-0.79,1.53-1.25c0.46-0.46,0.87-0.971,1.24-1.521
			c0.36-0.54,0.67-1.12,0.92-1.72c0.25-0.61,0.44-1.24,0.57-1.87c0.13-0.65,0.19-1.31,0.19-1.96
			C463.26,348.748,462.2,346.168,460.34,344.308z"/>
	</g>
</g>
<g>
	<g>
		<path d="M416.636,341.382H312.8c-5.523,0-10,4.478-10,10c0,5.522,4.477,10,10,10h103.836c5.523,0,10-4.478,10-10
			C426.636,345.86,422.159,341.382,416.636,341.382z"/>
	</g>
</g>
<g>
	<g>
		<path d="M463.07,207.279c-0.13-0.641-0.32-1.27-0.57-1.87c-0.25-0.61-0.56-1.19-0.92-1.73c-0.37-0.55-0.78-1.06-1.25-1.52
			c-0.46-0.46-0.97-0.88-1.52-1.24c-0.54-0.36-1.12-0.67-1.72-0.92c-0.6-0.25-1.23-0.44-1.87-0.57c-1.29-0.26-2.62-0.26-3.91,0
			c-0.64,0.13-1.27,0.32-1.87,0.57c-0.6,0.25-1.19,0.56-1.73,0.92s-1.06,0.78-1.52,1.24c-0.46,0.46-0.88,0.97-1.24,1.52
			c-0.36,0.54-0.67,1.12-0.92,1.73c-0.25,0.599-0.44,1.229-0.57,1.87c-0.13,0.639-0.2,1.3-0.2,1.949c0,0.65,0.07,1.31,0.2,1.95
			c0.13,0.64,0.32,1.271,0.57,1.88c0.25,0.601,0.56,1.181,0.92,1.721c0.36,0.55,0.78,1.06,1.24,1.52c0.46,0.46,0.98,0.88,1.52,1.25
			c0.54,0.349,1.13,0.66,1.73,0.91c0.6,0.25,1.23,0.45,1.87,0.57c0.64,0.13,1.3,0.199,1.95,0.199c0.66,0,1.31-0.069,1.96-0.199
			c0.64-0.12,1.27-0.32,1.87-0.57c0.6-0.25,1.18-0.56,1.72-0.91c0.55-0.37,1.06-0.79,1.52-1.25c0.47-0.46,0.88-0.97,1.25-1.52
			c0.36-0.54,0.67-1.12,0.92-1.721c0.25-0.609,0.44-1.241,0.57-1.88c0.13-0.639,0.19-1.3,0.19-1.95
			C463.26,208.579,463.2,207.919,463.07,207.279z"/>
	</g>
</g>
<g>
	<g>
		<path d="M416.636,199.229H312.8c-5.523,0-10,4.478-10,10c0,5.522,4.477,10,10,10h103.836c5.523,0,10-4.478,10-10
			C426.636,203.707,422.159,199.229,416.636,199.229z"/>
	</g>
</g>
<g>
	<g>
		<path d="M502,134.644H370.059v-27.207c0-5.522-4.477-10-10-10h-45.157l-6.612-85.731c-0.401-5.21-4.746-9.231-9.97-9.231h-84.283
			c-5.225,0-9.569,4.021-9.97,9.231l-6.612,85.731h-45.514c-5.523,0-10,4.478-10,10v27.207H10c-5.523,0-10,4.478-10,10v354.881
			c0,5.522,4.477,10,10,10h492c5.523,0,10-4.478,10-10V144.644C512,139.121,507.523,134.644,502,134.644z M223.296,22.474h65.766
			l8.358,108.372h-82.482L223.296,22.474z M161.941,117.437h33.972l-1.746,22.641c-0.214,2.777,0.74,5.519,2.632,7.563
			c1.892,2.044,4.552,3.206,7.338,3.206H308.22c2.786,0,5.445-1.162,7.338-3.206c1.893-2.044,2.847-4.785,2.632-7.563l-1.746-22.641
			h33.615v46.818H161.941V117.437z M492,489.524H20v-334.88h121.941v19.611c0,5.522,4.477,10,10,10h208.118c5.523,0,10-4.478,10-10
			v-19.611H492V489.524z"/>
	</g>
</g>
<g>
</g>
<g>
</g>
<g>
</g>
<g>
</g>
<g>
</g>
<g>
</g>
<g>
</g>
<g>
</g>
<g>
</g>
<g>
</g>
<g>
</g>
<g>
</g>
<g>
</g>
<g>
</g>
<g>
</g>
</svg>
