<?xml version="1.0" encoding="iso-8859-1"?>
<!-- Generator: Adobe Illustrator 19.0.0, SVG Export Plug-In . SVG Version: 6.00 Build 0)  -->
<svg version="1.1" id="Capa_1" xmlns="http://www.w3.org/2000/svg" xmlns:xlink="http://www.w3.org/1999/xlink" x="0px" y="0px"
	 viewBox="0 0 480 480" style="enable-background:new 0 0 480 480;" xml:space="preserve">
<g>
	<g>
		<path d="M416,183.84h-16c17.673,0,32-14.327,32-32v-16c0-17.673-14.327-32-32-32h-16c-17.673,0-32,14.327-32,32v16
			c0,17.673,14.327,32,32,32h-16c-13.255,0-24,10.745-24,24v48c0,4.418,3.582,8,8,8h80c4.418,0,8-3.582,8-8v-48
			C440,194.585,429.255,183.84,416,183.84z M368,151.84v-16c0-8.837,7.163-16,16-16h16c8.837,0,16,7.163,16,16v16
			c0,8.837-7.163,16-16,16h-16C375.163,167.84,368,160.677,368,151.84z M424,247.84h-64v-40c0-4.418,3.582-8,8-8h48
			c4.418,0,8,3.582,8,8V247.84z"/>
	</g>
</g>
<g>
	<g>
		<path d="M472,63.84H136c-4.418,0-8,3.582-8,8v128h-16c-2.122,0-4.156,0.844-5.656,2.344L76.688,231.84H0v16h80
			c2.122,0,4.156-0.844,5.656-2.344l29.656-29.656H200v24h-72v56c0,4.418,3.582,8,8,8h32v96.216l-57.168,0.096l-33.496-33.488
			c-1.5-1.5-3.534-2.344-5.656-2.344H0v16h68.368l33.496,33.496c1.5,1.5,3.534,2.344,5.656,2.344L288,415.84c4.418,0,8-3.582,8-8
			v-104h176c4.418,0,8-3.582,8-8v-224C480,67.422,476.418,63.84,472,63.84z M280,399.84l-96,0.184V375.84h96V399.84z M280,359.84
			h-96v-24h96V359.84z M280,319.84h-96v-16h96V319.84z M464,287.84H144v-32h64c4.418,0,8-3.582,8-8v-40c0-4.418-3.582-8-8-8h-64
			v-120h320V287.84z"/>
	</g>
</g>
<g>
	<g>
		<rect x="168" y="103.84" width="152" height="16"/>
	</g>
</g>
<g>
	<g>
		<rect x="168" y="135.84" width="152" height="16"/>
	</g>
</g>
<g>
	<g>
		<rect x="168" y="167.84" width="152" height="16"/>
	</g>
</g>
<g>
	<g>
		<rect x="240" y="199.84" width="80" height="16"/>
	</g>
</g>
<g>
	<g>
		<rect x="240" y="231.84" width="80" height="16"/>
	</g>
</g>
<g>
</g>
<g>
</g>
<g>
</g>
<g>
</g>
<g>
</g>
<g>
</g>
<g>
</g>
<g>
</g>
<g>
</g>
<g>
</g>
<g>
</g>
<g>
</g>
<g>
</g>
<g>
</g>
<g>
</g>
</svg>
