<?xml version="1.0" encoding="iso-8859-1"?>
<!-- Generator: Adobe Illustrator 19.0.0, SVG Export Plug-In . SVG Version: 6.00 Build 0)  -->
<svg version="1.1" id="Capa_1" xmlns="http://www.w3.org/2000/svg" xmlns:xlink="http://www.w3.org/1999/xlink" x="0px" y="0px"
	 viewBox="0 0 512 512" style="enable-background:new 0 0 512 512;" xml:space="preserve">
<path style="fill:#E0E0E3;" d="M46.192,404.048c-11.014,0-19.974-8.961-19.974-19.975V131.011c0-11.014,8.96-19.975,19.974-19.975
	h411.393c11.014,0,19.974,8.961,19.974,19.975v253.063c0,11.014-8.96,19.975-19.974,19.975H46.192V404.048z"/>
<path style="fill:#C7C5CC;" d="M349.559,316.145c-41.477,0-76.975-36.638-90.311-52.391c-4.055-4.791-4.055-11.745-0.001-16.535
	c13.338-15.754,48.835-52.392,90.313-52.392s76.975,36.638,90.311,52.391c4.055,4.791,4.055,11.745,0.001,16.535
	C426.534,279.507,391.036,316.145,349.559,316.145z"/>
<path style="fill:#25D887;" d="M349.559,316.048c-33.394,0-60.562-27.168-60.562-60.562s27.168-60.562,60.562-60.562
	s60.562,27.168,60.562,60.562S382.953,316.048,349.559,316.048z"/>
<path style="fill:#08BC62;" d="M341.937,251.888c0-22.424,12.26-42.026,30.42-52.494c-7.043-2.873-14.736-4.469-22.798-4.469
	c-33.394,0-60.562,27.168-60.562,60.562s27.168,60.562,60.562,60.562c10.97,0,21.258-2.947,30.143-8.068
	C357.577,298.955,341.937,277.219,341.937,251.888z"/>
<path style="fill:#05A54A;" d="M349.559,290.899c-19.528,0-35.414-15.886-35.414-35.413s15.886-35.413,35.414-35.413
	s35.414,15.886,35.414,35.413S369.087,290.899,349.559,290.899z"/>
<path style="fill:#06933F;" d="M349.559,220.073c-11.576,0-21.87,5.583-28.336,14.196c4.062-1.627,8.489-2.532,13.127-2.532
	c19.528,0,35.414,15.886,35.414,35.413c0,7.952-2.636,15.299-7.078,21.217c13.046-5.227,22.287-17.991,22.287-32.881
	C384.973,235.959,369.087,220.073,349.559,220.073z"/>
<path style="fill:#7FE4F4;" d="M75.464,274.506c-7.88,0-14.291-6.41-14.291-14.291V154.114c0-7.88,6.41-14.291,14.291-14.291
	h106.101c7.88,0,14.291,6.41,14.291,14.291v106.101c0,7.88-6.41,14.291-14.291,14.291H75.464z"/>
<path style="fill:#2FCCD3;" d="M126.786,260.215V154.114c0-7.88,6.41-14.291,14.291-14.291H75.464
	c-7.88,0-14.291,6.41-14.291,14.291v106.101c0,7.88,6.41,14.291,14.291,14.291h65.613
	C133.197,274.506,126.786,268.096,126.786,260.215z"/>
<g>
	<path style="fill:#F6B545;" d="M128.515,204.594c-17.857,0-32.386-14.528-32.386-32.386s14.528-32.386,32.386-32.386
		s32.386,14.528,32.386,32.386S146.372,204.594,128.515,204.594z"/>
	<path style="fill:#F6B545;" d="M82.764,274.506v-28.601c0-23.345,18.993-42.339,42.339-42.339h6.826
		c23.345,0,42.339,18.993,42.339,42.339v28.601H82.764z"/>
</g>
<g>
	<path style="fill:#E29524;" d="M121.279,172.209c0-13.4,8.181-24.926,19.811-29.844c-3.868-1.636-8.118-2.541-12.575-2.541
		c-17.857,0-32.386,14.528-32.386,32.386s14.528,32.386,32.386,32.386c4.457,0,8.707-0.906,12.575-2.542
		C129.459,197.134,121.279,185.609,121.279,172.209z"/>
	<path style="fill:#E29524;" d="M141.089,204.576c-2.953-0.655-6.015-1.01-9.163-1.01h-6.826c-23.344,0-42.338,18.993-42.338,42.339
		v28.601h25.15v-28.601C107.913,225.706,122.135,208.776,141.089,204.576z"/>
</g>
<g>
	<path style="fill:#C7C5CC;" d="M138.796,319.743H64.772c-4.258,0-7.711-3.451-7.711-7.711c0-4.259,3.452-7.711,7.711-7.711h74.024
		c4.258,0,7.711,3.451,7.711,7.711C146.507,316.292,143.054,319.743,138.796,319.743z"/>
	<path style="fill:#C7C5CC;" d="M195.342,319.743h-34.956c-4.258,0-7.711-3.451-7.711-7.711c0-4.259,3.452-7.711,7.711-7.711h34.956
		c4.258,0,7.711,3.451,7.711,7.711C203.053,316.292,199.6,319.743,195.342,319.743z"/>
	<path style="fill:#C7C5CC;" d="M138.796,347.502H64.772c-4.258,0-7.711-3.451-7.711-7.711c0-4.259,3.452-7.711,7.711-7.711h74.024
		c4.258,0,7.711,3.451,7.711,7.711C146.507,344.051,143.054,347.502,138.796,347.502z"/>
	<path style="fill:#C7C5CC;" d="M195.342,347.502h-34.956c-4.258,0-7.711-3.451-7.711-7.711c0-4.259,3.452-7.711,7.711-7.711h34.956
		c4.258,0,7.711,3.451,7.711,7.711C203.053,344.051,199.6,347.502,195.342,347.502z"/>
	<path style="fill:#C7C5CC;" d="M138.796,375.261H64.772c-4.258,0-7.711-3.451-7.711-7.711c0-4.259,3.452-7.711,7.711-7.711h74.024
		c4.258,0,7.711,3.451,7.711,7.711C146.507,371.81,143.054,375.261,138.796,375.261z"/>
	<path style="fill:#C7C5CC;" d="M195.342,375.261h-34.956c-4.258,0-7.711-3.451-7.711-7.711c0-4.259,3.452-7.711,7.711-7.711h34.956
		c4.258,0,7.711,3.451,7.711,7.711C203.053,371.81,199.6,375.261,195.342,375.261z"/>
	<path style="fill:#C7C5CC;" d="M443.117,491.438h-47.293c-3.188,0-6.047-1.962-7.195-4.936l-55.518-143.936
		c-1.533-3.974,0.446-8.437,4.419-9.969c3.975-1.534,8.437,0.445,9.97,4.419l53.615,139h42.003c4.258,0,7.711,3.451,7.711,7.711
		C450.828,487.986,447.375,491.438,443.117,491.438z"/>
</g>
<path style="fill:#D6D6D8;" d="M325.91,344.729c-1.533-3.974-5.995-5.953-9.97-4.419c-3.973,1.532-5.952,5.995-4.419,9.969
	l20.739,53.769h16.529L325.91,344.729z"/>
<path style="fill:#C7C5CC;" d="M336.194,169.641c-3.102,0-6.025-1.885-7.201-4.952L283.598,46.265h-59.469
	c-4.258,0-7.711-3.451-7.711-7.711s3.452-7.711,7.711-7.711H288.9c3.193,0,6.057,1.969,7.2,4.95l47.293,123.373
	c1.525,3.977-0.464,8.436-4.439,9.96C338.046,169.476,337.112,169.641,336.194,169.641z"/>
<path style="fill:#D6D6D8;" d="M308.967,175.482c1.176,3.068,4.1,4.952,7.201,4.952c0.918,0,1.851-0.165,2.758-0.513
	c3.977-1.524,5.964-5.983,4.439-9.96l-22.588-58.925h-16.516L308.967,175.482z"/>
<path style="fill:#4DD4E2;" d="M429.237,506.186v-44.917c0-3.211,2.603-5.814,5.814-5.814h44.917c3.211,0,5.814,2.603,5.814,5.814
	v44.917c0,3.211-2.603,5.814-5.814,5.814h-44.917C431.841,512,429.237,509.397,429.237,506.186z"/>
<path style="fill:#ED2E4E;" d="M205.623,77.108c-21.259,0-38.554-17.295-38.554-38.554S184.364,0,205.623,0
	s38.554,17.295,38.554,38.554S226.882,77.108,205.623,77.108z"/>
<g>
</g>
<g>
</g>
<g>
</g>
<g>
</g>
<g>
</g>
<g>
</g>
<g>
</g>
<g>
</g>
<g>
</g>
<g>
</g>
<g>
</g>
<g>
</g>
<g>
</g>
<g>
</g>
<g>
</g>
</svg>
