<?xml version="1.0" encoding="iso-8859-1"?>
<!-- Generator: Adobe Illustrator 19.0.0, SVG Export Plug-In . SVG Version: 6.00 Build 0)  -->
<svg version="1.1" id="Capa_1" xmlns="http://www.w3.org/2000/svg" xmlns:xlink="http://www.w3.org/1999/xlink" x="0px" y="0px"
	 viewBox="0 0 395.947 395.947" style="enable-background:new 0 0 395.947 395.947;" xml:space="preserve">
<path style="fill:#602F75;" d="M389.12,348.16H6.827c-3.77,0-6.827-3.053-6.827-6.827V54.613c0-3.773,3.057-6.827,6.827-6.827
	H389.12c3.77,0,6.827,3.053,6.827,6.827V81.92c0,3.773-3.057,6.827-6.827,6.827c-3.77,0-6.827-3.053-6.827-6.827V61.44H13.653
	v273.067h368.64V122.88c0-3.773,3.057-6.827,6.827-6.827c3.77,0,6.827,3.053,6.827,6.827v218.453
	C395.947,345.107,392.89,348.16,389.12,348.16z"/>
<rect x="27.307" y="157.013" style="fill:#00E7FF;" width="27.307" height="163.84"/>
<path style="fill:#602F75;" d="M54.613,327.68H27.307c-3.77,0-6.827-3.053-6.827-6.827v-163.84c0-3.773,3.057-6.827,6.827-6.827
	h27.307c3.77,0,6.827,3.053,6.827,6.827v163.84C61.44,324.627,58.383,327.68,54.613,327.68z M34.133,314.027h13.653V163.84H34.133
	V314.027z"/>
<rect x="184.32" y="157.013" style="fill:#EA3457;" width="27.307" height="163.84"/>
<path style="fill:#602F75;" d="M211.627,327.68H184.32c-3.77,0-6.827-3.053-6.827-6.827v-163.84c0-3.773,3.057-6.827,6.827-6.827
	h27.307c3.77,0,6.827,3.053,6.827,6.827v163.84C218.453,324.627,215.397,327.68,211.627,327.68z M191.147,314.027H204.8V163.84
	h-13.653V314.027z"/>
<rect x="293.547" y="157.013" style="fill:#FFE600;" width="27.307" height="163.84"/>
<path style="fill:#602F75;" d="M320.853,327.68h-27.307c-3.77,0-6.827-3.053-6.827-6.827v-163.84c0-3.773,3.057-6.827,6.827-6.827
	h27.307c3.77,0,6.827,3.053,6.827,6.827v163.84C327.68,324.627,324.623,327.68,320.853,327.68z M300.373,314.027h13.653V163.84
	h-13.653V314.027z"/>
<rect x="341.333" y="157.013" style="fill:#FFE600;" width="27.307" height="163.84"/>
<path style="fill:#602F75;" d="M368.64,327.68h-27.307c-3.77,0-6.827-3.053-6.827-6.827v-163.84c0-3.773,3.057-6.827,6.827-6.827
	h27.307c3.77,0,6.827,3.053,6.827,6.827v163.84C375.467,324.627,372.41,327.68,368.64,327.68z M348.16,314.027h13.653V163.84H348.16
	V314.027z"/>
<rect x="116.053" y="157.013" style="fill:#FFE600;" width="27.307" height="163.84"/>
<g>
	<path style="fill:#602F75;" d="M143.36,327.68h-27.307c-3.77,0-6.827-3.053-6.827-6.827v-163.84c0-3.773,3.057-6.827,6.827-6.827
		h27.307c3.77,0,6.827,3.053,6.827,6.827v163.84C150.187,324.627,147.13,327.68,143.36,327.68z M122.88,314.027h13.653V163.84
		H122.88V314.027z"/>
	<rect x="157.013" y="150.187" style="fill:#602F75;" width="13.653" height="177.493"/>
	<rect x="68.267" y="150.187" style="fill:#602F75;" width="13.653" height="177.493"/>
	<rect x="88.747" y="150.187" style="fill:#602F75;" width="13.653" height="177.493"/>
	<rect x="225.28" y="150.187" style="fill:#602F75;" width="13.653" height="177.493"/>
	<rect x="245.76" y="150.187" style="fill:#602F75;" width="13.653" height="177.493"/>
	<rect x="266.24" y="150.187" style="fill:#602F75;" width="13.653" height="177.493"/>
</g>
<g>
	<path style="fill:#EA3457;" d="M73.936,83.407H50.79l-2.333,15.587c1.399-0.186,2.707-0.374,4.946-0.374
		c4.666,0,9.334,1.027,13.066,3.267c4.76,2.707,8.68,7.933,8.68,15.587c0,11.853-9.426,20.721-22.586,20.721
		c-6.627,0-12.227-1.867-15.119-3.734l2.053-6.253c2.521,1.493,7.467,3.36,12.974,3.36c7.747,0,14.374-5.04,14.374-13.16
		c-0.094-7.84-5.32-13.44-17.454-13.44c-3.453,0-6.159,0.374-8.4,0.654l3.92-29.119h29.027v6.905H73.936z"/>
	<path style="fill:#EA3457;" d="M110.983,137.167v-16.521H82.797v-5.414L109.863,76.5h8.866v37.707h8.494v6.439h-8.494v16.521
		H110.983L110.983,137.167z M110.983,114.207V93.954c0-3.173,0.094-6.347,0.28-9.52h-0.28c-1.867,3.546-3.36,6.159-5.04,8.96
		l-14.839,20.627v0.186H110.983z"/>
	<path style="fill:#EA3457;" d="M169.684,83.407h-23.146l-2.333,15.587c1.399-0.186,2.707-0.374,4.946-0.374
		c4.666,0,9.334,1.027,13.066,3.267c4.76,2.707,8.68,7.933,8.68,15.587c0,11.853-9.426,20.721-22.586,20.721
		c-6.627,0-12.227-1.867-15.119-3.734l2.053-6.253c2.521,1.493,7.467,3.36,12.974,3.36c7.747,0,14.374-5.04,14.374-13.16
		c-0.094-7.84-5.32-13.44-17.454-13.44c-3.453,0-6.159,0.374-8.4,0.654l3.92-29.119h29.027v6.905H169.684z"/>
	<path style="fill:#EA3457;" d="M183.303,127.741c2.333,1.493,7.747,3.826,13.44,3.826c10.547,0,13.814-6.721,13.72-11.761
		c-0.094-8.494-7.747-12.133-15.681-12.133h-4.574v-6.161h4.574c5.973,0,13.534-3.081,13.534-10.267
		c0-4.854-3.081-9.146-10.639-9.146c-4.854,0-9.52,2.147-12.133,4.014l-2.147-5.973c3.173-2.333,9.334-4.666,15.867-4.666
		c11.947,0,17.36,7.093,17.36,14.467c0,6.253-3.734,11.573-11.199,14.28v0.186c7.467,1.493,13.534,7.093,13.534,15.587
		c0,9.708-7.561,18.2-22.12,18.2c-6.813,0-12.786-2.147-15.773-4.106L183.303,127.741z"/>
	<path style="fill:#EA3457;" d="M254.604,137.167v-16.521h-28.187v-5.414L253.483,76.5h8.866v37.707h8.494v6.439h-8.494v16.521
		H254.604L254.604,137.167z M254.604,114.207V93.954c0-3.173,0.094-6.347,0.28-9.52h-0.28c-1.867,3.546-3.36,6.159-5.04,8.96
		l-14.839,20.627v0.186H254.604z"/>
	<path style="fill:#EA3457;" d="M313.303,83.407h-23.146l-2.333,15.587c1.399-0.186,2.707-0.374,4.946-0.374
		c4.666,0,9.334,1.027,13.066,3.267c4.76,2.707,8.68,7.933,8.68,15.587c0,11.853-9.426,20.721-22.586,20.721
		c-6.627,0-12.227-1.867-15.119-3.734l2.053-6.253c2.521,1.493,7.467,3.36,12.974,3.36c7.747,0,14.374-5.04,14.374-13.16
		c-0.094-7.84-5.32-13.44-17.454-13.44c-3.453,0-6.159,0.374-8.4,0.654l3.92-29.119h29.027v6.905H313.303z"/>
	<path style="fill:#EA3457;" d="M326.924,127.741c2.333,1.493,7.747,3.826,13.44,3.826c10.547,0,13.814-6.721,13.72-11.761
		c-0.094-8.494-7.747-12.133-15.681-12.133h-4.574v-6.161h4.574c5.973,0,13.534-3.081,13.534-10.267
		c0-4.854-3.081-9.146-10.639-9.146c-4.854,0-9.52,2.147-12.133,4.014l-2.147-5.973c3.173-2.333,9.334-4.666,15.867-4.666
		c11.947,0,17.36,7.093,17.36,14.467c0,6.253-3.734,11.573-11.199,14.28v0.186c7.467,1.493,13.534,7.093,13.534,15.587
		c0,9.708-7.561,18.2-22.12,18.2c-6.813,0-12.786-2.147-15.773-4.106L326.924,127.741z"/>
</g>
<g>
</g>
<g>
</g>
<g>
</g>
<g>
</g>
<g>
</g>
<g>
</g>
<g>
</g>
<g>
</g>
<g>
</g>
<g>
</g>
<g>
</g>
<g>
</g>
<g>
</g>
<g>
</g>
<g>
</g>
</svg>
