<?xml version="1.0" encoding="iso-8859-1"?>
<!-- Generator: Adobe Illustrator 19.0.0, SVG Export Plug-In . SVG Version: 6.00 Build 0)  -->
<svg version="1.1" id="Layer_1" xmlns="http://www.w3.org/2000/svg" xmlns:xlink="http://www.w3.org/1999/xlink" x="0px" y="0px"
	 viewBox="0 0 280.028 280.028" style="enable-background:new 0 0 280.028 280.028;" xml:space="preserve">
<g>
	<path style="fill:#E37948;" d="M35.004,8.751h210.02c4.839,0,8.751,3.92,8.751,8.751v253.775c0,4.839-3.912,8.751-8.751,8.751
		H35.004c-4.839,0-8.751-3.912-8.751-8.751V17.502C26.254,12.671,30.165,8.751,35.004,8.751z"/>
	<path style="fill:#FFFFFF;" d="M52.506,35.003h175.017v218.771H52.506V35.003z"/>
	<path style="fill:#E4E7E7;" d="M69.737,17.502h43.667V0h52.846l0.184,17.502h43.57v26.253H69.737V17.502z"/>
	<path style="fill:#CDCFCF;" d="M70.008,35.073h140.014v8.733H70.008V35.073z"/>
	<path style="fill:#51BBA8;" d="M70.008,140.014h26.253v-26.34H70.008V140.014z M113.762,113.665V139.9h96.259v-26.235
		C210.021,113.665,113.762,113.665,113.762,113.665z"/>
	<path style="fill:#CCD0D2;" d="M70.008,96.347h26.253v-26.34H70.008V96.347z M113.762,70.007v26.244h96.259V70.007H113.762z
		 M70.008,183.68h26.253v-26.069H70.008V183.68z M113.762,183.873h96.259v-26.235h-96.259V183.873z M70.008,227.443h26.253v-26.069
		H70.008V227.443z M113.762,227.627h96.259v-26.235h-96.259V227.627z"/>
</g>
<g>
</g>
<g>
</g>
<g>
</g>
<g>
</g>
<g>
</g>
<g>
</g>
<g>
</g>
<g>
</g>
<g>
</g>
<g>
</g>
<g>
</g>
<g>
</g>
<g>
</g>
<g>
</g>
<g>
</g>
</svg>
