<?xml version="1.0" encoding="iso-8859-1"?>
<!-- Generator: Adobe Illustrator 19.0.0, SVG Export Plug-In . SVG Version: 6.00 Build 0)  -->
<svg version="1.1" id="Capa_1" xmlns="http://www.w3.org/2000/svg" xmlns:xlink="http://www.w3.org/1999/xlink" x="0px" y="0px"
	 viewBox="0 0 512.013 512.013" style="enable-background:new 0 0 512.013 512.013;" xml:space="preserve">
<g>
	<g>
		<g>
			<path d="M85.34,68.267c4.713,0,8.533-3.82,8.533-8.533v-51.2C93.873,3.82,90.052,0,85.34,0s-8.533,3.82-8.533,8.533v51.2
				C76.806,64.446,80.627,68.267,85.34,68.267z"/>
			<path d="M469.34,25.6h-8.533c-2.263-0.001-4.434,0.898-6.035,2.499c-1.6,1.6-2.499,3.771-2.499,6.035v25.6
				c0,14.138-11.461,25.6-25.6,25.6s-25.6-11.461-25.6-25.6v-25.6c0.001-2.263-0.898-4.434-2.499-6.035
				c-1.6-1.6-3.771-2.499-6.035-2.499H119.473c-2.263-0.001-4.434,0.898-6.035,2.499c-1.6,1.6-2.499,3.771-2.499,6.035v25.6
				c0,14.138-11.462,25.6-25.6,25.6s-25.6-11.461-25.6-25.6v-25.6c0.001-2.263-0.898-4.434-2.499-6.035
				c-1.6-1.6-3.771-2.499-6.035-2.499h-8.533C19.12,25.628,0.034,44.714,0.006,68.267v324.267
				c0.028,23.553,19.114,42.639,42.667,42.667h169.599c37.495,60.713,110.33,89.703,179.291,71.364
				c68.961-18.34,117.772-79.681,120.155-150.999c0.139-0.467,0.236-0.946,0.288-1.431V68.267
				C511.979,44.714,492.892,25.628,469.34,25.6z M128.006,418.133H42.673c-14.132-0.015-25.585-11.468-25.6-25.6V332.8h110.933
				V418.133z M128.006,315.733H17.073v-76.8h110.933V315.733z M128.006,221.867H17.073v-76.8h110.933V221.867z M145.073,418.133
				V332.8h43.584c-0.604,5.669-0.91,11.366-0.917,17.067c0.024,23.601,5.241,46.907,15.279,68.267H145.073z M231.956,238.933
				c-20.259,21.427-34.274,47.984-40.53,76.8h-46.353v-76.8H231.956z M145.073,221.867v-76.8h102.4v76.8H145.073z M349.873,494.933
				c-80.118,0-145.067-64.949-145.067-145.067S269.755,204.8,349.873,204.8S494.94,269.749,494.94,349.867
				C494.85,429.948,429.954,494.844,349.873,494.933z M264.54,212.266v-67.199h102.4v43.584c-5.669-0.604-11.366-0.91-17.067-0.917
				C319.691,187.747,290.121,196.248,264.54,212.266z M494.94,277.894c-7.095-14.245-16.242-27.372-27.149-38.96h27.149V277.894z
				 M494.94,221.867h-45.919c-19.11-14.902-41.332-25.309-65.015-30.447v-46.353H494.94V221.867z M494.94,128H17.073V68.267
				c0.015-14.132,11.468-25.585,25.6-25.6v17.067c0,23.564,19.102,42.667,42.667,42.667s42.667-19.103,42.667-42.667V42.667h256
				v17.067c0,23.564,19.103,42.667,42.667,42.667s42.667-19.103,42.667-42.667V42.667c14.132,0.015,25.585,11.468,25.6,25.6V128z"/>
			<path d="M426.673,68.267c4.713,0,8.533-3.82,8.533-8.533v-51.2c0-4.713-3.82-8.533-8.533-8.533s-8.533,3.82-8.533,8.533v51.2
				C418.14,64.446,421.96,68.267,426.673,68.267z"/>
			<path d="M349.873,221.867c-70.692,0-128,57.308-128,128s57.308,128,128,128s128-57.308,128-128
				C477.794,279.207,420.533,221.945,349.873,221.867z M349.873,460.8c-61.267,0-110.933-49.667-110.933-110.933
				s49.667-110.933,110.933-110.933S460.806,288.6,460.806,349.867C460.737,411.105,411.111,460.731,349.873,460.8z"/>
			<path d="M358.406,346.333v-81.8c0-4.713-3.82-8.533-8.533-8.533s-8.533,3.82-8.533,8.533v85.333c0.001,2.263,0.9,4.433,2.5,6.033
				l42.667,42.667c3.341,3.281,8.701,3.256,12.012-0.054s3.335-8.671,0.054-12.012L358.406,346.333z"/>
		</g>
	</g>
</g>
<g>
</g>
<g>
</g>
<g>
</g>
<g>
</g>
<g>
</g>
<g>
</g>
<g>
</g>
<g>
</g>
<g>
</g>
<g>
</g>
<g>
</g>
<g>
</g>
<g>
</g>
<g>
</g>
<g>
</g>
</svg>
