<?xml version="1.0" encoding="iso-8859-1"?>
<!-- Generator: Adobe Illustrator 17.1.0, SVG Export Plug-In . SVG Version: 6.00 Build 0)  -->
<!DOCTYPE svg PUBLIC "-//W3C//DTD SVG 1.1//EN" "http://www.w3.org/Graphics/SVG/1.1/DTD/svg11.dtd">
<svg version="1.1" id="Capa_1" xmlns="http://www.w3.org/2000/svg" xmlns:xlink="http://www.w3.org/1999/xlink" x="0px" y="0px"
	 viewBox="0 0 470.294 470.294" style="enable-background:new 0 0 470.294 470.294;" xml:space="preserve">
<g>
	<path d="M12.5,391.843c6.893,0,12.5-5.607,12.5-12.5s-5.607-12.5-12.5-12.5S0,372.451,0,379.343S5.607,391.843,12.5,391.843z"/>
	<path d="M470.294,166.379c0-2.652-1.054-5.195-2.929-7.071L349.436,41.379c-3.906-3.904-10.236-3.904-14.143,0L154.981,221.691
		c-1.875,1.876-2.929,4.419-2.929,7.071s1.054,5.195,2.929,7.071l5.968,5.968c-0.937,0.026-1.876,0.042-2.818,0.042
		c-28.512,0-55.661,12.992-73.632,35H65v-15c0-5.522-4.477-10-10-10H10c-5.523,0-10,4.478-10,10s4.477,10,10,10h35v140H10
		c-5.523,0-10,4.478-10,10s4.477,10,10,10h45c5.523,0,10-4.478,10-10v-25h19.5c17.97,22.008,45.12,35,73.632,35h148.757
		c17.231,0,31.25-14.019,31.25-31.25c0-5.901-1.645-11.425-4.5-16.139c8.708-5.553,14.5-15.29,14.5-26.361
		c0-4.434-0.934-8.651-2.606-12.476c13.039-3.76,22.606-15.792,22.606-30.024c0-3.965-0.75-7.757-2.103-11.25h0.853
		c17.231,0,31.25-14.019,31.25-31.25c0-8.404-3.341-16.038-8.756-21.66l77.983-77.983
		C469.241,171.575,470.294,169.032,470.294,166.379z M97.491,380.954c-1.882-2.583-4.886-4.11-8.082-4.11H65v-80h24.409
		c3.196,0,6.199-1.527,8.081-4.11c14.098-19.342,36.768-30.89,60.641-30.89c0.002,0,0.002,0,0.004,0
		c32.251,0,62.574-12.561,85.38-35.366c4.386-4.387,11.521-4.387,15.909,0c4.387,4.386,4.387,11.523,0,15.909
		c-27.056,27.057-63.029,41.957-101.293,41.958c-4.089,0-7.766,2.489-9.285,6.286l-20,50c-2.051,5.128,0.443,10.947,5.571,12.999
		c1.218,0.487,2.475,0.718,3.711,0.718c3.968-0.001,7.724-2.379,9.288-6.289l17.542-43.854c16.885-0.69,33.311-3.942,48.835-9.558
		l32.197,32.197h-8.052c-5.523,0-10,4.478-10,10s4.477,10,10,10h25.353c-1.353,3.493-2.103,7.285-2.103,11.25
		s0.75,7.757,2.103,11.25h-25.353c-5.523,0-10,4.478-10,10s4.477,10,10,10h25.353c-1.353,3.493-2.103,7.285-2.103,11.25
		s0.75,7.757,2.103,11.25h-105.16C134.257,411.843,111.587,400.295,97.491,380.954z M328.139,358.093
		c0,6.203-5.047,11.25-11.25,11.25h-10h-14.45c-6.203,0-11.25-5.047-11.25-11.25s5.047-11.25,11.25-11.25h20h4.45
		C323.092,346.843,328.139,351.89,328.139,358.093z M306.889,411.843h-14.45c-6.203,0-11.25-5.047-11.25-11.25
		s5.047-11.25,11.25-11.25h14.45c6.203,0,11.25,5.047,11.25,11.25S313.092,411.843,306.889,411.843z M336.889,326.843h-20h-4.45
		c-6.203,0-11.25-5.047-11.25-11.25s5.047-11.25,11.25-11.25h24.45c6.203,0,11.25,5.047,11.25,11.25
		S343.092,326.843,336.889,326.843z M366.889,284.343h-24.45c-6.203,0-11.25-5.047-11.25-11.25s5.047-11.25,11.25-11.25h24.45
		c1.163,0,2.285,0.177,3.341,0.506c0.002,0.001,0.004,0.001,0.006,0.002c4.574,1.428,7.903,5.703,7.903,10.741
		C378.139,279.296,373.092,284.343,366.889,284.343z M370.476,242.055c-1.178-0.135-2.373-0.212-3.587-0.212h-24.45
		c-17.231,0-31.25,14.019-31.25,31.25c0,3.965,0.75,7.757,2.103,11.25h-0.853c-17.231,0-31.25,14.019-31.25,31.25
		c0,4.434,0.934,8.651,2.606,12.476c-2.065,0.595-4.044,1.396-5.911,2.383l-0.677-0.677c-0.002-0.002-0.004-0.004-0.005-0.005
		l-43.754-43.754c14.612-7.615,28.135-17.503,40.119-29.487c5.902-5.902,9.152-13.75,9.152-22.098c0-8.347-3.25-16.194-9.152-22.097
		c-12.186-12.184-32.01-12.182-44.194,0c-12.387,12.388-27.433,21.148-43.849,25.757l-9.329-9.329l166.17-166.17l103.787,103.787
		L370.476,242.055z"/>
	<path d="M295.625,241.404c1.953,1.952,4.512,2.929,7.071,2.929s5.118-0.977,7.071-2.929l53.016-53.016
		c3.905-3.905,3.905-10.237,0-14.143c-3.906-3.904-10.236-3.904-14.143,0l-53.016,53.016
		C291.719,231.167,291.719,237.499,295.625,241.404z"/>
	<path d="M334.499,145.961c-3.906-3.904-10.236-3.904-14.143,0l-42.54,42.54c-3.905,3.905-3.905,10.237,0,14.143
		c1.953,1.952,4.512,2.929,7.071,2.929s5.118-0.977,7.071-2.929l42.54-42.54C338.404,156.199,338.404,149.867,334.499,145.961z"/>
</g>
<g>
</g>
<g>
</g>
<g>
</g>
<g>
</g>
<g>
</g>
<g>
</g>
<g>
</g>
<g>
</g>
<g>
</g>
<g>
</g>
<g>
</g>
<g>
</g>
<g>
</g>
<g>
</g>
<g>
</g>
</svg>
