<?xml version="1.0" encoding="iso-8859-1"?>
<!-- Generator: Adobe Illustrator 19.0.0, SVG Export Plug-In . SVG Version: 6.00 Build 0)  -->
<svg version="1.1" id="Capa_1" xmlns="http://www.w3.org/2000/svg" xmlns:xlink="http://www.w3.org/1999/xlink" x="0px" y="0px"
	 viewBox="0 0 512 512" style="enable-background:new 0 0 512 512;" xml:space="preserve">
<g>
	<g>
		<path d="M412.396,36H204.83c-5.523,0-10,4.478-10,10s4.477,10,10,10h207.566c5.523,0,10-4.478,10-10S417.919,36,412.396,36z"/>
	</g>
</g>
<g>
	<g>
		<path d="M103.435,38.93c-1.86-1.86-4.44-2.93-7.07-2.93c-2.64,0-5.21,1.069-7.07,2.93c-1.86,1.86-2.93,4.44-2.93,7.07
			s1.07,5.21,2.93,7.069c1.86,1.861,4.43,2.931,7.07,2.931c2.63,0,5.21-1.07,7.07-2.931c1.86-1.859,2.93-4.439,2.93-7.069
			S105.296,40.79,103.435,38.93z"/>
	</g>
</g>
<g>
	<g>
		<path d="M66.686,38.93c-1.86-1.86-4.44-2.93-7.07-2.93s-5.21,1.069-7.07,2.93c-1.86,1.86-2.93,4.44-2.93,7.07
			s1.07,5.21,2.93,7.069C54.406,54.93,56.987,56,59.616,56c2.63,0,5.21-1.07,7.07-2.931c1.86-1.859,2.93-4.439,2.93-7.069
			S68.546,40.79,66.686,38.93z"/>
	</g>
</g>
<g>
	<g>
		<path d="M140.186,38.93c-1.86-1.86-4.44-2.93-7.07-2.93c-2.64,0-5.21,1.069-7.08,2.93c-1.86,1.86-2.92,4.44-2.92,7.07
			s1.06,5.21,2.92,7.069c1.87,1.861,4.44,2.931,7.08,2.931c2.63,0,5.21-1.07,7.07-2.931c1.86-1.859,2.93-4.439,2.93-7.069
			S142.046,40.79,140.186,38.93z"/>
	</g>
</g>
<g>
	<g>
		<path d="M481.993,182.241h-35.877c-6.157-10.165-17.322-16.973-30.049-16.973h-20.285c-4.177-12.324-15.856-21.217-29.573-21.217
			c-13.717,0-25.396,8.893-29.574,21.217H316.35c-12.727,0-23.892,6.808-30.049,16.973h-35.317c-16.542,0-30,13.458-30,30v15.224
			c-5.302-3.699-11.431-6.346-18.121-7.594l-8.828-1.647c1.905-5.284,2.949-10.976,2.949-16.908v-26.029c0-27.57-22.43-50-50-50
			s-50,22.43-50,50v26.029c0,5.932,1.044,11.624,2.949,16.908l-8.827,1.646c-22.089,4.119-38.122,23.418-38.122,45.888V320
			c0,5.522,4.477,10,10,10h44c5.523,0,10-4.478,10-10c0-5.522-4.477-10-10-10h-34v-44.241c0-12.843,9.163-23.873,21.789-26.228
			l16.653-3.106c9.071,9.186,21.659,14.891,35.558,14.891s26.487-5.705,35.559-14.892l16.653,3.106
			c12.625,2.354,21.788,13.385,21.788,26.228V310h-34c-5.523,0-10,4.478-10,10c0,5.522,4.477,10,10,10h34v44H42.007
			c-12.131,0-22-9.869-22-22V91.995c0.037,0,0.072,0.005,0.109,0.005h431.891v62.052c0,5.522,4.477,10,10,10s10-4.478,10-10V42
			c0-23.159-18.841-42-42-42h-388c-23.159,0-42,18.841-42,42v310c0,23.159,18.841,42,42,42h178.979v88c0,16.542,13.458,30,30,30
			h231.008c16.542,0,30-13.458,30-30V212.241C511.993,195.699,498.535,182.241,481.993,182.241z M176.986,201.316
			c0,16.542-13.458,30-30,30s-30-13.458-30-30v-26.029c0-16.542,13.458-30,30-30s30,13.458,30,30V201.316z M20.007,42
			c0-12.131,9.869-22,22-22h388c12.131,0,22,9.869,22,22v30H20.116c-0.037,0-0.073,0.005-0.109,0.005V42z M301.245,200.374
			c0-8.329,6.776-15.105,15.106-15.105h28.642c5.523,0,10-4.478,10-10c0-6.185,5.032-11.217,11.216-11.217
			c6.184,0,11.216,5.032,11.216,11.217c0,5.522,4.477,10,10,10h28.642c8.33,0,15.106,6.776,15.106,15.105v11.595H301.245V200.374z
			 M491.995,482h-0.002c0,5.514-4.486,10-10,10H250.986c-5.514,0-10-4.486-10-10V320v-54.241v-53.518c0-5.514,4.486-10,10-10h30.26
			v12.696c0,9.391,7.641,17.031,17.032,17.031h135.865c9.391,0,17.032-7.641,17.032-17.031v-12.696h30.82c5.514,0,10,4.486,10,10
			V482z"/>
	</g>
</g>
<g>
	<g>
		<path d="M154.056,312.93c-1.86-1.86-4.44-2.93-7.07-2.93s-5.21,1.069-7.07,2.93c-1.86,1.86-2.93,4.44-2.93,7.07
			s1.07,5.21,2.93,7.069c1.86,1.86,4.44,2.931,7.07,2.931s5.211-1.07,7.07-2.931c1.86-1.859,2.93-4.439,2.93-7.069
			S155.916,314.79,154.056,312.93z"/>
	</g>
</g>
<g>
	<g>
		<path d="M457.007,276.662H404.84c-5.523,0-10,4.478-10,10c0,5.522,4.477,10,10,10h52.167c5.523,0,10-4.478,10-10
			C467.007,281.14,462.53,276.662,457.007,276.662z"/>
	</g>
</g>
<g>
	<g>
		<path d="M457.007,316.662h-87c-5.523,0-10,4.478-10,10c0,5.522,4.477,10,10,10h87c5.523,0,10-4.478,10-10
			C467.007,321.14,462.53,316.662,457.007,316.662z"/>
	</g>
</g>
<g>
	<g>
		<path d="M377.077,279.59c-1.86-1.86-4.44-2.93-7.07-2.93s-5.21,1.069-7.07,2.93c-1.86,1.86-2.93,4.44-2.93,7.07
			s1.07,5.21,2.93,7.069c1.86,1.861,4.439,2.931,7.07,2.931c2.63,0,5.21-1.07,7.07-2.931c1.86-1.859,2.93-4.439,2.93-7.069
			S378.937,281.45,377.077,279.59z"/>
	</g>
</g>
<g>
	<g>
		<path d="M336.493,391.335c-3.904-3.904-10.236-3.904-14.141,0l-23.267,23.268l-13.788-13.788c-3.905-3.904-10.237-3.904-14.143,0
			c-3.905,3.905-3.905,10.237,0,14.143l20.859,20.859c1.875,1.875,4.419,2.929,7.071,2.929c2.652,0,5.196-1.054,7.071-2.929
			l30.338-30.339C340.398,401.573,340.398,395.241,336.493,391.335z"/>
	</g>
</g>
<g>
	<g>
		<path d="M336.494,289.252c-3.905-3.904-10.237-3.904-14.142,0l-23.267,23.268l-13.788-13.789c-3.904-3.903-10.237-3.904-14.142,0
			c-3.905,3.905-3.906,10.237,0,14.143l20.859,20.86c1.875,1.875,4.419,2.929,7.071,2.929c2.652,0,5.196-1.054,7.071-2.929
			l30.338-30.339C340.399,299.49,340.399,293.158,336.494,289.252z"/>
	</g>
</g>
<g>
	<g>
		<path d="M422.174,378.745h-52.167c-5.523,0-10,4.478-10,10c0,5.522,4.477,10,10,10h52.167c5.523,0,10-4.478,10-10
			C432.174,383.223,427.697,378.745,422.174,378.745z"/>
	</g>
</g>
<g>
	<g>
		<path d="M457.007,418.745h-87c-5.523,0-10,4.478-10,10c0,5.522,4.477,10,10,10h87c5.523,0,10-4.478,10-10
			C467.007,423.223,462.53,418.745,457.007,418.745z"/>
	</g>
</g>
<g>
	<g>
		<path d="M464.077,381.67c-1.86-1.86-4.441-2.93-7.07-2.93c-2.63,0-5.21,1.069-7.07,2.93c-1.86,1.86-2.93,4.439-2.93,7.08
			c0,2.63,1.07,5.21,2.93,7.069c1.86,1.86,4.44,2.931,7.07,2.931s5.21-1.07,7.07-2.931c1.86-1.869,2.93-4.439,2.93-7.069
			C467.007,386.109,465.937,383.54,464.077,381.67z"/>
	</g>
</g>
<g>
</g>
<g>
</g>
<g>
</g>
<g>
</g>
<g>
</g>
<g>
</g>
<g>
</g>
<g>
</g>
<g>
</g>
<g>
</g>
<g>
</g>
<g>
</g>
<g>
</g>
<g>
</g>
<g>
</g>
</svg>
