<?xml version="1.0" encoding="iso-8859-1"?>
<!-- Generator: Adobe Illustrator 19.0.0, SVG Export Plug-In . SVG Version: 6.00 Build 0)  -->
<svg version="1.1" id="Capa_1" xmlns="http://www.w3.org/2000/svg" xmlns:xlink="http://www.w3.org/1999/xlink" x="0px" y="0px"
	 viewBox="0 0 480 480" style="enable-background:new 0 0 480 480;" xml:space="preserve">
<g>
	<g>
		<path d="M448,0H32C14.327,0,0,14.327,0,32v416c0,17.673,14.327,32,32,32h416c17.673,0,32-14.327,32-32V32
			C480,14.327,465.673,0,448,0z M464,448c0,8.837-7.163,16-16,16H32c-8.837,0-16-7.163-16-16V80h448V448z M464,64H16V32
			c0-8.837,7.163-16,16-16h416c8.837,0,16,7.163,16,16V64z"/>
	</g>
</g>
<g>
	<g>
		<rect x="32" y="32" width="16" height="16"/>
	</g>
</g>
<g>
	<g>
		<rect x="64" y="32" width="16" height="16"/>
	</g>
</g>
<g>
	<g>
		<rect x="96" y="32" width="16" height="16"/>
	</g>
</g>
<g>
	<g>
		<path d="M346.168,256L267.72,120c-8.83-15.309-28.398-20.562-43.708-11.732c-4.874,2.811-8.921,6.858-11.732,11.732l-78.448,136
			c-8.837,15.305-3.593,34.876,11.713,43.713c4.867,2.81,10.388,4.288,16.007,4.287h156.896
			c17.673,0.004,32.003-14.32,32.007-31.993C350.456,266.388,348.978,260.867,346.168,256z M326.448,285.856
			c-2.432,1.404-5.191,2.144-8,2.144H161.552c-8.837,0-16-7.164-16-16c0-2.808,0.739-5.567,2.144-8l78.448-136
			c4.419-7.652,14.204-10.274,21.857-5.855c2.432,1.404,4.451,3.424,5.855,5.855l78.448,136
			C336.722,271.653,334.1,281.438,326.448,285.856z"/>
	</g>
</g>
<g>
	<g>
		<rect x="232" y="151.976" width="16" height="88"/>
	</g>
</g>
<g>
	<g>
		<rect x="232" y="255.976" width="16" height="16"/>
	</g>
</g>
<g>
	<g>
		<rect x="48" y="360" width="320" height="16"/>
	</g>
</g>
<g>
	<g>
		<rect x="48" y="392" width="32" height="16"/>
	</g>
</g>
<g>
	<g>
		<rect x="48" y="424" width="32" height="16"/>
	</g>
</g>
<g>
	<g>
		<rect x="96" y="424" width="32" height="16"/>
	</g>
</g>
<g>
	<g>
		<rect x="96" y="392" width="32" height="16"/>
	</g>
</g>
<g>
	<g>
		<rect x="144" y="392" width="32" height="16"/>
	</g>
</g>
<g>
	<g>
		<polygon points="237.656,405.656 226.344,394.344 216,404.688 205.656,394.344 194.344,405.656 204.688,416 194.344,426.344 
			205.656,437.656 216,427.312 226.344,437.656 237.656,426.344 227.312,416 		"/>
	</g>
</g>
<g>
	<g>
		<rect x="96" y="328" width="272" height="16"/>
	</g>
</g>
<g>
	<g>
		<rect x="64" y="328" width="16" height="16"/>
	</g>
</g>
<g>
	<g>
		<polygon points="301.656,405.656 290.344,394.344 280,404.688 269.656,394.344 258.344,405.656 268.688,416 258.344,426.344 
			269.656,437.656 280,427.312 290.344,437.656 301.656,426.344 291.312,416 		"/>
	</g>
</g>
<g>
	<g>
		<polygon points="365.656,405.656 354.344,394.344 344,404.688 333.656,394.344 322.344,405.656 332.688,416 322.344,426.344 
			333.656,437.656 344,427.312 354.344,437.656 365.656,426.344 355.312,416 		"/>
	</g>
</g>
<g>
	<g>
		<polygon points="429.656,341.656 418.344,330.344 408,340.688 397.656,330.344 386.344,341.656 396.688,352 386.344,362.344 
			397.656,373.656 408,363.312 418.344,373.656 429.656,362.344 419.312,352 		"/>
	</g>
</g>
<g>
</g>
<g>
</g>
<g>
</g>
<g>
</g>
<g>
</g>
<g>
</g>
<g>
</g>
<g>
</g>
<g>
</g>
<g>
</g>
<g>
</g>
<g>
</g>
<g>
</g>
<g>
</g>
<g>
</g>
</svg>
