<?xml version="1.0" encoding="utf-8"?>
<!-- Generator: Adobe Illustrator 21.0.0, SVG Export Plug-In . SVG Version: 6.00 Build 0)  -->
<svg version="1.1" id="Capa_1" xmlns="http://www.w3.org/2000/svg" xmlns:xlink="http://www.w3.org/1999/xlink" x="0px" y="0px"
	 viewBox="0 0 998 650.1" style="enable-background:new 0 0 998 650.1;" xml:space="preserve">
<style type="text/css">
	.st0{fill:#243B98;}
	.st1{fill:#FBF9F7;}
</style>
<g>
	<path class="st0" d="M696.7,0C863.1,0,998,145.5,998,325s-134.9,325-301.3,325H0V0H696.7z"/>
	<g>
		<g>
			<path class="st1" d="M72,130.8l-2.2,3c-2.7-2.6-4.7-3.5-9-3.5c-5.9,0-10-4.6-10-13.2c0-8.5,4.1-13.4,10.1-13.4
				c6,0,10.1,4.7,10.1,13.4c0,6.3-2.1,9.5-5.5,11.4C68.3,128.4,70.3,129.5,72,130.8z M60.9,127.4c4,0,6.6-2.9,6.6-10.4
				c0-7.4-2.5-10.5-6.6-10.5c-4,0-6.6,3-6.6,10.5C54.3,124.5,57,127.4,60.9,127.4z"/>
			<path class="st1" d="M89.8,129.9h-2.7l-0.2-3.1c-1.4,2.4-3.1,3.5-5.7,3.5c-3.2,0-5.1-2.2-5.1-6v-14.2h3.2v13.8
				c0,2.7,0.8,3.7,2.8,3.7c2,0,3.5-1.4,4.6-3.4v-14.1h3.2V129.9z"/>
			<path class="st1" d="M100.3,103c0,1.3-0.9,2.3-2.3,2.3c-1.3,0-2.2-1-2.2-2.3c0-1.4,0.9-2.4,2.2-2.4
				C99.4,100.7,100.3,101.7,100.3,103z M99.6,129.9h-3.2v-19.8h3.2V129.9z"/>
			<path class="st1" d="M120,121.2h-11.7c0.3,4.6,2.3,6.3,4.9,6.3c1.8,0,3.2-0.5,4.8-1.7l1.4,2.1c-1.8,1.5-3.9,2.5-6.4,2.5
				c-5.1,0-8.1-3.9-8.1-10.1c0-6.2,2.9-10.5,7.6-10.5c4.9,0,7.5,3.7,7.5,9.7C120.1,120.1,120.1,120.8,120,121.2z M116.9,118.4
				c0-3.9-1.4-6-4.3-6c-2.4,0-4,1.8-4.3,6.2h8.6V118.4z"/>
			<path class="st1" d="M139.2,115.7v14.2H136v-13.7c0-3-1.1-3.8-2.9-3.8c-2.1,0-3.4,1.4-4.7,3.5v14h-3.2v-19.8h2.7l0.3,2.9
				c1.2-2,3.2-3.4,5.6-3.4C137.2,109.7,139.2,112,139.2,115.7z"/>
			<path class="st1" d="M166,111.9l-1.4,2.2c-1.6-1.1-3.1-1.7-4.8-1.7c-2.1,0-3.4,1-3.4,2.6c0,1.6,1,2.4,3.9,3.2
				c3.9,1,6.1,2.7,6.1,6.2c0,4.1-3.5,6-7.2,6c-3.1,0-5.3-1.1-6.9-2.6l1.7-2.1c1.5,1.2,3.2,1.9,5.1,1.9c2.4,0,3.9-1.1,3.9-3
				c0-2-0.9-2.7-4.5-3.7c-4-1.1-5.5-3-5.5-5.7c0-3.1,2.8-5.4,6.6-5.4C162.4,109.7,164.3,110.5,166,111.9z"/>
			<path class="st1" d="M184.7,129.9h-2.7l-0.2-3.1c-1.4,2.4-3.1,3.5-5.7,3.5c-3.2,0-5.1-2.2-5.1-6v-14.2h3.2v13.8
				c0,2.7,0.8,3.7,2.8,3.7c2,0,3.5-1.4,4.6-3.4v-14.1h3.2V129.9z"/>
			<path class="st1" d="M202.5,111.9l-1.4,2.2c-1.6-1.1-3.1-1.7-4.8-1.7c-2.1,0-3.4,1-3.4,2.6c0,1.6,1,2.4,3.9,3.2
				c3.9,1,6.1,2.7,6.1,6.2c0,4.1-3.5,6-7.2,6c-3.1,0-5.3-1.1-6.9-2.6l1.7-2.1c1.5,1.2,3.2,1.9,5.1,1.9c2.4,0,3.9-1.1,3.9-3
				c0-2-0.9-2.7-4.5-3.7c-4-1.1-5.5-3-5.5-5.7c0-3.1,2.8-5.4,6.6-5.4C198.9,109.7,200.8,110.5,202.5,111.9z"/>
			<path class="st1" d="M219.8,111.8l-1.5,2.2c-1.3-1-2.4-1.5-3.9-1.5c-2.9,0-4.7,2.4-4.7,7.6c0,5.2,1.8,7.3,4.7,7.3
				c1.5,0,2.6-0.5,4-1.5l1.5,2.2c-1.6,1.4-3.5,2.2-5.6,2.2c-4.9,0-8-3.8-8-10.2c0-6.3,3-10.5,8-10.5
				C216.4,109.7,218.1,110.3,219.8,111.8z"/>
			<path class="st1" d="M234,109.9l-0.6,3.4c-0.6-0.1-0.9-0.2-1.6-0.2c-2.3,0-3.6,1.8-4.4,5.5v11.3h-3.2v-19.8h2.7l0.3,4
				c1-3,2.7-4.5,4.9-4.5C232.7,109.7,233.4,109.8,234,109.9z"/>
			<path class="st1" d="M241.4,103c0,1.3-0.9,2.3-2.3,2.3c-1.3,0-2.2-1-2.2-2.3c0-1.4,0.9-2.4,2.2-2.4
				C240.5,100.7,241.4,101.7,241.4,103z M240.8,129.9h-3.2v-19.8h3.2V129.9z"/>
			<path class="st1" d="M262.6,120c0,6.2-2.7,10.3-7.2,10.3c-2,0-3.6-1-4.9-2.6l-0.3,2.2h-2.8v-27.7l3.2-0.4v10.8
				c1.2-1.8,3-2.9,5.2-2.9C259.9,109.7,262.6,113.4,262.6,120z M259.2,120c0-5.6-1.7-7.6-4.3-7.6c-2,0-3.3,1.5-4.3,3.1v9.5
				c0.9,1.6,2.4,2.7,4,2.7C257.3,127.6,259.2,125.4,259.2,120z"/>
			<path class="st1" d="M281.9,121.2h-11.7c0.3,4.6,2.3,6.3,4.9,6.3c1.8,0,3.2-0.5,4.8-1.7l1.4,2.1c-1.8,1.5-3.9,2.5-6.4,2.5
				c-5.1,0-8.1-3.9-8.1-10.1c0-6.2,2.9-10.5,7.6-10.5c4.9,0,7.5,3.7,7.5,9.7C281.9,120.1,281.9,120.8,281.9,121.2z M278.8,118.4
				c0-3.9-1.4-6-4.3-6c-2.4,0-4,1.8-4.3,6.2h8.6V118.4z"/>
			<path class="st1" d="M290.3,127.7c0,0.8-0.2,1.6-0.6,2.7l-2.3,5.7h-2.3l1.4-6.2c-0.6-0.5-1-1.3-1-2.2c0-1.4,1-2.6,2.4-2.6
				C289.3,125.1,290.3,126.3,290.3,127.7z"/>
			<path class="st1" d="M318.5,128l-0.7,2.4c-1.8-0.2-3-1-3.6-3c-1.3,2.1-3.2,3-5.5,3c-3.7,0-5.8-2.4-5.8-6c0-4.2,3-6.5,8.1-6.5h2.8
				v-1.5c0-2.9-1.3-3.9-3.8-3.9c-1.4,0-3.1,0.4-4.9,1l-0.8-2.5c2.3-0.9,4.3-1.4,6.3-1.4c4.4,0,6.4,2.4,6.4,6.6v9
				C317,127,317.5,127.6,318.5,128z M313.8,124.7v-4.5h-2.4c-3.4,0-5.1,1.4-5.1,4c0,2.3,1.1,3.6,3.2,3.6
				C311.3,127.8,312.7,126.8,313.8,124.7z"/>
			<path class="st1" d="M338.3,111c-1.5,0.5-3.3,0.6-5.4,0.6c2.2,1.1,3.2,2.7,3.2,5c0,3.9-2.6,6.7-7,6.7c-0.8,0-1.6-0.1-2.3-0.4
				c-0.5,0.4-0.9,1.1-0.9,1.8c0,0.9,0.5,1.6,2.4,1.6h2.9c3.8,0,6.3,2.3,6.3,5.5c0,3.8-2.9,6-8.6,6c-6,0-7.9-2-7.9-6h2.9
				c0,2.2,0.9,3.3,5,3.3c4,0,5.4-1.1,5.4-3.1c0-1.9-1.4-2.8-3.7-2.8h-2.9c-3.3,0-4.7-1.8-4.7-3.8c0-1.3,0.7-2.5,2-3.5
				c-2.1-1.2-3.1-2.9-3.1-5.5c0-4.1,3-6.9,7.1-6.9c4.6,0.1,6.2-0.7,8.4-1.8L338.3,111z M325.2,116.6c0,2.6,1.4,4.5,3.9,4.5
				c2.5,0,3.9-1.7,3.9-4.5c0-2.9-1.3-4.4-3.9-4.4C326.5,112.2,325.2,114,325.2,116.6z"/>
			<path class="st1" d="M351.4,109.9l-0.6,3.4c-0.6-0.1-0.9-0.2-1.6-0.2c-2.3,0-3.6,1.8-4.4,5.5v11.3h-3.2v-19.8h2.8l0.3,4
				c1-3,2.7-4.5,4.9-4.5C350.2,109.7,350.8,109.8,351.4,109.9z"/>
			<path class="st1" d="M368.9,128l-0.7,2.4c-1.8-0.2-3-1-3.6-3c-1.3,2.1-3.2,3-5.5,3c-3.7,0-5.8-2.4-5.8-6c0-4.2,3-6.5,8.1-6.5h2.8
				v-1.5c0-2.9-1.3-3.9-3.8-3.9c-1.4,0-3.1,0.4-4.9,1l-0.8-2.5c2.3-0.9,4.3-1.4,6.3-1.4c4.4,0,6.4,2.4,6.4,6.6v9
				C367.4,127,368,127.6,368.9,128z M364.2,124.7v-4.5h-2.4c-3.4,0-5.1,1.4-5.1,4c0,2.3,1.1,3.6,3.2,3.6
				C361.8,127.8,363.2,126.8,364.2,124.7z"/>
			<path class="st1" d="M388.2,102.2v27.7h-2.8l-0.3-2.7c-1.2,2-3,3.2-5.3,3.2c-4.5,0-6.9-4.1-6.9-10.2c0-6,2.7-10.4,7.2-10.4
				c2.2,0,3.7,1,4.9,2.4v-10.4L388.2,102.2z M385,124.7V115c-1.1-1.6-2.4-2.6-4.2-2.6c-2.7,0-4.5,2.5-4.5,7.6c0,5.2,1.5,7.6,4.2,7.6
				C382.5,127.6,383.8,126.5,385,124.7z"/>
			<path class="st1" d="M408.6,121.2h-11.7c0.3,4.6,2.3,6.3,4.9,6.3c1.8,0,3.2-0.5,4.8-1.7l1.4,2.1c-1.8,1.5-3.9,2.5-6.4,2.5
				c-5.1,0-8.1-3.9-8.1-10.1c0-6.2,2.9-10.5,7.6-10.5c4.9,0,7.5,3.7,7.5,9.7C408.6,120.1,408.6,120.8,408.6,121.2z M405.5,118.4
				c0-3.9-1.4-6-4.3-6c-2.4,0-4,1.8-4.3,6.2h8.6V118.4z"/>
			<path class="st1" d="M426,111.8l-1.5,2.2c-1.3-1-2.4-1.5-3.9-1.5c-2.9,0-4.7,2.4-4.7,7.6c0,5.2,1.8,7.3,4.7,7.3
				c1.5,0,2.6-0.5,4-1.5l1.5,2.2c-1.6,1.4-3.5,2.2-5.6,2.2c-4.9,0-8-3.8-8-10.2c0-6.3,3-10.5,8-10.5
				C422.6,109.7,424.3,110.3,426,111.8z"/>
			<path class="st1" d="M444.1,121.2h-11.7c0.3,4.6,2.3,6.3,4.9,6.3c1.8,0,3.2-0.5,4.8-1.7l1.4,2.1c-1.8,1.5-3.9,2.5-6.4,2.5
				c-5.1,0-8.1-3.9-8.1-10.1c0-6.2,2.9-10.5,7.6-10.5c4.9,0,7.5,3.7,7.5,9.7C444.2,120.1,444.2,120.8,444.1,121.2z M441,118.4
				c0-3.9-1.4-6-4.3-6c-2.4,0-4,1.8-4.3,6.2h8.6V118.4z"/>
			<path class="st1" d="M472.4,128l-0.7,2.4c-1.8-0.2-3-1-3.6-3c-1.3,2.1-3.2,3-5.5,3c-3.7,0-5.8-2.4-5.8-6c0-4.2,3-6.5,8.1-6.5h2.8
				v-1.5c0-2.9-1.3-3.9-3.8-3.9c-1.4,0-3.1,0.4-4.9,1l-0.8-2.5c2.3-0.9,4.3-1.4,6.3-1.4c4.4,0,6.4,2.4,6.4,6.6v9
				C470.9,127,471.5,127.6,472.4,128z M467.7,124.7v-4.5h-2.4c-3.4,0-5.1,1.4-5.1,4c0,2.3,1.1,3.6,3.2,3.6
				C465.3,127.8,466.7,126.8,467.7,124.7z"/>
			<path class="st1" d="M486.5,126v-23.8l3.2-0.4v24.2c0,1,0.3,1.6,1.1,1.6c0.5,0,0.8-0.1,1.2-0.2l0.8,2.4c-0.7,0.4-1.6,0.7-2.5,0.7
				C488,130.4,486.5,128.8,486.5,126z"/>
			<path class="st1" d="M510.8,128l-0.7,2.4c-1.8-0.2-3-1-3.6-3c-1.3,2.1-3.2,3-5.5,3c-3.7,0-5.8-2.4-5.8-6c0-4.2,3-6.5,8.1-6.5h2.8
				v-1.5c0-2.9-1.3-3.9-3.8-3.9c-1.4,0-3.1,0.4-4.9,1l-0.8-2.5c2.3-0.9,4.3-1.4,6.3-1.4c4.4,0,6.4,2.4,6.4,6.6v9
				C509.2,127,509.8,127.6,510.8,128z M506,124.7v-4.5h-2.4c-3.4,0-5.1,1.4-5.1,4c0,2.3,1.1,3.6,3.2,3.6
				C503.6,127.8,505,126.8,506,124.7z"/>
			<path class="st1" d="M527,111.9l-1.4,2.2c-1.6-1.1-3.1-1.7-4.8-1.7c-2.1,0-3.4,1-3.4,2.6c0,1.6,1,2.4,3.9,3.2
				c3.9,1,6.1,2.7,6.1,6.2c0,4.1-3.5,6-7.2,6c-3.1,0-5.3-1.1-6.9-2.6l1.7-2.1c1.5,1.2,3.2,1.9,5.1,1.9c2.4,0,3.9-1.1,3.9-3
				c0-2-0.9-2.7-4.5-3.7c-4-1.1-5.5-3-5.5-5.7c0-3.1,2.8-5.4,6.6-5.4C523.4,109.7,525.3,110.5,527,111.9z"/>
			<path class="st1" d="M555.2,128l-0.7,2.4c-1.8-0.2-3-1-3.6-3c-1.3,2.1-3.2,3-5.5,3c-3.7,0-5.8-2.4-5.8-6c0-4.2,3-6.5,8.1-6.5h2.8
				v-1.5c0-2.9-1.3-3.9-3.8-3.9c-1.4,0-3.1,0.4-4.9,1l-0.8-2.5c2.3-0.9,4.3-1.4,6.3-1.4c4.4,0,6.4,2.4,6.4,6.6v9
				C553.6,127,554.2,127.6,555.2,128z M550.4,124.7v-4.5H548c-3.4,0-5.1,1.4-5.1,4c0,2.3,1.1,3.6,3.2,3.6
				C548,127.8,549.4,126.8,550.4,124.7z"/>
			<path class="st1" d="M573.8,129.9h-2.8l-0.2-3.1c-1.4,2.4-3.1,3.5-5.7,3.5c-3.2,0-5.1-2.2-5.1-6v-14.2h3.2v13.8
				c0,2.7,0.8,3.7,2.8,3.7c2,0,3.5-1.4,4.6-3.4v-14.1h3.2V129.9z"/>
			<path class="st1" d="M589.7,129c-1.2,0.9-2.5,1.4-4.1,1.4c-3.1,0-4.9-1.9-4.9-5.6v-11.9h-3.2v-2.7h3.2v-4.5l3.2-0.4v4.9h4.3
				l-0.4,2.7h-4v11.8c0,2,0.6,2.9,2.2,2.9c0.8,0,1.5-0.3,2.4-0.8L589.7,129z"/>
			<path class="st1" d="M608,120c0,6.1-3,10.3-8.2,10.3c-5.2,0-8.2-4-8.2-10.3c0-6.1,3-10.3,8.2-10.3S608,113.7,608,120z M595.1,120
				c0,5.1,1.7,7.5,4.7,7.5c3.1,0,4.7-2.4,4.7-7.6c0-5.1-1.7-7.5-4.7-7.5C596.8,112.5,595.1,114.9,595.1,120z"/>
			<path class="st1" d="M623.1,109.9l-0.6,3.4c-0.6-0.1-0.9-0.2-1.6-0.2c-2.3,0-3.6,1.8-4.4,5.5v11.3h-3.2v-19.8h2.8l0.3,4
				c1-3,2.7-4.5,4.9-4.5C621.9,109.7,622.6,109.8,623.1,109.9z"/>
			<path class="st1" d="M630.6,103c0,1.3-0.9,2.3-2.3,2.3c-1.3,0-2.2-1-2.2-2.3c0-1.4,0.9-2.4,2.2-2.4
				C629.7,100.7,630.6,101.7,630.6,103z M630,129.9h-3.2v-19.8h3.2V129.9z"/>
			<path class="st1" d="M650.8,102.2v27.7h-2.8l-0.3-2.7c-1.2,2-3,3.2-5.3,3.2c-4.5,0-6.9-4.1-6.9-10.2c0-6,2.7-10.4,7.2-10.4
				c2.2,0,3.7,1,4.9,2.4v-10.4L650.8,102.2z M647.6,124.7V115c-1.1-1.6-2.4-2.6-4.2-2.6c-2.8,0-4.5,2.5-4.5,7.6
				c0,5.2,1.5,7.6,4.2,7.6C645.1,127.6,646.3,126.5,647.6,124.7z"/>
			<path class="st1" d="M671.2,128l-0.7,2.4c-1.8-0.2-3-1-3.6-3c-1.3,2.1-3.2,3-5.5,3c-3.7,0-5.8-2.4-5.8-6c0-4.2,3-6.5,8.1-6.5h2.8
				v-1.5c0-2.9-1.3-3.9-3.8-3.9c-1.4,0-3.1,0.4-4.9,1L657,111c2.3-0.9,4.3-1.4,6.3-1.4c4.4,0,6.4,2.4,6.4,6.6v9
				C669.7,127,670.3,127.6,671.2,128z M666.5,124.7v-4.5h-2.4c-3.4,0-5.1,1.4-5.1,4c0,2.3,1.1,3.6,3.2,3.6
				C664.1,127.8,665.5,126.8,666.5,124.7z"/>
			<path class="st1" d="M690.5,102.2v27.7h-2.8l-0.3-2.7c-1.2,2-3,3.2-5.3,3.2c-4.5,0-6.9-4.1-6.9-10.2c0-6,2.7-10.4,7.2-10.4
				c2.2,0,3.7,1,4.9,2.4v-10.4L690.5,102.2z M687.3,124.7V115c-1.1-1.6-2.4-2.6-4.2-2.6c-2.8,0-4.5,2.5-4.5,7.6
				c0,5.2,1.5,7.6,4.2,7.6C684.8,127.6,686.1,126.5,687.3,124.7z"/>
			<path class="st1" d="M710.9,121.2h-11.7c0.3,4.6,2.3,6.3,4.9,6.3c1.8,0,3.2-0.5,4.8-1.7l1.4,2.1c-1.8,1.5-3.9,2.5-6.4,2.5
				c-5.1,0-8.1-3.9-8.1-10.1c0-6.2,2.9-10.5,7.6-10.5c4.9,0,7.5,3.7,7.5,9.7C710.9,120.1,710.9,120.8,710.9,121.2z M707.8,118.4
				c0-3.9-1.4-6-4.3-6c-2.4,0-4,1.8-4.3,6.2h8.6V118.4z"/>
			<path class="st1" d="M727.3,111.9l-1.4,2.2c-1.6-1.1-3.1-1.7-4.8-1.7c-2.1,0-3.4,1-3.4,2.6c0,1.6,1,2.4,3.9,3.2
				c3.9,1,6.1,2.7,6.1,6.2c0,4.1-3.5,6-7.2,6c-3.1,0-5.3-1.1-6.9-2.6l1.7-2.1c1.5,1.2,3.2,1.9,5.1,1.9c2.4,0,3.9-1.1,3.9-3
				c0-2-0.9-2.7-4.5-3.7c-4-1.1-5.5-3-5.5-5.7c0-3.1,2.8-5.4,6.6-5.4C723.6,109.7,725.5,110.5,727.3,111.9z"/>
			<path class="st1" d="M64.4,156.9l-1.5,2.2c-1.3-1-2.4-1.5-3.9-1.5c-2.9,0-4.7,2.4-4.7,7.6c0,5.2,1.8,7.3,4.7,7.3
				c1.5,0,2.6-0.5,4-1.5l1.5,2.2c-1.6,1.4-3.5,2.2-5.6,2.2c-4.9,0-8-3.8-8-10.2c0-6.3,3-10.5,8-10.5C61,154.7,62.7,155.3,64.4,156.9
				z"/>
			<path class="st1" d="M72.6,148.1c0,1.3-0.9,2.3-2.3,2.3c-1.3,0-2.2-1-2.2-2.3c0-1.4,0.9-2.4,2.2-2.4
				C71.7,145.7,72.6,146.7,72.6,148.1z M72,174.9h-3.2v-19.8H72V174.9z"/>
			<path class="st1" d="M85.8,174.9H82l-6.3-19.8h3.5l4.8,16.7l4.8-16.7H92L85.8,174.9z"/>
			<path class="st1" d="M99.5,148.1c0,1.3-0.9,2.3-2.3,2.3c-1.3,0-2.2-1-2.2-2.3c0-1.4,0.9-2.4,2.2-2.4
				C98.6,145.7,99.5,146.7,99.5,148.1z M98.9,174.9h-3.2v-19.8h3.2V174.9z"/>
			<path class="st1" d="M105.3,171v-23.8l3.2-0.4V171c0,1,0.3,1.6,1.1,1.6c0.5,0,0.8-0.1,1.2-0.2l0.8,2.4c-0.7,0.4-1.6,0.7-2.5,0.7
				C106.8,175.4,105.3,173.8,105.3,171z"/>
			<path class="st1" d="M129.5,166.2h-11.7c0.3,4.6,2.3,6.3,4.9,6.3c1.8,0,3.2-0.5,4.8-1.7l1.4,2.1c-1.8,1.5-3.9,2.5-6.4,2.5
				c-5.1,0-8.1-3.9-8.1-10.1c0-6.2,2.9-10.5,7.6-10.5c4.9,0,7.5,3.7,7.5,9.7C129.5,165.2,129.5,165.8,129.5,166.2z M126.4,163.5
				c0-3.9-1.4-6-4.3-6c-2.4,0-4,1.8-4.3,6.2h8.6V163.5z"/>
			<path class="st1" d="M145.9,157l-1.4,2.2c-1.6-1.1-3.1-1.7-4.8-1.7c-2.1,0-3.4,1-3.4,2.6c0,1.6,1,2.4,3.9,3.2
				c3.9,1,6.1,2.7,6.1,6.2c0,4.1-3.5,6-7.2,6c-3.1,0-5.3-1.1-6.9-2.6l1.7-2.1c1.5,1.2,3.2,1.9,5.1,1.9c2.4,0,3.9-1.1,3.9-3
				c0-2-0.9-2.7-4.5-3.7c-4-1.1-5.5-3-5.5-5.7c0-3.1,2.8-5.4,6.6-5.4C142.2,154.7,144.1,155.6,145.9,157z"/>
			<path class="st1" d="M167.5,175.1c-1.3,4.2-3.4,7.3-8.5,7.9l-0.4-2.7c3.7-0.7,4.8-2.2,5.8-5.3h-1.1l-6.2-19.8h3.4l4.9,17.2
				l4.8-17.2h3.3L167.5,175.1z"/>
			<path class="st1" d="M209.8,160.8v14.2h-3.2v-13.7c0-3-1.2-3.8-2.6-3.8c-2,0-3.1,1.4-4.3,3.5v14h-3.2v-13.7c0-3-1.2-3.8-2.6-3.8
				c-2,0-3.1,1.4-4.3,3.5v14h-3.2v-19.8h2.8l0.3,2.9c1.2-2,2.9-3.3,5.3-3.3c2.3,0,3.9,1.3,4.6,3.6c1.3-2.1,3-3.6,5.5-3.6
				C207.9,154.7,209.8,157,209.8,160.8z"/>
			<path class="st1" d="M220.1,148.1c0,1.3-0.9,2.3-2.3,2.3c-1.3,0-2.2-1-2.2-2.3c0-1.4,0.9-2.4,2.2-2.4
				C219.2,145.7,220.1,146.7,220.1,148.1z M219.5,174.9h-3.2v-19.8h3.2V174.9z"/>
			<path class="st1" d="M225.9,171v-23.8l3.2-0.4V171c0,1,0.3,1.6,1.1,1.6c0.5,0,0.8-0.1,1.2-0.2l0.8,2.4c-0.7,0.4-1.6,0.7-2.5,0.7
				C227.4,175.4,225.9,173.8,225.9,171z"/>
			<path class="st1" d="M240.1,148.1c0,1.3-0.9,2.3-2.3,2.3c-1.3,0-2.2-1-2.2-2.3c0-1.4,0.9-2.4,2.2-2.4
				C239.2,145.7,240.1,146.7,240.1,148.1z M239.5,174.9h-3.2v-19.8h3.2V174.9z"/>
			<path class="st1" d="M255.3,174c-1.2,0.9-2.5,1.4-4.1,1.4c-3.1,0-4.9-1.9-4.9-5.6v-11.9h-3.2v-2.7h3.2v-4.5l3.2-0.4v4.9h4.3
				l-0.4,2.7h-4v11.8c0,2,0.6,2.9,2.2,2.9c0.8,0,1.5-0.3,2.4-0.8L255.3,174z"/>
			<path class="st1" d="M272.5,173l-0.7,2.4c-1.8-0.2-3-1-3.6-3c-1.3,2.1-3.2,3-5.5,3c-3.7,0-5.8-2.4-5.8-6c0-4.2,3-6.5,8.1-6.5h2.8
				v-1.5c0-2.9-1.3-3.9-3.8-3.9c-1.4,0-3.1,0.4-4.9,1l-0.8-2.5c2.3-0.9,4.3-1.4,6.3-1.4c4.4,0,6.4,2.4,6.4,6.6v9
				C271,172.1,271.6,172.6,272.5,173z M267.8,169.7v-4.5h-2.4c-3.4,0-5.1,1.3-5.1,4c0,2.3,1.1,3.6,3.2,3.6
				C265.4,172.8,266.7,171.8,267.8,169.7z"/>
			<path class="st1" d="M287.3,154.9l-0.6,3.4c-0.6-0.1-0.9-0.2-1.6-0.2c-2.3,0-3.6,1.8-4.4,5.5v11.3h-3.2v-19.8h2.8l0.3,4
				c1-3,2.7-4.5,4.9-4.5C286.1,154.7,286.8,154.8,287.3,154.9z"/>
			<path class="st1" d="M304.8,166.2h-11.7c0.3,4.6,2.3,6.3,4.9,6.3c1.8,0,3.2-0.5,4.8-1.7l1.4,2.1c-1.8,1.5-3.9,2.5-6.4,2.5
				c-5.1,0-8.1-3.9-8.1-10.1c0-6.2,2.9-10.5,7.6-10.5c4.9,0,7.5,3.7,7.5,9.7C304.8,165.2,304.8,165.8,304.8,166.2z M301.7,163.5
				c0-3.9-1.4-6-4.3-6c-2.4,0-4,1.8-4.3,6.2h8.6V163.5z"/>
			<path class="st1" d="M321.2,157l-1.4,2.2c-1.6-1.1-3.1-1.7-4.8-1.7c-2.1,0-3.4,1-3.4,2.6c0,1.6,1,2.4,3.9,3.2
				c3.9,1,6.1,2.7,6.1,6.2c0,4.1-3.5,6-7.2,6c-3.1,0-5.3-1.1-6.9-2.6l1.7-2.1c1.5,1.2,3.2,1.9,5.1,1.9c2.4,0,3.9-1.1,3.9-3
				c0-2-0.9-2.7-4.5-3.7c-4-1.1-5.5-3-5.5-5.7c0-3.1,2.8-5.4,6.6-5.4C317.5,154.7,319.4,155.6,321.2,157z"/>
			<path class="st1" d="M329.5,172.8c0,0.8-0.2,1.6-0.6,2.7l-2.3,5.7h-2.3l1.4-6.2c-0.6-0.5-1-1.3-1-2.2c0-1.4,1-2.6,2.4-2.6
				C328.4,170.2,329.5,171.3,329.5,172.8z"/>
			<path class="st1" d="M359,165c0,6-2.5,10.3-7.2,10.3c-2,0-3.6-0.7-4.8-2.2v9.4l-3.2,0.4v-27.8h2.8l0.2,2.7c1.4-2,3.3-3.1,5.4-3.1
				C357.1,154.7,359,158.8,359,165z M355.5,165c0-5.1-1.4-7.6-4.1-7.6c-2,0-3.4,1.5-4.4,3.1v9.6c0.9,1.5,2.4,2.4,4,2.4
				C353.9,172.6,355.5,170.2,355.5,165z"/>
			<path class="st1" d="M374.2,154.9l-0.6,3.4c-0.6-0.1-0.9-0.2-1.6-0.2c-2.3,0-3.6,1.8-4.4,5.5v11.3h-3.2v-19.8h2.8l0.3,4
				c1-3,2.7-4.5,4.9-4.5C373,154.7,373.7,154.8,374.2,154.9z"/>
			<path class="st1" d="M391.6,166.2h-11.7c0.3,4.6,2.3,6.3,4.9,6.3c1.8,0,3.2-0.5,4.8-1.7l1.4,2.1c-1.8,1.5-3.9,2.5-6.4,2.5
				c-5.1,0-8.1-3.9-8.1-10.1c0-6.2,2.9-10.5,7.6-10.5c4.9,0,7.5,3.7,7.5,9.7C391.7,165.2,391.7,165.8,391.6,166.2z M388.5,163.5
				c0-3.9-1.4-6-4.3-6c-2.4,0-4,1.8-4.3,6.2h8.6V163.5z"/>
			<path class="st1" d="M408,157l-1.4,2.2c-1.6-1.1-3.1-1.7-4.8-1.7c-2.1,0-3.4,1-3.4,2.6c0,1.6,1,2.4,3.9,3.2
				c3.9,1,6.1,2.7,6.1,6.2c0,4.1-3.5,6-7.2,6c-3.1,0-5.3-1.1-6.9-2.6l1.7-2.1c1.5,1.2,3.2,1.9,5.1,1.9c2.4,0,3.9-1.1,3.9-3
				c0-2-0.9-2.7-4.5-3.7c-4-1.1-5.5-3-5.5-5.7c0-3.1,2.8-5.4,6.6-5.4C404.4,154.7,406.3,155.6,408,157z"/>
			<path class="st1" d="M422.3,174c-1.2,0.9-2.5,1.4-4.1,1.4c-3.1,0-4.9-1.9-4.9-5.6v-11.9h-3.2v-2.7h3.2v-4.5l3.2-0.4v4.9h4.3
				l-0.4,2.7h-4v11.8c0,2,0.6,2.9,2.2,2.9c0.8,0,1.5-0.3,2.4-0.8L422.3,174z"/>
			<path class="st1" d="M439.5,173l-0.7,2.4c-1.8-0.2-3-1-3.6-3c-1.3,2.1-3.2,3-5.5,3c-3.7,0-5.8-2.4-5.8-6c0-4.2,3-6.5,8.1-6.5h2.8
				v-1.5c0-2.9-1.3-3.9-3.8-3.9c-1.4,0-3.1,0.4-4.9,1l-0.8-2.5c2.3-0.9,4.3-1.4,6.3-1.4c4.4,0,6.4,2.4,6.4,6.6v9
				C438,172.1,438.6,172.6,439.5,173z M434.8,169.7v-4.5h-2.4c-3.4,0-5.1,1.3-5.1,4c0,2.3,1.1,3.6,3.2,3.6
				C432.3,172.8,433.7,171.8,434.8,169.7z"/>
			<path class="st1" d="M454.3,154.9l-0.6,3.4c-0.6-0.1-0.9-0.2-1.6-0.2c-2.3,0-3.6,1.8-4.4,5.5v11.3h-3.2v-19.8h2.8l0.3,4
				c1-3,2.7-4.5,4.9-4.5C453.1,154.7,453.8,154.8,454.3,154.9z"/>
			<path class="st1" d="M467,171v-23.8l3.2-0.4V171c0,1,0.3,1.6,1.1,1.6c0.5,0,0.8-0.1,1.2-0.2l0.8,2.4c-0.7,0.4-1.6,0.7-2.5,0.7
				C468.5,175.4,467,173.8,467,171z"/>
			<path class="st1" d="M491.3,173l-0.7,2.4c-1.8-0.2-3-1-3.6-3c-1.3,2.1-3.2,3-5.5,3c-3.7,0-5.8-2.4-5.8-6c0-4.2,3-6.5,8.1-6.5h2.8
				v-1.5c0-2.9-1.3-3.9-3.8-3.9c-1.4,0-3.1,0.4-4.9,1l-0.8-2.5c2.3-0.9,4.3-1.4,6.3-1.4c4.4,0,6.4,2.4,6.4,6.6v9
				C489.7,172.1,490.3,172.6,491.3,173z M486.5,169.7v-4.5h-2.4c-3.4,0-5.1,1.3-5.1,4c0,2.3,1.1,3.6,3.2,3.6
				C484.1,172.8,485.5,171.8,486.5,169.7z"/>
			<path class="st1" d="M528.9,160.8v14.2h-3.2v-13.7c0-3-1.2-3.8-2.6-3.8c-2,0-3.1,1.4-4.3,3.5v14h-3.2v-13.7c0-3-1.2-3.8-2.6-3.8
				c-2,0-3.1,1.4-4.3,3.5v14h-3.2v-19.8h2.8l0.3,2.9c1.2-2,2.9-3.3,5.3-3.3c2.3,0,3.9,1.3,4.6,3.6c1.3-2.1,3-3.6,5.5-3.6
				C526.9,154.7,528.9,157,528.9,160.8z"/>
			<path class="st1" d="M549.2,173l-0.7,2.4c-1.8-0.2-3-1-3.6-3c-1.3,2.1-3.2,3-5.5,3c-3.7,0-5.8-2.4-5.8-6c0-4.2,3-6.5,8.1-6.5h2.8
				v-1.5c0-2.9-1.3-3.9-3.8-3.9c-1.4,0-3.1,0.4-4.9,1l-0.8-2.5c2.3-0.9,4.3-1.4,6.3-1.4c4.4,0,6.4,2.4,6.4,6.6v9
				C547.7,172.1,548.3,172.6,549.2,173z M537.9,151l-1-1.8l6.9-4.3l1.4,2.9L537.9,151z M544.5,169.7v-4.5h-2.4c-3.4,0-5.1,1.3-5.1,4
				c0,2.3,1.1,3.6,3.2,3.6C542.1,172.8,543.5,171.8,544.5,169.7z"/>
			<path class="st1" d="M567.7,174.9h-3.9l-4.5-8.4l-4.6,8.4h-3.6l6.4-10.4l-5.7-9.3h3.8l3.8,7.2l3.9-7.2h3.6l-5.6,9.2L567.7,174.9z
				"/>
			<path class="st1" d="M575,148.1c0,1.3-0.9,2.3-2.3,2.3c-1.3,0-2.2-1-2.2-2.3c0-1.4,0.9-2.4,2.2-2.4
				C574.1,145.7,575,146.7,575,148.1z M574.4,174.9h-3.2v-19.8h3.2V174.9z"/>
			<path class="st1" d="M604.3,160.8v14.2h-3.2v-13.7c0-3-1.2-3.8-2.6-3.8c-2,0-3.1,1.4-4.3,3.5v14H591v-13.7c0-3-1.2-3.8-2.6-3.8
				c-2,0-3.1,1.4-4.3,3.5v14H581v-19.8h2.8l0.3,2.9c1.2-2,2.9-3.3,5.3-3.3c2.3,0,3.9,1.3,4.6,3.6c1.3-2.1,3-3.6,5.5-3.6
				C602.3,154.7,604.3,157,604.3,160.8z"/>
			<path class="st1" d="M624.7,173l-0.7,2.4c-1.8-0.2-3-1-3.6-3c-1.3,2.1-3.2,3-5.5,3c-3.7,0-5.8-2.4-5.8-6c0-4.2,3-6.5,8.1-6.5h2.8
				v-1.5c0-2.9-1.3-3.9-3.8-3.9c-1.4,0-3.1,0.4-4.9,1l-0.8-2.5c2.3-0.9,4.3-1.4,6.3-1.4c4.4,0,6.4,2.4,6.4,6.6v9
				C623.1,172.1,623.7,172.6,624.7,173z M619.9,169.7v-4.5h-2.4c-3.4,0-5.1,1.3-5.1,4c0,2.3,1.1,3.6,3.2,3.6
				C617.5,172.8,618.9,171.8,619.9,169.7z"/>
			<path class="st1" d="M651.2,156.9l-1.5,2.2c-1.3-1-2.4-1.5-3.9-1.5c-2.9,0-4.7,2.4-4.7,7.6c0,5.2,1.8,7.3,4.7,7.3
				c1.5,0,2.6-0.5,4-1.5l1.5,2.2c-1.6,1.4-3.5,2.2-5.6,2.2c-4.9,0-8-3.8-8-10.2c0-6.3,3-10.5,8-10.5
				C647.8,154.7,649.5,155.3,651.2,156.9z"/>
			<path class="st1" d="M670.6,165c0,6.1-3,10.3-8.2,10.3c-5.2,0-8.2-4.1-8.2-10.3c0-6.1,3-10.3,8.2-10.3S670.6,158.8,670.6,165z
				 M657.7,165.1c0,5.1,1.7,7.5,4.7,7.5c3.1,0,4.7-2.4,4.7-7.6c0-5.1-1.7-7.5-4.7-7.5C659.4,157.5,657.7,159.9,657.7,165.1z"/>
			<path class="st1" d="M675.7,171v-23.8l3.2-0.4V171c0,1,0.3,1.6,1.1,1.6c0.5,0,0.8-0.1,1.2-0.2l0.8,2.4c-0.7,0.4-1.6,0.7-2.5,0.7
				C677.2,175.4,675.7,173.8,675.7,171z"/>
			<path class="st1" d="M699.9,173l-0.7,2.4c-1.8-0.2-3-1-3.6-3c-1.3,2.1-3.2,3-5.5,3c-3.7,0-5.8-2.4-5.8-6c0-4.2,3-6.5,8.1-6.5h2.8
				v-1.5c0-2.9-1.3-3.9-3.8-3.9c-1.4,0-3.1,0.4-4.9,1l-0.8-2.5c2.3-0.9,4.3-1.4,6.3-1.4c4.4,0,6.4,2.4,6.4,6.6v9
				C698.4,172.1,699,172.6,699.9,173z M695.2,169.7v-4.5h-2.4c-3.4,0-5.1,1.3-5.1,4c0,2.3,1.1,3.6,3.2,3.6
				C692.8,172.8,694.2,171.8,695.2,169.7z"/>
			<path class="st1" d="M720.2,165c0,6.2-2.8,10.3-7.2,10.3c-2,0-3.6-1-4.9-2.6l-0.3,2.2H705v-27.7l3.2-0.4v10.8
				c1.2-1.8,3-2.9,5.2-2.9C717.5,154.7,720.2,158.4,720.2,165z M716.7,165c0-5.6-1.7-7.6-4.3-7.6c-2,0-3.3,1.5-4.3,3.1v9.5
				c0.9,1.6,2.4,2.7,4,2.7C714.9,172.7,716.7,170.4,716.7,165z"/>
			<path class="st1" d="M740.7,165c0,6.1-3,10.3-8.2,10.3c-5.2,0-8.2-4.1-8.2-10.3c0-6.1,3-10.3,8.2-10.3S740.7,158.8,740.7,165z
				 M727.8,165.1c0,5.1,1.7,7.5,4.7,7.5c3.1,0,4.7-2.4,4.7-7.6c0-5.1-1.7-7.5-4.7-7.5C729.5,157.5,727.8,159.9,727.8,165.1z"/>
			<path class="st1" d="M755.7,154.9l-0.6,3.4c-0.6-0.1-0.9-0.2-1.6-0.2c-2.3,0-3.6,1.8-4.4,5.5v11.3H746v-19.8h2.8l0.3,4
				c1-3,2.7-4.5,4.9-4.5C754.5,154.7,755.2,154.8,755.7,154.9z"/>
			<path class="st1" d="M773.3,173l-0.7,2.4c-1.8-0.2-3-1-3.6-3c-1.3,2.1-3.2,3-5.5,3c-3.7,0-5.8-2.4-5.8-6c0-4.2,3-6.5,8.1-6.5h2.8
				v-1.5c0-2.9-1.3-3.9-3.8-3.9c-1.4,0-3.1,0.4-4.9,1l-0.8-2.5c2.3-0.9,4.3-1.4,6.3-1.4c4.4,0,6.4,2.4,6.4,6.6v9
				C771.7,172.1,772.3,172.6,773.3,173z M768.5,169.7v-4.5h-2.4c-3.4,0-5.1,1.3-5.1,4c0,2.3,1.1,3.6,3.2,3.6
				C766.1,172.8,767.5,171.8,768.5,169.7z"/>
			<path class="st1" d="M790.6,156.9l-1.5,2.2c-1.3-1-2.4-1.5-3.9-1.5c-2.9,0-4.7,2.4-4.7,7.6c0,5.2,1.8,7.3,4.7,7.3
				c1.5,0,2.6-0.5,4-1.5l1.5,2.2c-1.6,1.4-3.5,2.2-5.6,2.2c-4.9,0-8-3.8-8-10.2c0-6.3,3-10.5,8-10.5
				C787.2,154.7,788.9,155.3,790.6,156.9z"/>
			<path class="st1" d="M798.8,148.1c0,1.3-0.9,2.3-2.3,2.3c-1.3,0-2.2-1-2.2-2.3c0-1.4,0.9-2.4,2.2-2.4
				C797.9,145.7,798.8,146.7,798.8,148.1z M798.2,174.9H795v-19.8h3.2V174.9z"/>
			<path class="st1" d="M819.8,165c0,6.1-3,10.3-8.2,10.3c-5.2,0-8.2-4.1-8.2-10.3c0-6.1,3-10.3,8.2-10.3S819.8,158.8,819.8,165z
				 M806.9,165.1c0,5.1,1.7,7.5,4.7,7.5c3.1,0,4.7-2.4,4.7-7.6c0-5.1-1.7-7.5-4.7-7.5C808.6,157.5,806.9,159.9,806.9,165.1z
				 M815.8,147.8l-7.4,3.2l-1-1.8l6.9-4.3L815.8,147.8z"/>
			<path class="st1" d="M839,160.8v14.2h-3.2v-13.7c0-3-1.1-3.8-2.9-3.8c-2.1,0-3.4,1.4-4.7,3.5v14h-3.2v-19.8h2.8l0.3,2.9
				c1.2-2,3.2-3.4,5.6-3.4C837.1,154.7,839,157,839,160.8z"/>
			<path class="st1" d="M66,218l-0.7,2.4c-1.8-0.2-3-1-3.6-3c-1.3,2.1-3.2,3-5.5,3c-3.7,0-5.8-2.4-5.8-6c0-4.2,3-6.5,8.1-6.5h2.8
				v-1.5c0-2.9-1.3-3.9-3.8-3.9c-1.4,0-3.1,0.4-4.9,1l-0.8-2.5c2.3-0.9,4.3-1.4,6.3-1.4c4.4,0,6.4,2.4,6.4,6.6v9
				C64.5,217.1,65.1,217.6,66,218z M61.3,214.8v-4.5h-2.4c-3.4,0-5.1,1.4-5.1,4c0,2.3,1.1,3.6,3.2,3.6
				C58.9,217.8,60.2,216.8,61.3,214.8z"/>
			<path class="st1" d="M70.9,216.1v-23.8l3.2-0.4V216c0,1,0.3,1.6,1.1,1.6c0.5,0,0.8-0.1,1.2-0.2l0.8,2.4c-0.7,0.4-1.6,0.7-2.5,0.7
				C72.4,220.4,70.9,218.9,70.9,216.1z"/>
			<path class="st1" d="M99.7,219.1c-1.2,0.9-2.5,1.4-4.1,1.4c-3.1,0-4.9-1.9-4.9-5.6v-11.9h-3.2v-2.7h3.2v-4.5l3.2-0.4v4.9h4.3
				l-0.4,2.7h-4v11.8c0,2,0.6,2.9,2.2,2.9c0.8,0,1.5-0.3,2.4-0.8L99.7,219.1z"/>
			<path class="st1" d="M106.9,193.1c0,1.3-0.9,2.3-2.3,2.3c-1.3,0-2.2-1-2.2-2.3c0-1.4,0.9-2.4,2.2-2.4
				C106,190.7,106.9,191.7,106.9,193.1z M106.2,220H103v-19.8h3.2V220z"/>
			<path class="st1" d="M122.1,219.1c-1.2,0.9-2.5,1.4-4.1,1.4c-3.1,0-4.9-1.9-4.9-5.6v-11.9h-3.2v-2.7h3.2v-4.5l3.2-0.4v4.9h4.3
				l-0.4,2.7h-4v11.8c0,2,0.6,2.9,2.2,2.9c0.8,0,1.5-0.3,2.4-0.8L122.1,219.1z"/>
			<path class="st1" d="M139,220h-2.7l-0.2-3.1c-1.4,2.4-3.1,3.5-5.7,3.5c-3.2,0-5.1-2.2-5.1-6v-14.2h3.2V214c0,2.7,0.8,3.7,2.8,3.7
				c2,0,3.5-1.4,4.6-3.4v-14.1h3.2V220z"/>
			<path class="st1" d="M145.5,216.1v-23.8l3.2-0.4V216c0,1,0.3,1.6,1.1,1.6c0.5,0,0.8-0.1,1.2-0.2l0.8,2.4
				c-0.7,0.4-1.6,0.7-2.5,0.7C147,220.4,145.5,218.9,145.5,216.1z"/>
			<path class="st1" d="M169.7,218l-0.7,2.4c-1.8-0.2-3-1-3.6-3c-1.3,2.1-3.2,3-5.5,3c-3.7,0-5.8-2.4-5.8-6c0-4.2,3-6.5,8.1-6.5h2.8
				v-1.5c0-2.9-1.3-3.9-3.8-3.9c-1.4,0-3.1,0.4-4.9,1l-0.8-2.5c2.3-0.9,4.3-1.4,6.3-1.4c4.4,0,6.4,2.4,6.4,6.6v9
				C168.2,217.1,168.8,217.6,169.7,218z M165,214.8v-4.5h-2.4c-3.4,0-5.1,1.4-5.1,4c0,2.3,1.1,3.6,3.2,3.6
				C162.6,217.8,164,216.8,165,214.8z"/>
			<path class="st1" d="M184.6,200l-0.6,3.4c-0.6-0.1-0.9-0.2-1.6-0.2c-2.3,0-3.6,1.8-4.4,5.5V220h-3.2v-19.8h2.8l0.3,4
				c1-3,2.7-4.5,4.9-4.5C183.3,199.8,184,199.8,184.6,200z"/>
			<path class="st1" d="M211.6,192.3V220h-2.8l-0.3-2.7c-1.2,2-3,3.2-5.3,3.2c-4.5,0-6.9-4.1-6.9-10.2c0-6,2.7-10.4,7.2-10.4
				c2.2,0,3.7,1,4.9,2.4v-10.4L211.6,192.3z M208.4,214.8v-9.7c-1.1-1.6-2.4-2.6-4.2-2.6c-2.7,0-4.5,2.5-4.5,7.6
				c0,5.2,1.5,7.6,4.2,7.6C205.9,217.7,207.2,216.6,208.4,214.8z"/>
			<path class="st1" d="M232,211.3h-11.7c0.3,4.6,2.3,6.3,4.9,6.3c1.8,0,3.2-0.5,4.8-1.7l1.4,2.1c-1.8,1.5-3.9,2.5-6.4,2.5
				c-5.1,0-8.1-3.9-8.1-10.1c0-6.2,2.9-10.5,7.6-10.5c4.9,0,7.5,3.7,7.5,9.7C232.1,210.2,232,210.8,232,211.3z M228.9,208.5
				c0-3.9-1.4-6-4.3-6c-2.4,0-4,1.8-4.3,6.2h8.6V208.5z"/>
			<path class="st1" d="M260.2,211.3h-11.7c0.3,4.6,2.3,6.3,4.9,6.3c1.8,0,3.2-0.5,4.8-1.7l1.4,2.1c-1.8,1.5-3.9,2.5-6.4,2.5
				c-5.1,0-8.1-3.9-8.1-10.1c0-6.2,2.9-10.5,7.6-10.5c4.9,0,7.5,3.7,7.5,9.7C260.3,210.2,260.2,210.8,260.2,211.3z M257.1,208.5
				c0-3.9-1.4-6-4.3-6c-2.4,0-4,1.8-4.3,6.2h8.6V208.5z"/>
			<path class="st1" d="M276.6,202l-1.4,2.2c-1.6-1.1-3.1-1.7-4.8-1.7c-2.1,0-3.4,1-3.4,2.6c0,1.6,1,2.4,3.9,3.2
				c3.9,1,6.1,2.7,6.1,6.2c0,4.1-3.5,6-7.2,6c-3.1,0-5.3-1.1-6.9-2.6l1.7-2.1c1.5,1.2,3.2,1.9,5.1,1.9c2.4,0,3.9-1.1,3.9-3
				c0-2-0.9-2.7-4.5-3.7c-4-1.1-5.5-3-5.5-5.7c0-3.1,2.8-5.4,6.6-5.4C272.9,199.8,274.8,200.6,276.6,202z"/>
			<path class="st1" d="M290.9,219.1c-1.2,0.9-2.5,1.4-4.1,1.4c-3.1,0-4.9-1.9-4.9-5.6v-11.9h-3.2v-2.7h3.2v-4.5l3.2-0.4v4.9h4.3
				l-0.4,2.7h-4v11.8c0,2,0.6,2.9,2.2,2.9c0.8,0,1.5-0.3,2.4-0.8L290.9,219.1z"/>
			<path class="st1" d="M308.1,218l-0.7,2.4c-1.8-0.2-3-1-3.6-3c-1.3,2.1-3.2,3-5.5,3c-3.7,0-5.8-2.4-5.8-6c0-4.2,3-6.5,8.1-6.5h2.8
				v-1.5c0-2.9-1.3-3.9-3.8-3.9c-1.4,0-3.1,0.4-4.9,1l-0.8-2.5c2.3-0.9,4.3-1.4,6.3-1.4c4.4,0,6.4,2.4,6.4,6.6v9
				C306.5,217.1,307.1,217.6,308.1,218z M303.3,214.8v-4.5h-2.4c-3.4,0-5.1,1.4-5.1,4c0,2.3,1.1,3.6,3.2,3.6
				C300.9,217.8,302.3,216.8,303.3,214.8z"/>
			<path class="st1" d="M334.6,201.9l-1.5,2.2c-1.3-1-2.4-1.5-3.9-1.5c-2.9,0-4.7,2.4-4.7,7.6c0,5.2,1.8,7.3,4.7,7.3
				c1.5,0,2.6-0.5,4-1.5l1.5,2.2c-1.6,1.4-3.5,2.2-5.6,2.2c-4.9,0-8-3.8-8-10.2c0-6.3,3-10.5,8-10.5
				C331.2,199.8,332.9,200.4,334.6,201.9z"/>
			<path class="st1" d="M348.7,200l-0.6,3.4c-0.6-0.1-0.9-0.2-1.6-0.2c-2.3,0-3.6,1.8-4.4,5.5V220h-3.2v-19.8h2.8l0.3,4
				c1-3,2.7-4.5,4.9-4.5C347.5,199.8,348.2,199.8,348.7,200z"/>
			<path class="st1" d="M366.2,211.3h-11.7c0.3,4.6,2.3,6.3,4.9,6.3c1.8,0,3.2-0.5,4.8-1.7l1.4,2.1c-1.8,1.5-3.9,2.5-6.4,2.5
				c-5.1,0-8.1-3.9-8.1-10.1c0-6.2,2.9-10.5,7.6-10.5c4.9,0,7.5,3.7,7.5,9.7C366.2,210.2,366.2,210.8,366.2,211.3z M363.1,208.5
				c0-3.9-1.4-6-4.3-6c-2.4,0-4,1.8-4.3,6.2h8.6V208.5z"/>
			<path class="st1" d="M385.5,192.3V220h-2.8l-0.3-2.7c-1.2,2-3,3.2-5.3,3.2c-4.5,0-6.9-4.1-6.9-10.2c0-6,2.7-10.4,7.2-10.4
				c2.2,0,3.7,1,4.9,2.4v-10.4L385.5,192.3z M382.3,214.8v-9.7c-1.1-1.6-2.4-2.6-4.2-2.6c-2.8,0-4.5,2.5-4.5,7.6
				c0,5.2,1.5,7.6,4.2,7.6C379.9,217.7,381.1,216.6,382.3,214.8z"/>
			<path class="st1" d="M405.9,211.3h-11.7c0.3,4.6,2.3,6.3,4.9,6.3c1.8,0,3.2-0.5,4.8-1.7l1.4,2.1c-1.8,1.5-3.9,2.5-6.4,2.5
				c-5.1,0-8.1-3.9-8.1-10.1c0-6.2,2.9-10.5,7.6-10.5c4.9,0,7.5,3.7,7.5,9.7C406,210.2,405.9,210.8,405.9,211.3z M402.8,208.5
				c0-3.9-1.4-6-4.3-6c-2.4,0-4,1.8-4.3,6.2h8.6V208.5z"/>
			<path class="st1" d="M425,205.8V220h-3.2v-13.7c0-3-1.1-3.8-2.9-3.8c-2.1,0-3.4,1.4-4.7,3.5v14h-3.2v-19.8h2.8l0.3,2.9
				c1.2-2,3.2-3.4,5.6-3.4C423.1,199.8,425,202,425,205.8z"/>
			<path class="st1" d="M443.8,201.9l-1.5,2.2c-1.3-1-2.4-1.5-3.9-1.5c-2.9,0-4.7,2.4-4.7,7.6c0,5.2,1.8,7.3,4.7,7.3
				c1.5,0,2.6-0.5,4-1.5l1.5,2.2c-1.6,1.4-3.5,2.2-5.6,2.2c-4.9,0-8-3.8-8-10.2c0-6.3,3-10.5,8-10.5
				C440.3,199.8,442.1,200.4,443.8,201.9z"/>
			<path class="st1" d="M451.9,193.1c0,1.3-0.9,2.3-2.3,2.3c-1.3,0-2.2-1-2.2-2.3c0-1.4,0.9-2.4,2.2-2.4
				C451,190.7,451.9,191.7,451.9,193.1z M451.3,220h-3.2v-19.8h3.2V220z"/>
			<path class="st1" d="M471.8,218l-0.7,2.4c-1.8-0.2-3-1-3.6-3c-1.3,2.1-3.2,3-5.5,3c-3.7,0-5.8-2.4-5.8-6c0-4.2,3-6.5,8.1-6.5h2.8
				v-1.5c0-2.9-1.3-3.9-3.8-3.9c-1.4,0-3.1,0.4-4.9,1l-0.8-2.5c2.3-0.9,4.3-1.4,6.3-1.4c4.4,0,6.4,2.4,6.4,6.6v9
				C470.3,217.1,470.9,217.6,471.8,218z M467.1,214.8v-4.5h-2.4c-3.4,0-5.1,1.4-5.1,4c0,2.3,1.1,3.6,3.2,3.6
				C464.6,217.8,466,216.8,467.1,214.8z"/>
			<path class="st1" d="M476.7,216.1v-23.8l3.2-0.4V216c0,1,0.3,1.6,1.1,1.6c0.5,0,0.8-0.1,1.2-0.2l0.8,2.4
				c-0.7,0.4-1.6,0.7-2.5,0.7C478.2,220.4,476.7,218.9,476.7,216.1z"/>
			<path class="st1" d="M511.5,210.1c0,6-2.5,10.3-7.2,10.3c-2,0-3.6-0.7-4.8-2.2v9.4l-3.2,0.4v-27.8h2.7l0.2,2.7
				c1.4-2,3.3-3.1,5.4-3.1C509.6,199.8,511.5,203.8,511.5,210.1z M508,210.1c0-5.1-1.4-7.6-4.1-7.6c-2,0-3.4,1.5-4.4,3.1v9.6
				c0.9,1.5,2.4,2.4,4,2.4C506.4,217.6,508,215.2,508,210.1z"/>
			<path class="st1" d="M530.8,218l-0.7,2.4c-1.8-0.2-3-1-3.6-3c-1.3,2.1-3.2,3-5.5,3c-3.7,0-5.8-2.4-5.8-6c0-4.2,3-6.5,8.1-6.5h2.8
				v-1.5c0-2.9-1.3-3.9-3.8-3.9c-1.4,0-3.1,0.4-4.9,1l-0.8-2.5c2.3-0.9,4.3-1.4,6.3-1.4c4.4,0,6.4,2.4,6.4,6.6v9
				C529.3,217.1,529.9,217.6,530.8,218z M526.1,214.8v-4.5h-2.4c-3.4,0-5.1,1.4-5.1,4c0,2.3,1.1,3.6,3.2,3.6
				C523.6,217.8,525,216.8,526.1,214.8z"/>
			<path class="st1" d="M545.6,200l-0.6,3.4c-0.6-0.1-0.9-0.2-1.6-0.2c-2.3,0-3.6,1.8-4.4,5.5V220h-3.2v-19.8h2.8l0.3,4
				c1-3,2.7-4.5,4.9-4.5C544.4,199.8,545.1,199.8,545.6,200z"/>
			<path class="st1" d="M563.2,218l-0.7,2.4c-1.8-0.2-3-1-3.6-3c-1.3,2.1-3.2,3-5.5,3c-3.7,0-5.8-2.4-5.8-6c0-4.2,3-6.5,8.1-6.5h2.8
				v-1.5c0-2.9-1.3-3.9-3.8-3.9c-1.4,0-3.1,0.4-4.9,1l-0.8-2.5c2.3-0.9,4.3-1.4,6.3-1.4c4.4,0,6.4,2.4,6.4,6.6v9
				C561.6,217.1,562.2,217.6,563.2,218z M558.4,214.8v-4.5H556c-3.4,0-5.1,1.4-5.1,4c0,2.3,1.1,3.6,3.2,3.6
				C556,217.8,557.4,216.8,558.4,214.8z"/>
			<path class="st1" d="M591.2,211.3h-11.7c0.3,4.6,2.3,6.3,4.9,6.3c1.8,0,3.2-0.5,4.8-1.7l1.4,2.1c-1.8,1.5-3.9,2.5-6.4,2.5
				c-5.1,0-8.1-3.9-8.1-10.1c0-6.2,2.9-10.5,7.6-10.5c4.9,0,7.5,3.7,7.5,9.7C591.3,210.2,591.2,210.8,591.2,211.3z M588.1,208.5
				c0-3.9-1.4-6-4.3-6c-2.4,0-4,1.8-4.3,6.2h8.6V208.5z"/>
			<path class="st1" d="M596.2,216.1v-23.8l3.2-0.4V216c0,1,0.3,1.6,1.1,1.6c0.5,0,0.8-0.1,1.2-0.2l0.8,2.4
				c-0.7,0.4-1.6,0.7-2.5,0.7C597.7,220.4,596.2,218.9,596.2,216.1z"/>
			<path class="st1" d="M639.2,205.8V220H636v-13.7c0-3-1.2-3.8-2.6-3.8c-2,0-3.1,1.4-4.3,3.5v14h-3.2v-13.7c0-3-1.2-3.8-2.6-3.8
				c-2,0-3.1,1.4-4.3,3.5v14h-3.2v-19.8h2.8l0.3,2.9c1.2-2,2.9-3.3,5.3-3.3c2.3,0,3.9,1.3,4.6,3.6c1.3-2.1,3-3.6,5.5-3.6
				C637.2,199.8,639.2,202.1,639.2,205.8z"/>
			<path class="st1" d="M659.4,211.3h-11.7c0.3,4.6,2.3,6.3,4.9,6.3c1.8,0,3.2-0.5,4.8-1.7l1.4,2.1c-1.8,1.5-3.9,2.5-6.4,2.5
				c-5.1,0-8.1-3.9-8.1-10.1c0-6.2,2.9-10.5,7.6-10.5c4.9,0,7.5,3.7,7.5,9.7C659.5,210.2,659.4,210.8,659.4,211.3z M656.3,208.5
				c0-3.9-1.4-6-4.3-6c-2.4,0-4,1.8-4.3,6.2h8.6V208.5z"/>
			<path class="st1" d="M667.7,218.8c0,5.6-1.9,7.3-5.8,9.2l-0.9-2.5c2.4-1.2,3.5-2.2,3.5-6.4v-18.8h3.2V218.8z M668.4,193.1
				c0,1.3-0.9,2.3-2.3,2.3c-1.3,0-2.2-1-2.2-2.3c0-1.4,0.9-2.4,2.2-2.4C667.5,190.7,668.4,191.7,668.4,193.1z"/>
			<path class="st1" d="M689.3,210.1c0,6.1-3,10.3-8.2,10.3c-5.2,0-8.2-4-8.2-10.3c0-6.1,3-10.3,8.2-10.3S689.3,203.8,689.3,210.1z
				 M676.4,210.1c0,5.1,1.7,7.5,4.7,7.5c3.1,0,4.7-2.4,4.7-7.6c0-5.1-1.7-7.5-4.7-7.5C678.1,202.5,676.4,204.9,676.4,210.1z"/>
			<path class="st1" d="M704.4,200l-0.6,3.4c-0.6-0.1-0.9-0.2-1.6-0.2c-2.3,0-3.6,1.8-4.4,5.5V220h-3.2v-19.8h2.8l0.3,4
				c1-3,2.7-4.5,4.9-4.5C703.2,199.8,703.9,199.8,704.4,200z"/>
			<path class="st1" d="M731.5,192.3V220h-2.8l-0.3-2.7c-1.2,2-3,3.2-5.3,3.2c-4.5,0-6.9-4.1-6.9-10.2c0-6,2.7-10.4,7.2-10.4
				c2.2,0,3.7,1,4.9,2.4v-10.4L731.5,192.3z M728.3,214.8v-9.7c-1.1-1.6-2.4-2.6-4.2-2.6c-2.8,0-4.5,2.5-4.5,7.6
				c0,5.2,1.5,7.6,4.2,7.6C725.8,217.7,727.1,216.6,728.3,214.8z"/>
			<path class="st1" d="M751.9,211.3h-11.7c0.3,4.6,2.3,6.3,4.9,6.3c1.8,0,3.2-0.5,4.8-1.7l1.4,2.1c-1.8,1.5-3.9,2.5-6.4,2.5
				c-5.1,0-8.1-3.9-8.1-10.1c0-6.2,2.9-10.5,7.6-10.5c4.9,0,7.5,3.7,7.5,9.7C751.9,210.2,751.9,210.8,751.9,211.3z M748.8,208.5
				c0-3.9-1.4-6-4.3-6c-2.4,0-4,1.8-4.3,6.2h8.6V208.5z"/>
			<path class="st1" d="M768.3,202l-1.4,2.2c-1.6-1.1-3.1-1.7-4.8-1.7c-2.1,0-3.4,1-3.4,2.6c0,1.6,1,2.4,3.9,3.2
				c3.9,1,6.1,2.7,6.1,6.2c0,4.1-3.5,6-7.2,6c-3.1,0-5.3-1.1-6.9-2.6l1.7-2.1c1.5,1.2,3.2,1.9,5.1,1.9c2.4,0,3.9-1.1,3.9-3
				c0-2-0.9-2.7-4.5-3.7c-4-1.1-5.5-3-5.5-5.7c0-3.1,2.8-5.4,6.6-5.4C764.6,199.8,766.5,200.6,768.3,202z"/>
			<path class="st1" d="M787.1,211.3h-11.7c0.3,4.6,2.3,6.3,4.9,6.3c1.8,0,3.2-0.5,4.8-1.7l1.4,2.1c-1.8,1.5-3.9,2.5-6.4,2.5
				c-5.1,0-8.1-3.9-8.1-10.1c0-6.2,2.9-10.5,7.6-10.5c4.9,0,7.5,3.7,7.5,9.7C787.1,210.2,787.1,210.8,787.1,211.3z M784,208.5
				c0-3.9-1.4-6-4.3-6c-2.4,0-4,1.8-4.3,6.2h8.6V208.5z"/>
			<path class="st1" d="M815.6,205.8V220h-3.2v-13.7c0-3-1.2-3.8-2.6-3.8c-2,0-3.1,1.4-4.3,3.5v14h-3.2v-13.7c0-3-1.2-3.8-2.6-3.8
				c-2,0-3.1,1.4-4.3,3.5v14h-3.2v-19.8h2.8l0.3,2.9c1.2-2,2.9-3.3,5.3-3.3c2.3,0,3.9,1.3,4.6,3.6c1.3-2.1,3-3.6,5.5-3.6
				C813.6,199.8,815.6,202.1,815.6,205.8z"/>
			<path class="st1" d="M837.3,210.1c0,6-2.5,10.3-7.2,10.3c-2,0-3.6-0.7-4.8-2.2v9.4l-3.2,0.4v-27.8h2.8l0.2,2.7
				c1.4-2,3.3-3.1,5.4-3.1C835.4,199.8,837.3,203.8,837.3,210.1z M833.8,210.1c0-5.1-1.4-7.6-4.1-7.6c-2,0-3.4,1.5-4.4,3.1v9.6
				c0.9,1.5,2.4,2.4,4,2.4C832.2,217.6,833.8,215.2,833.8,210.1z"/>
			<path class="st1" d="M856.5,211.3h-11.7c0.3,4.6,2.3,6.3,4.9,6.3c1.8,0,3.2-0.5,4.8-1.7l1.4,2.1c-1.8,1.5-3.9,2.5-6.4,2.5
				c-5.1,0-8.1-3.9-8.1-10.1c0-6.2,2.9-10.5,7.6-10.5c4.9,0,7.5,3.7,7.5,9.7C856.6,210.2,856.5,210.8,856.5,211.3z M853.4,208.5
				c0-3.9-1.4-6-4.3-6c-2.4,0-4,1.8-4.3,6.2h8.6V208.5z"/>
			<path class="st1" d="M875.6,205.8V220h-3.2v-13.7c0-3-1.1-3.8-2.9-3.8c-2.1,0-3.4,1.4-4.7,3.5v14h-3.2v-19.8h2.8l0.3,2.9
				c1.2-2,3.2-3.4,5.6-3.4C873.7,199.8,875.6,202,875.6,205.8z M864.9,195.3l-2-1.1c0.8-1.8,2.1-3.3,3.8-3.3c2,0,2.7,1.8,4,1.8
				c0.7,0,1.2-0.5,1.8-1.7l2,1c-0.9,2.1-2.2,3.2-3.8,3.2c-1.8,0-2.8-1.8-4-1.8C865.9,193.6,865.5,194.2,864.9,195.3z"/>
			<path class="st1" d="M897.1,210.1c0,6.1-3,10.3-8.2,10.3c-5.2,0-8.2-4-8.2-10.3c0-6.1,3-10.3,8.2-10.3S897.1,203.8,897.1,210.1z
				 M884.2,210.1c0,5.1,1.7,7.5,4.7,7.5c3.1,0,4.7-2.4,4.7-7.6c0-5.1-1.7-7.5-4.7-7.5C885.9,202.5,884.2,204.9,884.2,210.1z"/>
			<path class="st1" d="M66.3,237.3V265h-2.8l-0.3-2.7c-1.2,2-3,3.2-5.3,3.2c-4.5,0-6.9-4.1-6.9-10.2c0-6,2.7-10.4,7.2-10.4
				c2.2,0,3.7,1,4.9,2.4v-10.4L66.3,237.3z M63.1,259.8v-9.7c-1.1-1.6-2.4-2.6-4.2-2.6c-2.7,0-4.5,2.5-4.5,7.6
				c0,5.2,1.5,7.6,4.2,7.6C60.7,262.7,61.9,261.6,63.1,259.8z"/>
			<path class="st1" d="M86.7,256.3H75c0.3,4.6,2.3,6.3,4.9,6.3c1.8,0,3.2-0.5,4.8-1.7l1.4,2.1c-1.8,1.5-3.9,2.5-6.4,2.5
				c-5.1,0-8.1-3.9-8.1-10.1c0-6.2,2.9-10.5,7.6-10.5c4.9,0,7.5,3.7,7.5,9.7C86.8,255.2,86.8,255.9,86.7,256.3z M83.6,253.5
				c0-3.9-1.4-6-4.3-6c-2.4,0-4,1.8-4.3,6.2h8.6V253.5z"/>
			<path class="st1" d="M112.3,247l-1.4,2.2c-1.6-1.1-3.1-1.7-4.8-1.7c-2.1,0-3.4,1-3.4,2.6c0,1.6,1,2.4,3.9,3.2
				c3.9,1,6.1,2.7,6.1,6.2c0,4.1-3.5,6-7.2,6c-3.1,0-5.3-1.1-6.9-2.6l1.7-2.1c1.5,1.2,3.2,1.9,5.1,1.9c2.4,0,3.9-1.1,3.9-3
				c0-2-0.9-2.7-4.5-3.7c-4-1.1-5.5-3-5.5-5.7c0-3.1,2.8-5.4,6.6-5.4C108.7,244.8,110.6,245.6,112.3,247z"/>
			<path class="st1" d="M131,265h-2.8l-0.2-3.1c-1.4,2.4-3.1,3.5-5.7,3.5c-3.2,0-5.1-2.2-5.1-6v-14.2h3.2V259c0,2.7,0.8,3.7,2.8,3.7
				c2,0,3.5-1.4,4.6-3.4v-14.1h3.2V265z"/>
			<path class="st1" d="M148.8,247l-1.4,2.2c-1.6-1.1-3.1-1.7-4.8-1.7c-2.1,0-3.4,1-3.4,2.6c0,1.6,1,2.4,3.9,3.2
				c3.9,1,6.1,2.7,6.1,6.2c0,4.1-3.5,6-7.2,6c-3.1,0-5.3-1.1-6.9-2.6l1.7-2.1c1.5,1.2,3.2,1.9,5.1,1.9c2.4,0,3.9-1.1,3.9-3
				c0-2-0.9-2.7-4.5-3.7c-4-1.1-5.5-3-5.5-5.7c0-3.1,2.8-5.4,6.6-5.4C145.2,244.8,147.1,245.6,148.8,247z"/>
			<path class="st1" d="M166.6,242.5v2.7h4.5l-0.3,2.7h-4.1V265h-3.2v-17.1h-3.3v-2.7h3.3v-2.7c0-3.3,2-5.7,5.7-5.7
				c1.7,0,2.9,0.3,4.4,1l-1,2.5c-1.2-0.6-2.3-0.7-3.2-0.7C167.3,239.7,166.6,240.6,166.6,242.5z"/>
			<path class="st1" d="M188.4,265h-2.7l-0.2-3.1c-1.4,2.4-3.1,3.5-5.7,3.5c-3.2,0-5.1-2.2-5.1-6v-14.2h3.2V259
				c0,2.7,0.8,3.7,2.8,3.7c2,0,3.5-1.4,4.6-3.4v-14.1h3.2V265z"/>
			<path class="st1" d="M208.9,250.8V265h-3.2v-13.7c0-3-1.1-3.8-2.9-3.8c-2.1,0-3.4,1.4-4.7,3.5v14H195v-19.8h2.8l0.3,2.9
				c1.2-2,3.2-3.4,5.6-3.4C207,244.8,208.9,247.1,208.9,250.8z"/>
			<path class="st1" d="M227.7,246.9l-1.5,2.2c-1.3-1-2.4-1.5-3.9-1.5c-2.9,0-4.7,2.4-4.7,7.6c0,5.2,1.8,7.3,4.7,7.3
				c1.5,0,2.6-0.5,4-1.5l1.5,2.2c-1.6,1.4-3.5,2.2-5.6,2.2c-4.9,0-8-3.8-8-10.2c0-6.3,3-10.5,8-10.5
				C224.2,244.8,226,245.4,227.7,246.9z"/>
			<path class="st1" d="M235.8,238.1c0,1.3-0.9,2.3-2.3,2.3c-1.3,0-2.2-1-2.2-2.3c0-1.4,0.9-2.4,2.2-2.4
				C234.9,235.8,235.8,236.8,235.8,238.1z M235.2,265H232v-19.8h3.2V265z"/>
			<path class="st1" d="M256.8,255.1c0,6.1-3,10.3-8.2,10.3c-5.2,0-8.2-4-8.2-10.3c0-6.1,3-10.3,8.2-10.3
				C253.9,244.8,256.8,248.8,256.8,255.1z M243.9,255.1c0,5.1,1.7,7.5,4.7,7.5c3.1,0,4.7-2.4,4.7-7.6c0-5.1-1.7-7.5-4.7-7.5
				C245.6,247.6,243.9,250,243.9,255.1z"/>
			<path class="st1" d="M276.1,250.8V265h-3.2v-13.7c0-3-1.1-3.8-2.9-3.8c-2.1,0-3.4,1.4-4.7,3.5v14h-3.2v-19.8h2.8l0.3,2.9
				c1.2-2,3.2-3.4,5.6-3.4C274.1,244.8,276.1,247.1,276.1,250.8z"/>
			<path class="st1" d="M296.3,256.3h-11.7c0.3,4.6,2.3,6.3,4.9,6.3c1.8,0,3.2-0.5,4.8-1.7l1.4,2.1c-1.8,1.5-3.9,2.5-6.4,2.5
				c-5.1,0-8.1-3.9-8.1-10.1c0-6.2,2.9-10.5,7.6-10.5c4.9,0,7.5,3.7,7.5,9.7C296.4,255.2,296.3,255.9,296.3,256.3z M293.2,253.5
				c0-3.9-1.4-6-4.3-6c-2.4,0-4,1.8-4.3,6.2h8.6V253.5z"/>
			<path class="st1" d="M312.7,247l-1.4,2.2c-1.6-1.1-3.1-1.7-4.8-1.7c-2.1,0-3.4,1-3.4,2.6c0,1.6,1,2.4,3.9,3.2
				c3.9,1,6.1,2.7,6.1,6.2c0,4.1-3.5,6-7.2,6c-3.1,0-5.3-1.1-6.9-2.6l1.7-2.1c1.5,1.2,3.2,1.9,5.1,1.9c2.4,0,3.9-1.1,3.9-3
				c0-2-0.9-2.7-4.5-3.7c-4-1.1-5.5-3-5.5-5.7c0-3.1,2.8-5.4,6.6-5.4C309,244.8,310.9,245.6,312.7,247z"/>
			<path class="st1" d="M321,262.8c0,1.5-1,2.6-2.4,2.6c-1.4,0-2.4-1.2-2.4-2.6c0-1.4,1-2.6,2.4-2.6C320,260.2,321,261.4,321,262.8z
				"/>
		</g>
	</g>
	<g>
		<path class="st1" d="M66.9,364.4h-9.9v8.1h8.6v4.1h-8.6v8.5h10.6v4.1H52v-28.8h15.5L66.9,364.4z"/>
		<path class="st1" d="M92.2,389.1h-6.6l-9.2-23.3c0.3,2.5,0.7,6.2,0.7,11.6v11.8h-4.6v-28.8h6.5l9.3,23.4c-0.2-1.6-0.7-5.8-0.7-9.8
			v-13.5h4.6V389.1z"/>
		<path class="st1" d="M126.1,362.7l-2.6,3.3c-1.5-1.3-3.1-2-4.9-2c-3.7,0-6.6,2.9-6.6,10.7c0,7.6,2.8,10.7,6.6,10.7
			c2.3,0,3.9-1.1,5.5-2.3l2.4,3.3c-1.6,1.8-4.4,3.5-8,3.5c-6.9,0-11.8-5.3-11.8-15.1c0-9.7,5.1-15,11.7-15
			C121.7,359.7,123.9,360.7,126.1,362.7z"/>
		<path class="st1" d="M142.5,382.4h-8.8l-1.7,6.7h-5.3l8.3-28.8h6.3l8.3,28.8h-5.4L142.5,382.4z M141.5,378.3l-3.4-13.8l-3.4,13.8
			H141.5z"/>
		<path class="st1" d="M169.1,363.2l-2.5,3.1c-1.9-1.7-3.8-2.5-6-2.5c-2.4,0-4.1,1.2-4.1,3.4c0,2.1,1,3,5.5,4.5
			c4.7,1.6,7.9,3.7,7.9,9.1c0,5.2-3.7,8.8-10.1,8.8c-4.3,0-7.4-1.6-9.6-4l2.6-3.2c2,1.8,4.1,2.9,6.9,2.9c2.9,0,4.9-1.5,4.9-4.3
			c0-2.4-1.1-3.5-5.3-4.9c-5.6-1.9-8-4.3-8-8.7c0-4.8,3.8-8,9.1-8C164.2,359.7,166.8,360.9,169.1,363.2z"/>
		<path class="st1" d="M196.2,374.7c0,9.5-4.5,15.1-11.7,15.1s-11.7-5.4-11.7-15c0-9.5,4.6-15.1,11.7-15.1S196.2,365,196.2,374.7z
			 M178.1,374.7c0,7.8,2.4,10.8,6.3,10.8c4,0,6.3-3,6.3-10.9c0-7.7-2.3-10.8-6.3-10.8C180.5,363.9,178.1,367,178.1,374.7z"/>
		<path class="st1" d="M230.9,374.6c0,11.7-6.6,14.6-13,14.6h-7.3v-28.8h6.6C224.2,360.3,230.9,362.6,230.9,374.6z M215.7,364.4V385
			h2.5c4,0,7.3-1.9,7.3-10.4c0-8.7-3.5-10.1-7.4-10.1H215.7z"/>
		<path class="st1" d="M250.6,364.4h-9.9v8.1h8.6v4.1h-8.6v8.5h10.6v4.1h-15.7v-28.8h15.5L250.6,364.4z"/>
		<path class="st1" d="M280.8,364.4h-9.9v8.1h8.6v4.1h-8.6v8.5h10.6v4.1h-15.7v-28.8h15.5L280.8,364.4z"/>
		<path class="st1" d="M311.6,389.1h-5l-0.7-12.1c-0.2-4.3-0.4-8.7-0.4-11.8l-4.9,20.7h-4.8l-5.2-20.7c0.2,3.9,0.1,7.8-0.2,12
			l-0.7,11.9h-4.9l2.1-28.8h6.6l4.8,20.2l4.5-20.2h6.7L311.6,389.1z"/>
		<path class="st1" d="M331.5,364.4h-9.9v8.1h8.6v4.1h-8.6v8.5h10.6v4.1h-15.7v-28.8H332L331.5,364.4z"/>
		<path class="st1" d="M345.3,377.6h-3.2v11.6H337v-28.8h8c7,0,10.6,2.8,10.6,8.5c0,3.9-1.8,6.3-5.4,7.8l7,12.6h-5.9L345.3,377.6z
			 M342.1,373.6h3.2c3.2,0,4.9-1.4,4.9-4.8c0-3.1-1.7-4.5-5.4-4.5h-2.7V373.6z"/>
		<path class="st1" d="M379.9,363l-2.7,3.1c-1.8-1.5-3.3-2.3-5.6-2.3c-3.8,0-7,3.1-7,10.8c0,7.9,2.2,10.9,6.3,10.9
			c1.5,0,3-0.3,4.3-1.1v-7.5h-4l-0.5-4.1h9.6v14.1c-2.7,1.8-5.8,2.8-9.2,2.8c-7.6,0-11.8-5.2-11.8-15.1c0-9.8,5.6-15,12.3-15
			C375.1,359.7,377.7,361,379.9,363z"/>
		<path class="st1" d="M400.2,364.4h-9.9v8.1h8.6v4.1h-8.6v8.5h10.6v4.1h-15.7v-28.8h15.5L400.2,364.4z"/>
		<path class="st1" d="M425.5,389.1h-6.6l-9.2-23.3c0.3,2.5,0.7,6.2,0.7,11.6v11.8h-4.6v-28.8h6.5l9.3,23.4
			c-0.2-1.6-0.7-5.8-0.7-9.8v-13.5h4.6V389.1z"/>
		<path class="st1" d="M449.7,362.7l-2.6,3.3c-1.6-1.3-3.1-2-4.9-2c-3.7,0-6.6,2.9-6.6,10.7c0,7.6,2.8,10.7,6.6,10.7
			c2.3,0,3.9-1.1,5.4-2.3l2.4,3.3c-1.6,1.8-4.4,3.5-8,3.5c-6.9,0-11.8-5.3-11.8-15.1c0-9.7,5.1-15,11.7-15
			C445.3,359.7,447.5,360.7,449.7,362.7z"/>
		<path class="st1" d="M458.8,389.1h-5.1v-28.8h5.1V389.1z"/>
		<path class="st1" d="M477.5,382.4h-8.8l-1.7,6.7h-5.3l8.3-28.8h6.3l8.3,28.8h-5.4L477.5,382.4z M476.5,378.3l-3.4-13.8l-3.4,13.8
			H476.5z"/>
		<path class="st1" d="M507.8,378.2v10.9h-5.2v-10.9l-8.6-17.9h5.6l5.6,13.4l5.6-13.4h5.4L507.8,378.2z"/>
		<path class="st1" d="M551,374.7c0,9.5-4.5,15.1-11.7,15.1s-11.7-5.4-11.7-15c0-9.5,4.6-15.1,11.7-15.1S551,365,551,374.7z
			 M533,374.7c0,7.8,2.4,10.8,6.3,10.8c4,0,6.3-3,6.3-10.9c0-7.7-2.3-10.8-6.3-10.8C535.4,363.9,533,367,533,374.7z"/>
		<path class="st1" d="M580.4,364.4h-9.9v8.1h8.6v4.1h-8.6v8.5h10.6v4.1h-15.7v-28.8H581L580.4,364.4z"/>
		<path class="st1" d="M604.6,389.1h-5.7l-5.3-11.8l-5.3,11.8h-5.5l7.7-15.4l-7.1-13.5h5.7l4.5,10l4.7-10h5.5l-7.2,13.3L604.6,389.1
			z"/>
		<path class="st1" d="M624.3,364.7h-7v24.4h-5.1v-24.4H605v-4.4h19.8L624.3,364.7z"/>
		<path class="st1" d="M636.5,377.6h-3.2v11.6h-5.1v-28.8h8c7,0,10.6,2.8,10.6,8.5c0,3.9-1.8,6.3-5.4,7.8l7,12.6h-5.9L636.5,377.6z
			 M633.3,373.6h3.2c3.2,0,4.9-1.4,4.9-4.8c0-3.1-1.7-4.5-5.4-4.5h-2.7V373.6z"/>
		<path class="st1" d="M664.3,382.4h-8.8l-1.7,6.7h-5.3l8.3-28.8h6.3l8.3,28.8h-5.4L664.3,382.4z M663.2,378.3l-3.4-13.8l-3.4,13.8
			H663.2z"/>
		<path class="st1" d="M685.2,389.1h-6.1l-8.2-28.8h5.5l5.8,23.9l5.6-23.9h5.2L685.2,389.1z"/>
		<path class="st1" d="M703.7,354.2l-8.8,3.5l-1.3-2.8l8.2-4.9L703.7,354.2z M701.2,389.1h-5.1v-28.8h5.1V389.1z"/>
		<path class="st1" d="M729.4,374.7c0,9.5-4.5,15.1-11.7,15.1s-11.7-5.4-11.7-15c0-9.5,4.6-15.1,11.7-15.1S729.4,365,729.4,374.7z
			 M711.4,374.7c0,7.8,2.4,10.8,6.3,10.8c4,0,6.3-3,6.3-10.9c0-7.7-2.3-10.8-6.3-10.8C713.7,363.9,711.4,367,711.4,374.7z"/>
		<path class="st1" d="M70.7,419.5c0,6.6-4.4,9.6-10.5,9.6h-3.1v10.1H52v-28.8h7.9C66.6,410.3,70.7,413.3,70.7,419.5z M65.3,419.5
			c0-3.6-2-5.1-5.5-5.1h-2.7V425h2.7C63.2,425,65.3,423.7,65.3,419.5z"/>
		<path class="st1" d="M96.7,424.7c0,9.5-4.5,15.1-11.7,15.1c-7.2,0-11.7-5.4-11.7-15c0-9.5,4.6-15.1,11.7-15.1
			C92.2,409.7,96.7,415.1,96.7,424.7z M78.7,424.8c0,7.8,2.4,10.8,6.3,10.8c4,0,6.3-3,6.3-10.9c0-7.7-2.3-10.8-6.3-10.8
			C81.1,413.9,78.7,417,78.7,424.8z"/>
		<path class="st1" d="M109.9,427.6h-3.2v11.6h-5.1v-28.8h8c7,0,10.6,2.8,10.6,8.5c0,3.9-1.8,6.3-5.4,7.8l7,12.6h-5.9L109.9,427.6z
			 M106.6,423.6h3.2c3.2,0,4.9-1.4,4.9-4.8c0-3.1-1.7-4.5-5.4-4.5h-2.7V423.6z"/>
		<path class="st1" d="M134.8,410.3h15.1l-0.5,4.1h-9.5v8.6h8.2v4.1h-8.2v12h-5.1V410.3z"/>
		<path class="st1" d="M166.2,432.5h-8.8l-1.7,6.7h-5.3l8.3-28.8h6.3l8.3,28.8h-5.4L166.2,432.5z M165.1,428.3l-3.4-13.8l-3.4,13.8
			H165.1z"/>
		<path class="st1" d="M187.1,439.2h-6.1l-8.2-28.8h5.5l5.8,23.9l5.6-23.9h5.2L187.1,439.2z"/>
		<path class="st1" d="M220,424.7c0,9.5-4.5,15.1-11.7,15.1s-11.7-5.4-11.7-15c0-9.5,4.6-15.1,11.7-15.1S220,415.1,220,424.7z
			 M201.9,424.8c0,7.8,2.4,10.8,6.3,10.8c4,0,6.3-3,6.3-10.9c0-7.7-2.3-10.8-6.3-10.8C204.3,413.9,201.9,417,201.9,424.8z"/>
		<path class="st1" d="M233.1,427.6h-3.2v11.6h-5.1v-28.8h8c7,0,10.6,2.8,10.6,8.5c0,3.9-1.8,6.3-5.4,7.8l7,12.6H239L233.1,427.6z
			 M229.9,423.6h3.2c3.2,0,4.9-1.4,4.9-4.8c0-3.1-1.7-4.5-5.4-4.5h-2.7V423.6z"/>
		<path class="st1" d="M266.4,427.6h-3.2v11.6H258v-28.8h8c7,0,10.6,2.8,10.6,8.5c0,3.9-1.8,6.3-5.4,7.8l7,12.6h-5.9L266.4,427.6z
			 M263.1,423.6h3.2c3.2,0,4.9-1.4,4.9-4.8c0-3.1-1.7-4.5-5.4-4.5h-2.7V423.6z"/>
		<path class="st1" d="M296.6,414.4h-9.9v8.1h8.6v4.1h-8.6v8.5h10.6v4.1h-15.7v-28.8h15.5L296.6,414.4z"/>
		<path class="st1" d="M320.8,419.5c0,6.6-4.4,9.6-10.5,9.6h-3.1v10.1h-5.1v-28.8h7.9C316.7,410.3,320.8,413.3,320.8,419.5z
			 M315.5,419.5c0-3.6-2-5.1-5.5-5.1h-2.7V425h2.7C313.4,425,315.5,423.7,315.5,419.5z"/>
		<path class="st1" d="M346.9,424.7c0,9.5-4.5,15.1-11.7,15.1s-11.7-5.4-11.7-15c0-9.5,4.6-15.1,11.7-15.1S346.9,415.1,346.9,424.7z
			 M328.9,424.8c0,7.8,2.4,10.8,6.3,10.8c4,0,6.3-3,6.3-10.9c0-7.7-2.3-10.8-6.3-10.8C331.2,413.9,328.9,417,328.9,424.8z"/>
		<path class="st1" d="M360,427.6h-3.2v11.6h-5.1v-28.8h8c7,0,10.6,2.8,10.6,8.5c0,3.9-1.8,6.3-5.4,7.8l7,12.6h-5.9L360,427.6z
			 M356.8,423.6h3.2c3.2,0,4.9-1.4,4.9-4.8c0-3.1-1.7-4.5-5.4-4.5h-2.7V423.6z"/>
		<path class="st1" d="M391.9,414.7h-7v24.4h-5.1v-24.4h-7.2v-4.4h19.8L391.9,414.7z"/>
		<path class="st1" d="M408.3,432.5h-8.8l-1.7,6.7h-5.3l8.3-28.8h6.3l8.3,28.8h-5.4L408.3,432.5z M407.2,428.3l-3.4-13.8l-3.4,13.8
			H407.2z"/>
		<path class="st1" d="M426.7,427.6h-3.2v11.6h-5.1v-28.8h8c7,0,10.6,2.8,10.6,8.5c0,3.9-1.8,6.3-5.4,7.8l7,12.6h-5.9L426.7,427.6z
			 M423.4,423.6h3.2c3.2,0,4.9-1.4,4.9-4.8c0-3.1-1.7-4.5-5.4-4.5h-2.7V423.6z"/>
		<path class="st1" d="M464.1,432.5h-8.8l-1.7,6.7h-5.3l8.3-28.8h6.3l8.3,28.8h-5.4L464.1,432.5z M463,428.3l-3.4-13.8l-3.4,13.8
			H463z"/>
		<path class="st1" d="M479.2,434.6H490l-0.6,4.5h-15.2v-28.8h5.1V434.6z"/>
		<path class="st1" d="M520,414.7h-7v24.4h-5.1v-24.4h-7.2v-4.4h19.8L520,414.7z"/>
		<path class="st1" d="M538.8,414.4H529v8.1h8.6v4.1H529v8.5h10.6v4.1h-15.7v-28.8h15.5L538.8,414.4z"/>
		<path class="st1" d="M549.4,434.6h10.7l-0.6,4.5h-15.2v-28.8h5.1V434.6z"/>
		<path class="st1" d="M578.9,414.4H569v8.1h8.6v4.1H569v8.5h10.6v4.1h-15.7v-28.8h15.5L578.9,414.4z M576.8,404.3l-8.9,3.5
			l-1.3-2.8l8.2-4.9L576.8,404.3z"/>
		<path class="st1" d="M584.4,410.3h15.1l-0.5,4.1h-9.5v8.6h8.2v4.1h-8.2v12h-5.1V410.3z"/>
		<path class="st1" d="M625.2,424.7c0,9.5-4.5,15.1-11.7,15.1s-11.7-5.4-11.7-15c0-9.5,4.6-15.1,11.7-15.1S625.2,415.1,625.2,424.7z
			 M607.2,424.8c0,7.8,2.4,10.8,6.3,10.8c4,0,6.3-3,6.3-10.9c0-7.7-2.3-10.8-6.3-10.8C609.5,413.9,607.2,417,607.2,424.8z"/>
		<path class="st1" d="M649.7,439.2h-6.6l-9.2-23.3c0.3,2.5,0.7,6.2,0.7,11.6v11.8H630v-28.8h6.5l9.3,23.4c-0.2-1.6-0.7-5.8-0.7-9.8
			v-13.5h4.6V439.2z"/>
		<path class="st1" d="M677.9,424.7c0,9.5-4.5,15.1-11.7,15.1s-11.7-5.4-11.7-15c0-9.5,4.6-15.1,11.7-15.1S677.9,415.1,677.9,424.7z
			 M659.9,424.8c0,7.8,2.4,10.8,6.3,10.8c4,0,6.3-3,6.3-10.9c0-7.7-2.3-10.8-6.3-10.8C662.2,413.9,659.9,417,659.9,424.8z"/>
		<path class="st1" d="M60.4,455.9c-3.6,5.5-5.5,10.3-5.5,18.7c0,8.3,1.9,13.1,5.5,18.6l-3.2,2.3c-3.8-5.8-7.3-11-7.3-20.9
			s3.5-15.2,7.3-20.9L60.4,455.9z"/>
		<path class="st1" d="M81.7,475.2c0,9.4-3.2,14.6-9.3,14.6c-6.1,0-9.3-5.3-9.3-14.6c0-9.3,3.2-14.6,9.3-14.6
			C78.6,460.6,81.7,465.8,81.7,475.2z M68.2,475.2c0,7.8,1.4,10.6,4.2,10.6s4.2-2.7,4.2-10.6c0-7.9-1.4-10.5-4.2-10.5
			S68.2,467.4,68.2,475.2z"/>
		<path class="st1" d="M101,468.5c0,4.8-2.5,8.2-10.6,16.5h11.1l-0.5,4.2H84.8v-3.9c8.9-9.8,11.1-12.4,11.1-16.4
			c0-2.6-1.5-4.1-3.7-4.1c-2,0-3.4,0.9-5,3l-3-2.6c2.1-2.9,4.8-4.6,8.4-4.6C97.9,460.6,101,464.1,101,468.5z"/>
		<path class="st1" d="M116.8,489.2H112v-22.7l-5.8,3.8l-2.2-3.6l8.5-5.6h4.4V489.2z"/>
		<path class="st1" d="M138,468.5c0,4.8-2.5,8.2-10.6,16.5h11.1l-0.5,4.2h-16.2v-3.9c8.9-9.8,11.1-12.4,11.1-16.4
			c0-2.6-1.5-4.1-3.7-4.1c-2,0-3.4,0.9-5,3l-3-2.6c2.1-2.9,4.8-4.6,8.4-4.6C134.9,460.6,138,464.1,138,468.5z"/>
		<path class="st1" d="M142.1,474h11.7v4.3h-11.7V474z"/>
		<path class="st1" d="M172.7,465.1H163v7c1.3-0.7,2.7-1,3.9-1c4.3,0,7.5,3.3,7.5,9.1c0,5.8-3.8,9.8-9.7,9.8c-3.6,0-6.2-1.6-8.2-4
			l2.8-2.8c1.4,1.7,3.1,2.7,5.3,2.7c2.9,0,4.7-2,4.7-5.6c0-3.9-1.8-5.2-4.2-5.2c-1.2,0-2.2,0.3-3.4,1h-3.5v-14.7h15.1L172.7,465.1z"
			/>
		<path class="st1" d="M196.2,475.2c0,9.4-3.2,14.6-9.3,14.6c-6.1,0-9.3-5.3-9.3-14.6c0-9.3,3.2-14.6,9.3-14.6
			C193.1,460.6,196.2,465.8,196.2,475.2z M182.7,475.2c0,7.8,1.4,10.6,4.2,10.6c2.9,0,4.2-2.7,4.2-10.6c0-7.9-1.4-10.5-4.2-10.5
			C184,464.7,182.7,467.4,182.7,475.2z"/>
		<path class="st1" d="M215,465.1h-9.7v7c1.3-0.7,2.7-1,3.9-1c4.3,0,7.5,3.3,7.5,9.1c0,5.8-3.8,9.8-9.7,9.8c-3.6,0-6.2-1.6-8.2-4
			l2.8-2.8c1.4,1.7,3.1,2.7,5.3,2.7c2.9,0,4.7-2,4.7-5.6c0-3.9-1.8-5.2-4.2-5.2c-1.2,0-2.2,0.3-3.4,1h-3.5v-14.7h15.1L215,465.1z"/>
		<path class="st1" d="M220.1,474h11.7v4.3h-11.7V474z"/>
		<path class="st1" d="M247.5,489.2h-4.9v-22.7l-5.8,3.8l-2.2-3.6l8.5-5.6h4.4V489.2z"/>
		<path class="st1" d="M271.2,479.6c0,5.9-3.6,10.2-8.9,10.2c-6.7,0-9.4-5.5-9.4-13.6c0-9.4,4.1-15.6,10.7-15.6
			c2.3,0,4.2,0.7,5.7,1.8l-1.9,3.3c-1.1-0.7-2.4-1.1-3.7-1.1c-3.3,0-5.4,3.4-5.6,9c1.7-2.2,3.6-3.1,5.8-3.1
			C267.9,470.5,271.2,473.7,271.2,479.6z M266.2,479.7c0-4-1.4-5.3-3.6-5.3c-1.8,0-3.4,1.1-4.6,2.9c0.1,6,1.3,8.6,4.3,8.6
			C264.9,485.8,266.2,483.4,266.2,479.7z"/>
		<path class="st1" d="M274.4,474h11.7v4.3h-11.7V474z"/>
		<path class="st1" d="M301.8,489.2h-4.9v-22.7l-5.8,3.8l-2.2-3.6l8.5-5.6h4.4V489.2z"/>
		<path class="st1" d="M319.2,489.2h-4.9v-22.7l-5.8,3.8l-2.2-3.6l8.5-5.6h4.4V489.2z"/>
		<path class="st1" d="M334.3,474.6c0,9.9-3.5,15.2-7.3,20.9l-3.1-2.3c3.5-5.5,5.5-10.4,5.5-18.6c0-8.3-1.9-13.1-5.5-18.7l3.1-2.3
			C330.8,459.4,334.3,464.7,334.3,474.6z"/>
	</g>
</g>
</svg>
