<?xml version="1.0" encoding="iso-8859-1"?>
<!-- Generator: Adobe Illustrator 19.0.0, SVG Export Plug-In . SVG Version: 6.00 Build 0)  -->
<svg version="1.1" id="Layer_1" xmlns="http://www.w3.org/2000/svg" xmlns:xlink="http://www.w3.org/1999/xlink" x="0px" y="0px"
	 viewBox="0 0 512 512" style="enable-background:new 0 0 512 512;" xml:space="preserve">
<polygon style="fill:#F4B2B0;" points="13.809,256 154.436,337.19 154.436,174.809 "/>
<path style="fill:#B3404A;" d="M273.19,203.873H168.245v-29.064c0-4.934-2.632-9.492-6.904-11.958
	c-4.272-2.466-9.536-2.466-13.809,0L6.904,244.04C2.632,246.507,0,251.065,0,255.999s2.632,9.492,6.904,11.958l140.628,81.191
	c2.136,1.233,4.52,1.85,6.904,1.85s4.768-0.617,6.904-1.85c4.272-2.466,6.904-7.024,6.904-11.958v-29.064H273.19
	c7.625,0,13.809-6.182,13.809-13.809V217.68C286.998,210.055,280.815,203.873,273.19,203.873z M140.628,313.274L41.426,256
	l99.202-57.275v18.956v76.637V313.274z M259.381,280.51h-91.136v-49.02h91.136V280.51z"/>
<path style="fill:#F4B2B0;" d="M323.513,113.414v285.17c59.418-20.133,102.183-76.365,102.183-142.586
	S382.932,133.547,323.513,113.414z"/>
<g>
	<path style="fill:#B3404A;" d="M323.515,412.393c-2.85,0-5.67-0.882-8.048-2.586c-3.616-2.593-5.762-6.772-5.762-11.222v-285.17
		c0-4.45,2.146-8.629,5.762-11.222c3.615-2.592,8.262-3.284,12.477-1.856C394.672,122.948,439.505,185.503,439.505,256
		s-44.834,133.052-111.561,155.664C326.499,412.152,325.002,412.393,323.515,412.393z M337.322,134.178V377.82
		c45.286-23.071,74.566-69.852,74.566-121.822S382.608,157.25,337.322,134.178z"/>
	<path style="fill:#B3404A;" d="M275.184,492.816c-78.997,0-152.51-39.19-196.65-104.834c-4.254-6.328-2.574-14.909,3.755-19.163
		c6.328-4.257,14.909-2.575,19.165,3.753c38.999,58,103.945,92.628,173.731,92.628c115.352,0,209.199-93.846,209.199-209.199
		S390.536,46.801,275.184,46.801c-69.786,0-134.731,34.628-173.731,92.628c-4.256,6.328-12.838,8.009-19.165,3.753
		c-6.328-4.256-8.009-12.835-3.755-19.163c44.14-65.644,117.654-104.834,196.65-104.834C405.764,19.184,512,125.42,512,256
		S405.765,492.816,275.184,492.816z"/>
</g>
<g>
</g>
<g>
</g>
<g>
</g>
<g>
</g>
<g>
</g>
<g>
</g>
<g>
</g>
<g>
</g>
<g>
</g>
<g>
</g>
<g>
</g>
<g>
</g>
<g>
</g>
<g>
</g>
<g>
</g>
</svg>
