<?xml version="1.0" encoding="iso-8859-1"?>
<!-- Generator: Adobe Illustrator 19.0.0, SVG Export Plug-In . SVG Version: 6.00 Build 0)  -->
<svg version="1.1" id="Capa_1" xmlns="http://www.w3.org/2000/svg" xmlns:xlink="http://www.w3.org/1999/xlink" x="0px" y="0px"
	 viewBox="0 0 512 512" style="enable-background:new 0 0 512 512;" xml:space="preserve">
<circle style="fill:#E6021F;" cx="256" cy="256" r="256"/>
<path style="fill:#AF1916;" d="M512,256c0-5.744-0.209-11.438-0.581-17.088l-74.735-75.102c-5.271-5.375-12.605-8.722-20.682-8.722
	H95.998c-15.949,0-28.998,13.05-28.998,28.999v143.826c0,8.173,3.427,15.584,8.915,20.868L238.926,511.42
	c5.645,0.372,11.335,0.58,17.074,0.58C397.385,512,512,397.385,512,256z"/>
<path style="fill:#01D8DF;" d="M416.002,356.912H95.998c-15.949,0-28.998-13.05-28.998-28.999V184.087
	c0-15.949,13.049-28.998,28.998-28.998h320.003c15.949,0,28.998,13.049,28.998,28.998v143.826
	C445,343.862,431.951,356.912,416.002,356.912z"/>
<path style="fill:#00C2C9;" d="M445,256v71.91c0,15.95-13.05,29-29,29H96c-15.95,0-29-13.05-29-29V256H445z"/>
<g>
	<polygon style="fill:#22D4A3;" points="88.62,256 140.63,256 140.63,271.04 112.26,271.04 112.26,285.44 	"/>
	<polygon style="fill:#22D4A3;" points="177.31,285.41 221.93,285.41 221.93,300.62 159.96,300.62 159.96,256 214.89,256 
		214.89,262.16 177.31,262.16 	"/>
	<polygon style="fill:#22D4A3;" points="275.97,256.63 306.77,300.62 288.04,300.62 266.92,268.69 245.68,300.62 226.83,300.62 
		257.62,256.63 257.18,256 276.41,256 	"/>
	<rect x="316.7" y="256" style="fill:#22D4A3;" width="17.34" height="44.62"/>
	<rect x="373.63" y="256" style="fill:#22D4A3;" width="17.22" height="44.62"/>
</g>
<g>
	<path style="fill:#FFFFFF;" d="M221.928,285.411v15.208h-61.964v-89.238h60.833v15.208h-43.488v21.492h37.58v14.077h-37.58v23.252
		L221.928,285.411L221.928,285.411z"/>
	<path style="fill:#FFFFFF;" d="M244.678,211.381l22.246,33.182l22.121-33.182h18.727l-31.798,45.248l30.793,43.99H288.04
		l-21.116-31.924l-21.24,31.924H226.83l30.794-43.99l-31.799-45.248L244.678,211.381L244.678,211.381z"/>
	<path style="fill:#FFFFFF;" d="M316.695,300.619v-89.238h17.345v89.238H316.695z"/>
	<path style="fill:#FFFFFF;" d="M419.38,226.589h-28.531v74.029h-17.218v-74.029H345.1v-15.208h74.28V226.589z"/>
	<polygon style="fill:#FFFFFF;" points="140.627,240.956 112.261,240.956 112.261,226.556 88.62,256 112.261,285.444 
		112.261,271.044 140.627,271.044 	"/>
</g>
<g>
	<path style="fill:#E7E7E8;" d="M177.31,285.41v-23.25h37.58V256h-54.93v44.62h61.97v-15.21H177.31z"/>
	<path style="fill:#E7E7E8;" d="M275.97,256.63l0.44-0.63h-19.23l0.44,0.63l-30.79,43.99h18.85l21.24-31.93l21.12,31.93h18.73
		L275.97,256.63z"/>
	<path style="fill:#E7E7E8;" d="M316.7,256v44.62h17.34V256H316.7z"/>
	<path style="fill:#E7E7E8;" d="M373.63,256v44.62h17.22V256H373.63z"/>
	<polygon style="fill:#E7E7E8;" points="140.63,256 140.63,271.04 112.26,271.04 112.26,285.44 88.62,256 	"/>
</g>
<g>
</g>
<g>
</g>
<g>
</g>
<g>
</g>
<g>
</g>
<g>
</g>
<g>
</g>
<g>
</g>
<g>
</g>
<g>
</g>
<g>
</g>
<g>
</g>
<g>
</g>
<g>
</g>
<g>
</g>
</svg>
