<?xml version="1.0" encoding="iso-8859-1"?>
<!-- Generator: Adobe Illustrator 19.0.0, SVG Export Plug-In . SVG Version: 6.00 Build 0)  -->
<svg version="1.1" id="Capa_1" xmlns="http://www.w3.org/2000/svg" xmlns:xlink="http://www.w3.org/1999/xlink" x="0px" y="0px"
	 viewBox="0 0 512 512" style="enable-background:new 0 0 512 512;" xml:space="preserve">
<path style="fill:#CB7C52;" d="M310.603,438.917c2.836,0,5.156-2.32,5.156-5.156V5.155c0-2.836-2.32-5.155-5.156-5.155H51.024
	c-2.836,0-5.156,2.319-5.156,5.155V433.76c0,2.836,2.32,5.156,5.156,5.156L310.603,438.917L310.603,438.917z"/>
<path style="opacity:0.1;enable-background:new    ;" d="M68.554,433.761V5.155C68.554,2.319,70.874,0,73.71,0H51.024
	c-2.836,0-5.156,2.319-5.156,5.155V433.76c0,2.836,2.32,5.156,5.156,5.156H73.71C70.874,438.917,68.554,436.597,68.554,433.761z"/>
<path style="fill:#B1E8FF;" d="M280.482,30.228H81.144c-0.426,0-0.835,0.067-1.231,0.166c0.243,0.07,0.49,0.158,0.744,0.277
	l153.952,72.197c2.567,1.205,4.667,4.51,4.667,7.346v328.703h46.362V35.384C285.638,32.548,283.318,30.228,280.482,30.228z"/>
<path style="fill:#E23C38;" d="M462.628,250.561l-106.161-73.06c-4.672-3.216-8.494-1.206-8.494,4.466v38.146
	c0,5.672-4.641,10.312-10.313,10.312H232.645v51.966H337.66c5.672,0,10.313,4.64,10.313,10.311v38.148
	c0,5.671,3.822,7.681,8.494,4.466l106.161-73.063C467.3,259.037,467.3,253.776,462.628,250.561z"/>
<path style="fill:#3EAF91;" d="M234.608,511.557c2.567,1.204,4.667-0.131,4.667-2.967V110.214c0-2.836-2.101-6.141-4.667-7.346
	L80.657,30.671c-2.567-1.204-4.668,0.131-4.668,2.967v398.376c0,2.835,2.101,6.141,4.668,7.345L234.608,511.557z"/>
<g>
	<path style="fill:#86D5B5;" d="M116.26,416.36c-5.135-2.407-9.336-9.019-9.336-14.69V269.647c0-5.671,4.201-8.341,9.336-5.933
		l82.745,38.805c5.135,2.407,9.336,9.019,9.336,14.69v132.022c0,5.671-4.201,8.341-9.336,5.933L116.26,416.36z"/>
	<path style="fill:#86D5B5;" d="M116.26,215.123c-5.135-2.409-9.336-9.018-9.336-14.69V92.681c0-5.671,4.201-8.341,9.336-5.934
		l82.745,38.805c5.135,2.407,9.336,9.018,9.336,14.689v107.752c0,5.672-4.201,8.342-9.336,5.934L116.26,215.123z"/>
</g>
<path style="opacity:0.1;enable-background:new    ;" d="M128.336,407.499c-5.135-2.407-9.336-9.018-9.336-14.689V265l-2.74-1.285
	c-5.135-2.408-9.336,0.262-9.336,5.933v132.023c0,5.671,4.201,12.282,9.336,14.69l82.745,38.805
	c5.135,2.408,9.336-0.262,9.336-5.933v-4.214L128.336,407.499z"/>
<path style="opacity:0.1;enable-background:new    ;" d="M128.336,206.262c-5.135-2.409-9.336-9.019-9.336-14.69V88.032l-2.74-1.285
	c-5.135-2.407-9.336,0.263-9.336,5.934v107.752c0,5.672,4.201,12.281,9.336,14.69l82.745,38.804
	c5.135,2.408,9.336-0.262,9.336-5.934v-4.213L128.336,206.262z"/>
<g>
</g>
<g>
</g>
<g>
</g>
<g>
</g>
<g>
</g>
<g>
</g>
<g>
</g>
<g>
</g>
<g>
</g>
<g>
</g>
<g>
</g>
<g>
</g>
<g>
</g>
<g>
</g>
<g>
</g>
</svg>
