<?xml version="1.0" encoding="iso-8859-1"?>
<!-- Generator: Adobe Illustrator 19.0.0, SVG Export Plug-In . SVG Version: 6.00 Build 0)  -->
<svg version="1.1" id="Layer_1" xmlns="http://www.w3.org/2000/svg" xmlns:xlink="http://www.w3.org/1999/xlink" x="0px" y="0px"
	 viewBox="0 0 512 512" style="enable-background:new 0 0 512 512;" xml:space="preserve">
<circle style="fill:#3C3B41;" cx="255.996" cy="255.997" r="255.996"/>
<path style="fill:#171719;" d="M512,256c0-9.432-0.526-18.74-1.519-27.907l-68.108-68.108c-1.921-4.473-6.373-7.628-11.528-7.628
	H81.156c-6.896,0-12.539,5.642-12.539,12.539v182.208c0,5.155,3.155,9.608,7.628,11.528L228.093,510.48
	c9.168,0.994,18.476,1.519,27.907,1.519C397.385,512,512,397.385,512,256z"/>
<path style="fill:#00C379;" d="M430.844,359.643H81.156c-6.896,0-12.539-5.642-12.539-12.539V164.897
	c0-6.896,5.642-12.539,12.539-12.539h349.688c6.896,0,12.539,5.642,12.539,12.539v182.208
	C443.383,354.001,437.74,359.643,430.844,359.643z"/>
<path style="fill:#008C49;" d="M430.844,152.358H255.999v207.285h174.843c6.896,0,12.539-5.642,12.539-12.539V164.897
	C443.383,158,437.74,152.358,430.844,152.358z"/>
<path style="fill:#FFFFFF;" d="M419.294,346.97H92.707c-6.308,0-11.438-5.131-11.438-11.438V176.47
	c0-6.307,5.13-11.438,11.438-11.438h326.587c6.308,0,11.438,5.131,11.438,11.438v159.062
	C430.732,341.838,425.601,346.97,419.294,346.97z M92.707,172.409c-2.239,0-4.06,1.821-4.06,4.06v159.062
	c0,2.239,1.821,4.06,4.06,4.06h326.587c2.239,0,4.06-1.821,4.06-4.06V176.47c0-2.239-1.821-4.06-4.06-4.06H92.707z"/>
<g>
	<path style="fill:#D8D8DA;" d="M419.294,165.031H255.999v7.378h163.293c2.239,0,4.06,1.821,4.06,4.06v159.062
		c0,2.239-1.821,4.06-4.06,4.06H255.999v7.378h163.293c6.307,0,11.438-5.13,11.438-11.438V176.47
		C430.732,170.163,425.601,165.031,419.294,165.031z"/>
	<polygon style="fill:#D8D8DA;" points="401.978,256 358.547,194.122 358.547,317.879 	"/>
</g>
<g>
	<path style="fill:#FFFFFF;" d="M164.372,284.837v11.152h-54.856v-79.975h53.843v11.152h-41.227v22.753h35.708v10.475h-35.708
		v24.443H164.372z"/>
	<path style="fill:#FFFFFF;" d="M182.393,216.012l22.19,31.54l22.191-31.54h13.854l-29.286,40.551l28.385,39.424h-13.855
		l-21.289-30.413l-21.288,30.413h-13.967l28.498-39.424l-29.399-40.551L182.393,216.012L182.393,216.012z"/>
	<path style="fill:#FFFFFF;" d="M249.638,295.988v-79.975h12.616v79.975H249.638z"/>
</g>
<g>
	<rect x="255.996" y="216.009" style="fill:#D8D8DA;" width="6.255" height="79.975"/>
	<path style="fill:#D8D8DA;" d="M338.962,227.164h-26.583v68.823H299.65v-68.823h-26.696v-11.152h66.007V227.164z"/>
</g>
<g>
</g>
<g>
</g>
<g>
</g>
<g>
</g>
<g>
</g>
<g>
</g>
<g>
</g>
<g>
</g>
<g>
</g>
<g>
</g>
<g>
</g>
<g>
</g>
<g>
</g>
<g>
</g>
<g>
</g>
</svg>
