<?xml version="1.0" encoding="iso-8859-1"?>
<!-- Generator: Adobe Illustrator 19.0.0, SVG Export Plug-In . SVG Version: 6.00 Build 0)  -->
<svg version="1.1" id="Layer_1" xmlns="http://www.w3.org/2000/svg" xmlns:xlink="http://www.w3.org/1999/xlink" x="0px" y="0px"
	 viewBox="0 0 512 512" style="enable-background:new 0 0 512 512;" xml:space="preserve">
<circle style="fill:#E6F3FF;" cx="256" cy="256" r="256"/>
<path style="fill:#CFDBE6;" d="M512,256c0-4.918-0.153-9.8-0.426-14.65l-70.685-70.685l-175.12,72.116L71.111,341.332
	l170.241,170.241c4.849,0.274,9.731,0.426,14.648,0.426C397.384,511.998,512,397.383,512,256z"/>
<rect x="71.111" y="170.667" style="fill:#D83E20;" width="369.778" height="170.667"/>
<rect x="71.111" y="256.569" style="fill:#C1321F;" width="369.778" height="84.764"/>
<g>
	<rect x="302.114" y="192.215" style="fill:#E6F3FF;" width="13.791" height="127.569"/>
	<polygon style="fill:#E6F3FF;" points="170.236,206.005 170.236,192.214 99.556,192.214 99.556,319.783 170.236,319.783 
		170.236,305.992 113.347,305.992 113.347,262.894 170.236,262.894 170.236,249.103 113.347,249.103 113.347,206.005 	"/>
	<polygon style="fill:#E6F3FF;" points="284.177,200.944 273.087,192.743 234.882,244.402 196.675,192.743 185.587,200.944 
		226.306,255.998 185.587,311.053 196.675,319.255 234.882,267.595 273.087,319.255 284.177,311.053 243.459,255.998 	"/>
	<polygon style="fill:#E6F3FF;" points="419.34,192.214 333.145,192.214 333.145,206.005 369.347,206.005 369.347,319.783 
		383.138,319.783 383.138,206.005 419.34,206.005 	"/>
</g>
<g>
	<rect x="302.114" y="256.569" style="fill:#CFDBE6;" width="13.791" height="63.21"/>
	<polygon style="fill:#CFDBE6;" points="170.236,262.894 170.236,256.574 99.556,256.574 99.556,319.783 170.236,319.783 
		170.236,305.992 113.347,305.992 113.347,262.894 	"/>
	<polygon style="fill:#CFDBE6;" points="225.88,256.574 185.587,311.053 196.675,319.255 234.882,267.595 273.087,319.255 
		284.177,311.053 243.884,256.574 	"/>
	<rect x="369.347" y="256.569" style="fill:#CFDBE6;" width="13.791" height="63.21"/>
</g>
<g>
</g>
<g>
</g>
<g>
</g>
<g>
</g>
<g>
</g>
<g>
</g>
<g>
</g>
<g>
</g>
<g>
</g>
<g>
</g>
<g>
</g>
<g>
</g>
<g>
</g>
<g>
</g>
<g>
</g>
</svg>
