<?xml version="1.0" encoding="iso-8859-1"?>
<!-- Generator: Adobe Illustrator 19.0.0, SVG Export Plug-In . SVG Version: 6.00 Build 0)  -->
<svg version="1.1" id="Capa_1" xmlns="http://www.w3.org/2000/svg" xmlns:xlink="http://www.w3.org/1999/xlink" x="0px" y="0px"
	 viewBox="0 0 512 512" style="enable-background:new 0 0 512 512;" xml:space="preserve">
<path style="fill:#29EDED;" d="M157.538,22.154h-39.385c-8.157,0-14.769,6.613-14.769,14.769v108.666
	c0,5.279,2.818,10.156,7.391,12.794c4.573,2.637,10.206,2.632,14.775-0.011c3.726-2.156,7.978-3.297,12.295-3.297
	c4.317,0,8.569,1.139,12.295,3.297c2.288,1.324,4.842,1.986,7.397,1.986c2.547,0,5.095-0.659,7.379-1.975
	c4.574-2.638,7.391-7.516,7.391-12.794V36.923C172.308,28.767,165.695,22.154,157.538,22.154z"/>
<path style="fill:#21D8DE;" d="M393.846,22.154h-39.385c-8.157,0-14.769,6.613-14.769,14.769v108.666
	c0,5.279,2.818,10.156,7.391,12.794c4.574,2.637,10.207,2.632,14.775-0.011c3.726-2.156,7.978-3.297,12.295-3.297
	s8.569,1.139,12.295,3.297c2.288,1.324,4.842,1.986,7.397,1.986c2.547,0,5.095-0.659,7.379-1.975
	c4.574-2.638,7.391-7.516,7.391-12.794V36.923C408.615,28.767,402.003,22.154,393.846,22.154z"/>
<path style="fill:#0072AE;" d="M137.846,125.538c-29.86,0-54.154,24.293-54.154,54.154v19.692c0,8.157,6.613,14.769,14.769,14.769
	h78.769c8.157,0,14.769-6.613,14.769-14.769v-19.692C192,149.832,167.707,125.538,137.846,125.538z"/>
<path style="fill:#00457D;" d="M374.154,125.538c-29.86,0-54.154,24.293-54.154,54.154v19.692c0,8.157,6.613,14.769,14.769,14.769
	h78.769c8.157,0,14.769-6.613,14.769-14.769v-19.692C428.308,149.832,404.014,125.538,374.154,125.538z"/>
<path style="fill:#B7293F;" d="M497.231,184.615H14.769C6.613,184.615,0,191.228,0,199.385v275.692
	c0,8.157,6.613,14.769,14.769,14.769h482.462c8.157,0,14.769-6.613,14.769-14.769V199.385
	C512,191.228,505.387,184.615,497.231,184.615z"/>
<path style="fill:#F0204B;" d="M256,184.615H14.769C6.613,184.615,0,191.228,0,199.385v275.692c0,8.157,6.613,14.769,14.769,14.769
	H256V184.615z"/>
<path style="fill:#EEF8FF;" d="M152.615,411.077H83.692c-8.157,0-14.769-6.613-14.769-14.769V278.154
	c0-8.157,6.613-14.769,14.769-14.769h68.923c8.157,0,14.769,6.613,14.769,14.769s-6.613,14.769-14.769,14.769H98.462v88.615h54.154
	c8.157,0,14.769,6.613,14.769,14.769C167.385,404.464,160.772,411.077,152.615,411.077z"/>
<path style="fill:#EBDBDD;" d="M268.365,265.396c-7.047-4.109-16.09-1.73-20.199,5.316l-21.704,37.208l-21.704-37.208
	c-4.11-7.046-13.152-9.425-20.199-5.316c-7.046,4.111-9.426,13.154-5.315,20.199l30.12,51.635l-30.12,51.635
	c-4.11,7.045-1.73,16.089,5.315,20.199c2.34,1.365,4.901,2.014,7.428,2.014c5.082,0,10.026-2.625,12.771-7.33l21.704-37.208
	l21.704,37.208c2.745,4.706,7.69,7.33,12.771,7.33c2.527,0,5.088-0.65,7.428-2.014c7.046-4.111,9.426-13.154,5.315-20.199
	l-30.12-51.635l30.12-51.635C277.791,278.55,275.411,269.507,268.365,265.396z"/>
<g>
	<path style="fill:#EEF8FF;" d="M142.769,352H83.692c-8.157,0-14.769-6.613-14.769-14.769s6.613-14.769,14.769-14.769h59.077
		c8.157,0,14.769,6.613,14.769,14.769S150.926,352,142.769,352z"/>
	<path style="fill:#EEF8FF;" d="M256,358.558l-12.441-21.327L256,315.904v-51.667c-3.182,1.123-6,3.331-7.835,6.475l-21.704,37.208
		l-21.704-37.208c-4.11-7.046-13.152-9.425-20.199-5.316c-7.046,4.111-9.426,13.154-5.315,20.199l30.12,51.635l-30.12,51.635
		c-4.11,7.045-1.73,16.089,5.315,20.199c2.34,1.365,4.901,2.014,7.428,2.014c5.082,0,10.026-2.625,12.771-7.33l21.704-37.208
		l21.704,37.208c1.834,3.145,4.651,5.353,7.835,6.478V358.558z"/>
</g>
<g>
	<path style="fill:#EBDBDD;" d="M428.308,263.385h-68.923c-8.157,0-14.769,6.613-14.769,14.769s6.613,14.769,14.769,14.769h19.692
		v103.385c0,8.157,6.613,14.769,14.769,14.769s14.769-6.613,14.769-14.769V292.923h19.692c8.157,0,14.769-6.613,14.769-14.769
		S436.464,263.385,428.308,263.385z"/>
	<path style="fill:#EBDBDD;" d="M310.154,263.385c-8.157,0-14.769,6.613-14.769,14.769v117.169c0,8.157,6.613,14.769,14.769,14.769
		s14.769-6.613,14.769-14.769V278.154C324.923,269.997,318.31,263.385,310.154,263.385z"/>
</g>
<g>
</g>
<g>
</g>
<g>
</g>
<g>
</g>
<g>
</g>
<g>
</g>
<g>
</g>
<g>
</g>
<g>
</g>
<g>
</g>
<g>
</g>
<g>
</g>
<g>
</g>
<g>
</g>
<g>
</g>
</svg>
