<?xml version="1.0" encoding="iso-8859-1"?>
<!-- Generator: Adobe Illustrator 19.0.0, SVG Export Plug-In . SVG Version: 6.00 Build 0)  -->
<svg version="1.1" id="Capa_1" xmlns="http://www.w3.org/2000/svg" xmlns:xlink="http://www.w3.org/1999/xlink" x="0px" y="0px"
	 viewBox="0 0 512 512" style="enable-background:new 0 0 512 512;" xml:space="preserve">
<path style="fill:#FFE261;" d="M512,256c0,88.68-45.098,166.827-113.601,212.771c-8.067,5.423-16.467,10.386-25.161,14.869
	c-35.129,18.129-74.981,28.358-117.237,28.358c-2.403,0-4.796-0.031-7.178-0.104c-6.478-0.178-12.894-0.596-19.236-1.243
	C100.615,497.433,0.003,388.461,0.003,256c0-141.384,114.614-255.998,255.998-255.998c132.471,0,241.443,100.623,254.661,229.604
	C511.54,238.279,512,247.087,512,256z"/>
<path style="fill:#EBEBF2;" d="M284.609,198.181L179.564,93.136c-23.828-23.828-62.603-23.828-86.43,0s-23.828,62.603,0,86.43
	l105.045,105.045l-53.198,53.198L39.937,232.764c-53.249-53.249-53.249-139.577,0-192.825s139.577-53.249,192.825,0l105.045,105.045
	"/>
<g>
	<path style="fill:#C5C6E0;" d="M50.422,30.476c-3.615,2.941-7.117,6.095-10.485,9.463c-53.249,53.249-53.249,139.576,0,192.825
		l105.045,105.045l19.948-19.948L59.885,212.816C10.004,162.935,6.851,84.028,50.422,30.476z"/>
	<path style="fill:#C5C6E0;" d="M113.082,73.188c-3.434,3.434-6.355,7.185-8.799,11.149c23.55-14.518,54.887-11.596,75.281,8.799
		l105.045,105.045l19.948-19.948L199.512,73.188C175.685,49.36,136.91,49.36,113.082,73.188z"/>
</g>
<path style="fill:#FF526C;" d="M512,256c0,88.68-45.098,166.827-113.601,212.771c-8.067,5.423-16.467,10.386-25.161,14.869
	c-35.129,18.129-74.981,28.358-117.237,28.358c-2.403,0-4.796-0.031-7.178-0.104L112.987,376.058
	c-11.839-11.828-11.839-31.012,0-42.841l229.218-229.228c11.828-11.828,31.012-11.828,42.841,0l125.617,125.617
	C511.54,238.279,512,247.087,512,256z"/>
<path style="fill:#405466;" d="M368.729,282.766c-20.198-20.198-52.945-20.198-73.142,0c-20.02,20.02-20.376,51.903-0.785,72.342
	c10.173,10.613,23.72,15.925,37.275,15.943c10.884,0.015,20.388,7.365,23.204,17.878v0.001c3.208,11.972,18.173,15.982,26.937,7.218
	l26.749-26.749c8.765-8.765,4.754-23.729-7.218-26.937l0,0c-10.61-2.843-17.809-12.491-17.881-23.475
	C383.785,305.867,378.741,292.776,368.729,282.766z"/>
<g>
</g>
<g>
</g>
<g>
</g>
<g>
</g>
<g>
</g>
<g>
</g>
<g>
</g>
<g>
</g>
<g>
</g>
<g>
</g>
<g>
</g>
<g>
</g>
<g>
</g>
<g>
</g>
<g>
</g>
</svg>
