<?xml version="1.0" encoding="iso-8859-1"?>
<!-- Generator: Adobe Illustrator 19.0.0, SVG Export Plug-In . SVG Version: 6.00 Build 0)  -->
<svg version="1.1" id="Capa_1" xmlns="http://www.w3.org/2000/svg" xmlns:xlink="http://www.w3.org/1999/xlink" x="0px" y="0px"
	 viewBox="0 0 512 512" style="enable-background:new 0 0 512 512;" xml:space="preserve">
<g>
	<g>
		<path d="M255.998,151.118c-48.9,0-88.683,39.782-88.683,88.683c0.001,48.766,39.629,88.684,88.684,88.684
			c13.824,0,27.397-3.129,40.044-9.541c0.105-0.053,0.198-0.121,0.299-0.179c28.674-14.709,48.339-44.584,48.339-78.965
			C344.682,190.901,304.898,151.118,255.998,151.118z M285.154,307.458L285.154,307.458c-18.576,8.035-39.717,8.042-58.307,0
			v-33.915c0-6.213,5.054-11.268,11.268-11.268h35.771c6.213,0,11.269,5.054,11.269,11.268V307.458z M300.154,298.751v-25.208
			c0-14.484-11.785-26.269-26.27-26.269h-35.77c-14.485,0-26.269,11.784-26.269,26.269v25.208
			c-17.916-13.453-29.529-34.869-29.529-58.95c0-40.628,33.054-73.682,73.682-73.682s73.682,33.054,73.682,73.682
			C329.682,263.88,318.07,285.297,300.154,298.751z"/>
	</g>
</g>
<g>
	<g>
		<path d="M255.999,177.172c-17.495,0-31.727,14.232-31.727,31.727c0,17.495,14.233,31.728,31.727,31.728
			c17.494,0,31.727-14.233,31.727-31.728C287.726,191.404,273.495,177.172,255.999,177.172z M255.999,225.627
			c-9.224,0-16.726-7.503-16.726-16.727c0-9.223,7.503-16.726,16.726-16.726c9.223,0,16.726,7.503,16.726,16.726
			C272.726,218.124,265.223,225.627,255.999,225.627z"/>
	</g>
</g>
<g>
	<g>
		<path d="M393.637,348.487H118.362c-6.945,0-12.597,5.65-12.597,12.598v47.81c0,6.946,5.651,12.598,12.598,12.598h275.274
			c6.946,0,12.598-5.65,12.598-12.598v-47.81C406.235,354.138,400.583,348.487,393.637,348.487z M391.234,406.49H120.766v-43.003
			h270.467V406.49z"/>
	</g>
</g>
<g>
	<g>
		<path d="M366.141,377.488H145.128c-4.142,0-7.5,3.357-7.5,7.5c0,4.143,3.358,7.5,7.5,7.5h221.013c4.142,0,7.5-3.357,7.5-7.5
			C373.642,380.845,370.283,377.488,366.141,377.488z"/>
	</g>
</g>
<g>
	<g>
		<path d="M496.515,37.176c-4.508,0-474.443,0-481.03,0h-0.001C6.816,37.176,0,44.234,0,52.66C0,68.87,0,441.135,0,459.34
			c0,8.537,6.945,15.484,15.483,15.484h222.65c4.142,0,7.5-3.357,7.5-7.5s-3.358-7.5-7.5-7.5H15.484
			c-0.266,0-0.482-0.217-0.482-0.483l0.002-331.317c3.522,0,474.448,0,481.995,0v124.855c0,4.143,3.358,7.5,7.5,7.5
			c4.142,0,7.5-3.357,7.5-7.5V52.66C512,43.988,504.962,37.176,496.515,37.176z M74.278,113.024H15.004v-0.001V52.649
			c0.001-0.051,0.013-0.099,0.029-0.144c0.005-0.013,0.006-0.026,0.012-0.039c0.021-0.046,0.05-0.087,0.084-0.125
			c0.007-0.007,0.01-0.016,0.017-0.023c0.087-0.086,0.207-0.14,0.339-0.14h58.793V113.024z M496.998,113.023H89.277V52.177h407.237
			c0.071,0,0.138,0.017,0.199,0.045c0.159,0.075,0.262,0.237,0.283,0.428c0,0.003,0.002,0.006,0.002,0.01V113.023z"/>
	</g>
</g>
<g>
	<g>
		<path d="M504.5,280.379c-4.142,0-7.5,3.357-7.5,7.5v171.46c0,0.267-0.217,0.483-0.483,0.483H273.135c-4.142,0-7.5,3.357-7.5,7.5
			s3.358,7.5,7.5,7.5h223.381c8.538,0,15.484-6.946,15.484-15.484V287.88C512,283.738,508.642,280.379,504.5,280.379z"/>
	</g>
</g>
<g>
</g>
<g>
</g>
<g>
</g>
<g>
</g>
<g>
</g>
<g>
</g>
<g>
</g>
<g>
</g>
<g>
</g>
<g>
</g>
<g>
</g>
<g>
</g>
<g>
</g>
<g>
</g>
<g>
</g>
</svg>
